<svg width="381" height="406" viewBox="0 0 381 406" fill="none" xmlns="http://www.w3.org/2000/svg">
<path d="M126.67 394.37C126.55 383.85 126.52 383.04 125.79 382.08C125.37 381.5 124.79 381 124.56 381C124.29 381 124.06 380.85 124.06 380.62C124.06 380.43 123.64 380.24 123.1 380.24C122.14 380.24 122.14 380.24 122.14 372.44C122.14 364.6 122.14 364.6 145.49 364.37C158.32 364.22 188.28 364.1 212.13 364.1C255.41 364.1 255.41 364.1 255.41 372.17C255.41 379.54 255.33 380.27 254.76 380.47C250.46 381.85 250.61 381.35 250.73 394.53C250.81 405.59 250.81 405.59 188.82 405.59C126.79 405.59 126.79 405.59 126.68 394.38L126.67 394.37Z" fill="#E8E9E9"/>
<path d="M126.536 117.093C124.704 124.914 120.082 134.913 118 138.935C119.18 139.628 122.456 141.389 126.12 142.887C129.784 144.385 133.338 144.482 134.657 144.343L136.739 139.975L137.571 144.967C144.789 146.285 160.516 148.878 165.679 148.712C172.134 148.504 212.109 151 217.523 151C221.853 151 228.072 149.613 230.64 148.92C230.709 148.434 230.89 147.089 231.056 145.591C231.223 144.094 232.514 142.887 233.138 142.471L235.845 149.96C237.233 149.683 241.092 148.795 245.422 147.464C249.753 146.132 253.612 143.581 255 142.471C254.584 141.778 253.334 139.392 251.669 135.398C249.587 130.406 247.296 108.148 245.422 98.9949C243.549 89.842 241.675 69.664 235.845 56.5587C230.015 43.4534 216.065 27.8519 186.292 27.0198C156.518 26.1877 140.695 51.7742 136.739 65.0876C132.783 78.4009 128.827 107.316 126.536 117.093Z" fill="#361A17" stroke="black"/>
<path d="M115.22 338.48C115.22 338.29 112.49 335.41 109.15 332.03C103.08 325.85 99.01 320.97 97.01 317.47C94.55 313.25 92.25 306.52 91.36 301.19C91.17 300 91.01 287.67 91.01 273.81C91.01 254.45 90.89 248.5 90.51 248.08C90.28 247.73 89.32 247.04 88.4 246.43C86.75 245.39 86.75 245.39 86.83 242.36C86.95 239.29 86.95 239.29 88.17 239.29C89.01 239.29 93.39 241.25 101.61 245.36C116.2 252.58 116.01 252.39 115.97 257.69C115.93 259.5 116.05 278.51 116.16 299.9C116.39 335.23 116.35 338.77 115.81 338.77C115.46 338.77 115.2 338.65 115.2 338.5L115.22 338.48Z" fill="#E6B9A3"/>
<path d="M261.13 338.1C261.13 337.72 261.13 318.86 261.17 296.16C261.21 254.95 261.21 254.95 262.17 253.45C263.09 251.99 265.67 250.03 266.66 250.03C266.93 250.03 267.35 249.84 267.54 249.65C268.42 248.77 288.28 239.28 289.24 239.28C290.43 239.28 290.74 240.01 290.74 242.74C290.74 244.81 290.09 245.85 288.05 247C286.51 247.88 286.51 247.88 286.48 250.96C286.48 252.69 286.4 264.29 286.36 276.73C286.28 301.62 286.28 301.5 283.83 309.18C282.37 313.56 280.22 317.86 277.49 321.55C275.53 324.2 262.05 338.64 261.47 338.72C261.28 338.76 261.16 338.45 261.12 338.11L261.13 338.1Z" fill="#E6B9A3"/>
<path d="M178.98 180.13C176.21 179.78 171.53 178.63 168.07 177.44C166.8 177.02 165 176.67 164.04 176.67C162.39 176.63 161.81 176.29 154.78 171.14C150.21 167.8 147.29 165.42 147.29 165.03C147.29 164.68 147.48 164.38 147.67 164.34C147.9 164.34 148.4 164.03 148.82 163.65C149.24 163.27 151.43 161.88 153.7 160.54C160.57 156.51 160.08 157.39 160.38 148.83C160.65 141.53 160.65 141.53 159.27 138.77C156.01 132.36 153.01 123.91 151.78 117.95C151.09 114.42 151.05 114.38 149.55 113.73C146.32 112.27 143.14 107.05 141.87 101.06C140.79 95.95 141.45 87.69 143.18 84.78C144.68 82.21 147.29 81.94 148.52 84.24C149.21 85.47 149.21 85.47 149.33 84.2C149.45 83.01 149.48 82.93 149.98 83.62C150.33 84.04 150.56 85.46 150.59 87.58C150.67 90.61 150.71 90.5 151.09 85.35C151.51 79.9 151.51 79.82 152.66 78.9C155.35 76.75 155.16 77.63 155.16 68.45C155.16 60.23 155.16 60.04 156.04 59.27C158.19 57.27 165.8 54.35 172.36 53.01C175.82 52.32 179.62 51.9 187.99 51.24C191.64 50.93 198.94 51.55 204.39 52.62C212.23 54.12 221.67 57.88 222.4 59.8C222.59 60.3 222.75 64.6 222.75 69.32C222.75 77.88 222.75 77.88 224.32 79.23C225.93 80.54 225.93 80.54 226.2 83.95C226.35 85.83 226.51 86.68 226.55 85.83C226.59 84.99 226.86 83.95 227.16 83.56C227.7 82.83 227.74 82.87 227.74 84.06C227.74 85.29 227.74 85.29 229.05 83.94C230.62 82.25 231.7 82.17 233.08 83.67C234.77 85.48 235.5 88.28 235.69 93.69C235.84 97.65 235.73 99.07 235.11 101.76C233.65 107.87 230.92 112.44 227.77 114.05C226.43 114.74 226.31 114.93 225.85 117.43C225.08 121.65 221.86 130.87 219.09 136.67C216.56 141.93 216.56 141.93 216.86 149.19C217.17 156.49 217.17 156.49 222.7 159.83C225.77 161.67 228.54 163.4 228.85 163.67C229.2 163.98 229.62 164.17 229.85 164.17C230.04 164.17 230.27 164.44 230.35 164.78C230.5 165.62 217.41 175.11 216.1 175.11C215.6 175.11 213.91 175.65 212.34 176.26C208.81 177.76 202.01 179.56 198.05 180.06C194.67 180.52 182.76 180.52 178.96 180.1L178.98 180.13Z" fill="#E6B9A3"/>
<path d="M150.819 99.1961C147.071 102.115 153.375 129.216 150.819 128C148.193 126.927 130.675 94.6026 131.016 89.1075C131.442 82.2386 138.469 65.2811 143.153 57.7683C147.838 50.2555 156.355 38.0203 185.315 36.0885C214.274 34.1566 228.115 64.4225 232.374 72.15C236.633 79.8775 238.797 116.513 232.374 111.5C229.97 109.623 228.907 97.1465 225.5 95C222.093 92.8535 217.681 81.5947 217.469 77.087C217.256 72.5793 215.339 68.2863 211.719 62.4907C208.823 57.8542 202.989 58.4123 200.434 59.2709C199.085 57.7683 194.173 54.6344 185.315 54.1192C174.242 53.4753 168.919 65.7104 165.512 74.7258C162.105 83.7412 155.504 95.547 150.819 99.1961Z" fill="#361A17"/>
<path d="M122.9 392.52C122.9 379.46 122.9 379.46 124.05 379.46C124.78 379.46 125.66 379.88 126.43 380.57C127.7 381.68 127.7 381.68 127.81 393.63C127.93 405.57 127.93 405.57 125.43 405.57C122.9 405.57 122.9 405.57 122.9 392.51V392.52Z" fill="#AFB8C4"/>
<path d="M249.65 393.83C249.65 386.53 249.8 381.81 250.03 381.35C250.49 380.51 252.37 379.47 253.49 379.47C254.26 379.47 254.26 379.62 254.26 392.53C254.26 405.59 254.26 405.59 251.96 405.59C249.66 405.59 249.66 405.59 249.66 393.84L249.65 393.83Z" fill="#AFB8C4"/>
<path d="M186.81 364.91C131 364.72 117.14 364.56 116.68 364.18C116.33 363.91 115.87 363.22 115.64 362.64C115.37 361.95 115.18 346.01 115.03 311.87C114.8 256.1 114.76 255.18 114.15 254.57C113.84 254.26 113.69 252.65 113.69 250.08C113.69 245.05 113.27 243.51 111.54 242.01C110.81 241.32 104.93 238.21 98.48 235.06C86.8 229.34 86.8 229.34 86.8 222.31C86.84 211.59 87.53 207.75 90.79 201.03C93.25 196.08 96.55 192.2 101.08 189.09C103.96 187.13 113.26 182.06 131.54 172.57C137.26 169.57 143.22 166.46 144.83 165.58C147.71 164.01 147.71 164.01 155.66 169.8C162.07 174.45 163.73 175.52 164.19 175.14C164.92 174.53 165.19 174.72 173.56 180.86C186.31 190.19 188.54 191.73 189.04 191.42C189.81 191 199.83 183.82 203.75 180.9C210.32 176.02 213.51 173.99 214.73 173.99C215.57 173.99 217.61 172.72 222.83 169C229.78 164.01 229.78 164.01 231.74 165.08C232.82 165.69 239.42 169.19 246.37 172.84C276.33 188.47 276.44 188.55 280.82 193.12C284.2 196.65 286.43 200.23 288.04 204.72C289.77 209.41 290.38 214.09 290.31 222.39C290.27 229.5 290.27 229.5 278.79 235.18C267.58 240.75 265.46 241.98 264.54 243.67C264.27 244.09 263.96 246.67 263.85 249.32C263.7 252.93 263.47 254.43 262.97 255.16C262.39 256.08 262.32 260.11 262.32 308.32C262.28 339.47 262.13 361.01 261.94 361.86C261.4 363.82 260.02 364.97 258.02 365.05C257.1 365.09 225.07 365.05 186.81 364.93V364.91ZM231.9 245.12C232.48 244.74 233.55 244.16 234.28 243.89C235.01 243.62 235.89 243.16 236.2 242.93C236.51 242.66 237.51 242.09 238.35 241.62C241.31 240.16 241.19 240.66 241.19 230.41C241.19 221.65 241.15 221.19 240.38 220.42C239.61 219.65 239.27 219.65 229.86 219.77C221.1 219.89 220.03 219.96 219.41 220.58C218.8 221.19 218.72 222.15 218.72 230.49C218.72 239.75 218.72 239.75 219.68 240.51C220.87 241.51 229.55 245.81 230.32 245.81C230.63 245.81 231.36 245.5 231.89 245.12H231.9Z" fill="#AFB8C4"/>
<path d="M224.07 244.69C216.89 241.16 217.58 242.69 217.58 230.48C217.58 221.03 217.66 220.03 218.27 219.42C218.88 218.81 220 218.73 229.87 218.61C240.43 218.49 240.78 218.49 241.55 219.26C242.32 220.03 242.36 220.49 242.36 230.4C242.36 241.96 242.51 241.31 239.52 242.77C238.68 243.23 237.68 243.81 237.37 244.08C237.06 244.31 236.18 244.77 235.45 245.04C234.72 245.31 233.64 245.88 233.07 246.27C231.19 247.58 229.11 247.19 224.08 244.7L224.07 244.69Z" fill="white"/>
<path d="M114.76 262.21C114.57 261.83 114.45 260.33 114.49 258.95C114.53 256.38 114.53 256.38 114.87 258.11C115.29 260.15 115.18 263.29 114.75 262.22L114.76 262.21Z" fill="white"/>
<path d="M262.55 250.22C262.82 243.5 263.09 242.38 264.82 240.85C266.39 239.47 289.44 227.98 289.94 228.33C290.17 228.45 290.32 230.98 290.32 234.4C290.36 240.28 290.36 240.28 288.94 240.81C287.83 241.19 271.54 249.14 268.47 250.8C268.16 250.95 267.24 251.41 266.43 251.8C265.01 252.49 263.9 253.57 262.82 255.26C262.44 255.84 262.4 254.8 262.55 250.23V250.22Z" fill="white"/>
<path d="M113.65 253.91C112.84 252.76 110.88 251.64 101.17 246.8C94.87 243.65 89.07 240.85 88.34 240.58C87 240.12 87 240.12 87.11 237.85C87.19 236.47 87.46 235.47 87.84 235.16C88.3 234.78 88.26 234.7 87.61 234.47C86.88 234.24 86.8 233.93 86.8 231.17C86.8 228.83 86.92 228.14 87.34 228.14C87.65 228.14 93.33 230.83 99.98 234.09C113.19 240.58 114.19 241.27 114.65 244.34C114.77 245.26 114.84 248.07 114.77 250.64C114.65 255.29 114.65 255.29 113.66 253.9L113.65 253.91Z" fill="white"/>
<path d="M169 179.24C166 176.74 163.62 175.59 164.16 175.17C164.51 174.86 165.54 175.05 168.08 175.94C175.26 178.36 177.55 179.27 185 179.5C189.38 179.65 194.27 179.28 196.46 179.01C200.76 178.43 207.48 176.71 211.21 175.13C212.78 174.52 214.47 173.98 215.01 173.98C215.78 173.98 215.36 174.44 212.71 176.4C199.38 186.12 200 193.57 188.67 193.57C184 193.5 182 192.5 174.5 186L169 179.24Z" fill="white"/>
</svg>
