<svg width="21" height="19" viewBox="0 0 21 19" fill="none" xmlns="http://www.w3.org/2000/svg">
<path d="M10.4921 18.6188C12.7645 14.6808 14.9815 10.8391 17.2169 6.96406C16.5211 6.7457 15.8549 6.56435 15.2109 6.32748C14.6928 6.13872 14.3338 6.25716 13.9452 6.64947C11.8726 8.7628 9.77035 10.8539 7.67923 12.9524C7.583 13.0487 7.49788 13.1597 7.39795 13.2708C8.41946 15.0361 9.42985 16.7793 10.4921 18.6188Z" fill="#30404F"/>
<path d="M9.74861 9.0996C10.8627 7.97446 11.936 6.89004 13.0056 5.80932C12.6133 5.57985 8.93806 4.63238 8.56055 4.68789C8.95657 6.15723 9.34888 7.61916 9.74861 9.0996Z" fill="#30404F"/>
<path d="M20.9998 0.424316C19.9598 2.21564 18.9235 4.00698 17.8613 5.83532C16.825 5.56513 15.8035 5.30606 14.7819 5.03218C12.7278 4.48441 10.6811 3.91814 8.62337 3.38149C8.28287 3.29266 8.11631 3.12612 8.03859 2.79302C7.85724 2.00098 7.65369 1.21635 7.45752 0.424316C11.9729 0.424316 16.4881 0.424316 20.9998 0.424316Z" fill="#30404F"/>
<path d="M6.28816 0.424316C6.4473 1.13123 6.58794 1.84184 6.77299 2.54504C7.32076 4.59915 7.88333 6.64955 8.44219 8.70366C8.57173 9.1811 8.70126 9.65854 8.8197 10.0952C8.135 10.7874 7.48731 11.4388 6.83962 12.0939C6.55093 11.8274 2.68699 5.23944 0 0.424316C2.09482 0.424316 4.19334 0.424316 6.28816 0.424316Z" fill="#30404F"/>
</svg>
