<svg width="22" height="21" viewBox="0 0 22 21" fill="none" xmlns="http://www.w3.org/2000/svg">
<path fill-rule="evenodd" clip-rule="evenodd" d="M2.47852 0.756348H21.9106L19.4321 20.1714H0L2.47852 0.756348ZM4.33153 2.86096L2.39037 18.0668H17.5791L19.5203 2.86096H4.33153Z" fill="#30404F"/>
<path d="M10.2187 7.42539H12.0603L12.6127 4.66309H14.7305L14.178 7.42539H15.375V9.26693H13.8097L13.4414 11.2005H15.375V13.0421H13.1652L12.6127 15.8044H10.495L11.0474 13.0421H9.20588L8.65342 15.8044H6.53565L7.08811 13.0421H5.89111V11.2005H7.45642L7.82473 9.26693H5.89111V7.42539H8.10096L8.65342 4.66309H10.7712L10.2187 7.42539ZM9.48211 11.2926H11.3236L11.692 9.359H9.85042L9.48211 11.2926Z" fill="#30404F"/>
</svg>
