<svg width="21" height="21" viewBox="0 0 21 21" fill="none" xmlns="http://www.w3.org/2000/svg">
<path d="M7.3338 12.4841H3.32116C2.95063 12.4841 2.64941 12.7854 2.64941 13.1558C2.64941 13.5273 2.95063 13.8294 3.32116 13.8294H7.3338C7.70433 13.8294 8.00642 13.5273 8.00642 13.1558C8.00642 12.7854 7.70521 12.4841 7.3338 12.4841Z" fill="#30404F"/>
<path d="M14.0222 16.9417H10.0087C9.63812 16.9417 9.33691 17.2438 9.33691 17.6152C9.33691 17.9866 9.63812 18.2887 10.0087 18.2887H14.0222C14.3928 18.2887 14.6948 17.9866 14.6948 17.6152C14.6948 17.2438 14.3928 16.9417 14.0222 16.9417Z" fill="#30404F"/>
<path d="M14.0222 14.7141H10.0087C9.63812 14.7141 9.33691 15.0153 9.33691 15.3859C9.33691 15.7573 9.63812 16.0585 10.0087 16.0585H14.0222C14.3928 16.0585 14.6948 15.7573 14.6948 15.3859C14.6948 15.0153 14.3928 14.7141 14.0222 14.7141Z" fill="#30404F"/>
<path d="M7.3338 14.7141H3.32116C2.95063 14.7141 2.64941 15.0153 2.64941 15.3859C2.64941 15.7573 2.95063 16.0585 3.32116 16.0585H7.3338C7.70433 16.0585 8.00642 15.7573 8.00642 15.3859C8.00642 15.0153 7.70521 14.7141 7.3338 14.7141Z" fill="#30404F"/>
<path d="M14.0222 12.4841H10.0087C9.63812 12.4841 9.33691 12.7854 9.33691 13.1558C9.33691 13.5273 9.63812 13.8294 10.0087 13.8294H14.0222C14.3928 13.8294 14.6948 13.5273 14.6948 13.1558C14.6948 12.7854 14.3928 12.4841 14.0222 12.4841Z" fill="#30404F"/>
<path d="M9.7857 7.588C10.2809 7.588 10.6822 7.1866 10.6822 6.69146C10.6822 6.19632 10.2809 5.79492 9.7857 5.79492C9.29056 5.79492 8.88916 6.19632 8.88916 6.69146C8.88916 7.1866 9.29056 7.588 9.7857 7.588Z" fill="#30404F"/>
<path d="M7.33282 16.9438H3.32017C2.94965 16.9438 2.64844 17.245 2.64844 17.6155C2.64844 17.987 2.94965 18.2891 3.32106 18.2891H7.33282C7.70334 18.2891 8.00545 17.987 8.00545 17.6155C8.00545 17.245 7.70423 16.9438 7.33282 16.9438Z" fill="#30404F"/>
<path d="M5.55145 4.46668H11.7926C12.164 4.46668 12.4661 4.16546 12.4661 3.79405C12.4661 3.42354 12.164 3.12231 11.7926 3.12231H5.55145C5.18004 3.12231 4.87793 3.42354 4.87793 3.79405C4.87882 4.16457 5.18004 4.46668 5.55145 4.46668Z" fill="#30404F"/>
<path d="M19.8182 6.68804H16.9233V0.672625C16.9233 0.580217 16.9046 0.492251 16.8691 0.412282C16.766 0.161713 16.5217 0 16.2497 0H1.09126C0.720732 0 0.42041 0.302103 0.42041 0.672625V18.5056C0.42041 19.8597 1.5222 20.9624 2.87633 20.9624H18.0366C19.3889 20.9624 20.4916 19.8607 20.4916 18.5056V7.36155C20.4898 6.99015 20.1886 6.68804 19.8182 6.68804ZM15.8517 19.6172H2.87633C2.26325 19.6172 1.76477 19.1187 1.76477 18.5065V1.34525H15.579V18.5065C15.579 18.8948 15.6713 19.2725 15.8517 19.6172ZM18.0366 19.6172C17.4244 19.6172 16.9259 19.1187 16.9259 18.5065V8.03329H19.1473V18.5065C19.1473 19.1187 18.6488 19.6172 18.0366 19.6172Z" fill="#30404F"/>
<path d="M5.11606 10.5158L7.33564 8.29809L9.55343 10.515C9.67783 10.6402 9.84398 10.7087 10.0208 10.7087C10.1976 10.7087 10.3647 10.6402 10.4899 10.5158C10.6144 10.3915 10.6837 10.2245 10.6837 10.0476C10.6837 9.87614 10.6187 9.71443 10.5015 9.59093L10.9022 9.1893L12.227 10.5158C12.4785 10.7646 12.9121 10.7656 13.1645 10.5158C13.2897 10.3915 13.3582 10.2253 13.3582 10.0476C13.3582 9.86993 13.2897 9.70377 13.1645 9.57849L11.3794 7.77208C11.1457 7.54195 10.6979 7.50197 10.4153 7.77919C10.386 7.81118 10.3736 7.83872 10.3789 7.83695L9.5632 8.65263L7.81456 6.88443C7.58087 6.6463 7.10462 6.63031 6.86294 6.87466C6.82295 6.91198 6.8034 6.95818 6.81229 6.94574L4.18042 9.57849C4.05514 9.70377 3.98584 9.86993 3.98584 10.0476C3.98584 10.2253 4.05514 10.3915 4.18042 10.5158C4.42922 10.7656 4.86639 10.7665 5.11606 10.5158Z" fill="#30404F"/>
</svg>
