<svg width="21" height="21" viewBox="0 0 21 21" fill="none" xmlns="http://www.w3.org/2000/svg">
<path d="M20.8715 0.128158C20.7656 0.0213979 20.6106 -0.0225113 20.4634 0.0110664L17.2477 0.752357C17.1676 0.770437 17.0953 0.810902 17.0368 0.869448L6.08099 11.8261L4.84292 10.588C4.76113 10.5054 4.65007 10.4597 4.53384 10.4597C4.41847 10.4597 4.30654 10.5054 4.22475 10.588L3.29663 11.5161C3.12616 11.6875 3.12616 11.9638 3.29663 12.1352L5.15287 13.9914L1.64014 17.5041C1.21396 17.53 0.817055 17.7073 0.512274 18.0121C0.181663 18.3436 0 18.7827 0 19.2502C0 19.7168 0.181663 20.1576 0.512274 20.4882C0.842884 20.8197 1.28284 21.0005 1.75034 21.0005C2.21784 21.0005 2.65694 20.8197 2.98755 20.4882C3.30094 20.1766 3.46969 19.7728 3.49551 19.3612L5.46282 17.3948C5.46282 17.3948 5.46282 17.3948 5.46282 17.3939L6.70002 16.1567L7.00911 15.8485L8.86535 17.7039C8.94714 17.7857 9.05907 17.8322 9.17443 17.8322C9.2898 17.8322 9.40173 17.7848 9.48352 17.7039L10.4116 16.7758C10.583 16.6053 10.583 16.3272 10.4116 16.1567L9.17443 14.9195L20.1311 3.96289C20.1888 3.90521 20.2292 3.83203 20.2482 3.75196L20.9886 0.536255C21.023 0.388169 20.9783 0.234917 20.8715 0.128158ZM2.36937 19.8683C2.20407 20.0328 1.98452 20.1249 1.75034 20.1249C1.51616 20.1249 1.29661 20.0337 1.13131 19.8683C0.966863 19.703 0.87474 19.4835 0.87474 19.2493C0.87474 19.016 0.966002 18.7973 1.13131 18.6311C1.29661 18.465 1.51616 18.3746 1.75034 18.3746C1.98452 18.3746 2.20321 18.4641 2.36937 18.6311C2.71032 18.9721 2.71032 19.5274 2.36937 19.8683ZM3.25789 18.3608C3.18471 18.236 3.09431 18.1189 2.98755 18.0121C2.88165 17.9071 2.76456 17.8158 2.63972 17.7426L2.86012 17.5231H4.09733L3.25789 18.3608ZM4.97121 16.6475H3.734L4.09647 16.285H5.33367L4.97121 16.6475ZM6.20927 15.4094H4.97121L5.77104 14.6104L6.39008 15.2295L6.20927 15.4094ZM9.48438 16.4658L9.1753 16.7749L7.31906 14.9195L4.22561 11.8252L4.5347 11.5161L5.77277 12.7542L8.24804 15.2295L9.48438 16.4658ZM19.4242 3.4334L8.55626 14.3014L7.93723 13.6823L15.5542 6.06537C15.7247 5.8949 15.7247 5.61767 15.5542 5.44633C15.3828 5.27586 15.1056 5.27586 14.9351 5.44633L7.3182 13.0633L6.70002 12.4443L17.5671 1.5763L19.9787 1.02012L19.4242 3.4334Z" fill="#434B56"/>
<path d="M1.79699 18.1499C1.56357 18.1499 1.375 18.3393 1.375 18.5727C1.375 18.8053 1.5644 18.9947 1.79699 18.9947C2.02958 18.9947 2.21897 18.8053 2.21897 18.5727C2.21897 18.3385 2.02958 18.1499 1.79699 18.1499Z" fill="#434B56"/>
</svg>
