<svg width="18" height="18" viewBox="0 0 18 18" fill="none" xmlns="http://www.w3.org/2000/svg">
<path fill-rule="evenodd" clip-rule="evenodd" d="M2.64716 2.79889C3.21947 3.37243 3.78751 3.94099 4.36195 4.51667C3.4363 5.55274 2.89314 6.77169 2.77015 8.16925C2.68271 9.16975 2.82703 10.1382 3.2088 11.0697C3.38227 11.4924 3.59484 11.8923 3.86571 12.273C3.89628 12.2467 3.91832 12.2282 3.93823 12.2089C4.88378 11.264 5.82719 10.319 6.77275 9.37397C6.81327 9.33341 6.83602 9.28645 6.8545 9.23521C7.05215 8.68942 7.24979 8.14363 7.44814 7.59856C7.63441 7.08621 7.82067 6.57387 8.00836 6.06081C8.21809 5.48372 8.42853 4.90519 8.63825 4.3281C8.65247 4.28825 8.66669 4.24911 8.69726 4.21211C8.6994 4.22918 8.70366 4.24769 8.70508 4.26619C8.70579 4.28896 8.70508 4.31173 8.70508 4.3345C8.70508 6.35541 8.70508 8.37704 8.7065 10.3979C8.7065 10.4826 8.68233 10.5424 8.6219 10.6022C7.57824 11.6447 6.536 12.6886 5.49376 13.7296C5.46888 13.7545 5.4376 13.7716 5.3985 13.7993C5.44186 13.8371 5.46319 13.8577 5.48737 13.8741C5.91748 14.1644 6.37675 14.3978 6.86446 14.5743C7.40193 14.7685 7.95646 14.8866 8.52664 14.9244C9.3236 14.9784 10.1042 14.8909 10.8671 14.6476C11.4251 14.4697 11.9477 14.2156 12.4361 13.8904C12.4667 13.8712 12.4944 13.847 12.5335 13.8178C12.5043 13.7858 12.4823 13.7581 12.456 13.7332C11.7188 12.9952 10.9844 12.2588 10.2471 11.5223C9.93501 11.2099 9.62362 10.8953 9.31009 10.5858C9.26104 10.5388 9.24042 10.4883 9.24042 10.4179C9.24184 8.37775 9.24184 6.3362 9.24184 4.29536C9.24184 4.2669 9.24184 4.23915 9.24184 4.2114C9.24753 4.20997 9.25322 4.20855 9.25891 4.20641C9.26886 4.22492 9.28094 4.24128 9.28805 4.26049C9.51129 4.87673 9.73452 5.49297 9.95847 6.1092C10.139 6.60803 10.3225 7.10685 10.5031 7.60567C10.7014 8.14862 10.899 8.69085 11.0946 9.23592C11.1152 9.2957 11.1472 9.34551 11.1934 9.39318C12.1304 10.3282 13.0681 11.2668 14.0023 12.2032C14.0243 12.2253 14.0478 12.2481 14.0706 12.2673C14.3023 12.073 14.8163 10.98 14.9841 10.3545C15.1704 9.66359 15.2329 8.96338 15.1853 8.25251C15.1355 7.53807 14.9628 6.85068 14.6741 6.19459C14.3869 5.54207 13.9952 4.95714 13.5118 4.43768C13.548 4.37293 15.1263 2.78466 15.2265 2.7135C15.5251 3.01521 15.7917 3.3461 16.0391 3.69407C16.7416 4.68531 17.2165 5.77547 17.4596 6.96667C17.7042 8.17352 17.6985 9.38109 17.4319 10.583C16.5987 14.3423 13.4399 16.9958 9.81699 17.3359C5.80373 17.7145 2.28245 15.3641 0.918862 11.8994C-0.421972 8.49231 0.585431 4.92797 2.64716 2.79889Z" fill="#BABDCE"/>
<path fill-rule="evenodd" clip-rule="evenodd" d="M3.07324 2.37494C3.75575 1.73665 4.51858 1.2243 5.36389 0.835777C6.61017 0.262949 7.92186 0.00606515 9.29042 0.0544532C10.5801 0.0999948 11.8022 0.421633 12.9503 1.01652C13.6208 1.36449 14.2364 1.79144 14.7931 2.30307C14.7568 2.36925 13.1849 3.9504 13.0904 4.01587C11.8903 2.99687 10.5061 2.46105 8.92215 2.47385C7.33746 2.48595 5.96108 3.04455 4.77808 4.08347C4.69703 4.03294 3.12585 2.46176 3.07324 2.37494Z" fill="#BABDCE"/>
</svg>
