<svg width="22" height="21" viewBox="0 0 22 21" fill="none" xmlns="http://www.w3.org/2000/svg">
<path d="M1.75072 1.60849C1.84239 1.60309 1.98838 1.60309 2.08683 1.60309H19.8453C19.9517 1.60309 20.0988 1.60309 20.1746 1.60201C20.1803 1.68735 20.1803 1.82562 20.1803 1.91852V19.1366C20.1803 19.236 20.1803 19.3742 20.1814 19.4466C20.092 19.452 19.9494 19.452 19.8453 19.452H2.08683C1.98045 19.452 1.83447 19.452 1.75751 19.4531C1.75185 19.3656 1.75185 19.2284 1.75185 19.1366V1.91852C1.75185 1.81806 1.75185 1.67979 1.75072 1.60849ZM20.8536 0H1.07737C0.170885 0 0 0.163117 0 1.02515V19.91C0 20.7721 0.170885 20.9363 1.07737 20.9363H20.8536C21.7612 20.9363 21.9321 20.7721 21.9321 19.91V1.02515C21.9321 0.163117 21.7612 0 20.8536 0Z" fill="#30404F"/>
<path d="M5.18848 17.5617C5.48951 17.2873 5.79167 17.0129 5.99198 16.7385C6.39372 16.3712 6.59517 15.8235 6.59517 15.2737V5.56875C6.59517 4.65486 6.19342 3.92137 5.38992 3.37261C5.2892 3.37261 5.2892 3.28079 5.2892 3.18896H10.916C10.882 3.26458 10.8729 3.45363 10.8299 3.526C10.6161 3.8868 10.3082 3.98511 10.1113 4.47122C9.94044 4.78557 9.90988 5.11181 9.90988 5.38619V14.2658C9.90988 14.6331 10.0106 14.8157 10.4123 14.9075C13.0254 15.6399 15.3363 15.1819 17.4458 13.5334C17.5454 13.4427 17.6461 13.4427 17.7468 13.2601C17.5454 13.7171 17.4458 14.174 17.3451 14.5413C17.044 15.4573 16.7419 16.3712 16.4409 17.3791C16.3401 17.6535 16.2405 17.7453 15.9384 17.7453H5.59023C5.48951 17.6535 5.38992 17.5617 5.18848 17.5617Z" fill="#30404F"/>
</svg>
