<svg width="32" height="26" viewBox="0 0 32 26" fill="none" xmlns="http://www.w3.org/2000/svg">
<path d="M31.6017 12.2918V0.384575C31.6017 0.200915 31.3722 0.12439 31.2497 0.262135L18.2405 16.516C18.1334 16.6384 18.2252 16.8374 18.3936 16.8374H27.7908C28.051 16.8374 28.2806 16.7149 28.4336 16.516L31.4028 12.8122C31.5252 12.6744 31.6017 12.4908 31.6017 12.2918ZM1.17553 12.8275L10.9401 25.0408C11.0931 25.2398 11.338 25.3469 11.5982 25.3469H20.9954C21.1638 25.3469 21.2556 25.1632 21.1485 25.0408L1.32858 0.277441C1.20614 0.139696 0.976562 0.216221 0.976562 0.39988V12.3071C0.991867 12.4908 1.05309 12.6744 1.17553 12.8275Z" fill="#FF4655"/>
</svg>
