<svg width="8" height="11" viewBox="0 0 8 11" fill="none" xmlns="http://www.w3.org/2000/svg">
<path d="M7.33334 4.12502C7.33334 3.27412 7.02605 2.45807 6.47907 1.85639C5.93209 1.25471 5.19022 0.916687 4.41667 0.916687H3.58334C2.80979 0.916687 2.06792 1.25471 1.52094 1.85639C0.973963 2.45807 0.666672 3.27412 0.666672 4.12502V4.58335C0.666672 4.84833 0.913201 4.90181 0.913201 5.04169C0.913201 5.18156 0.666672 5.36015 0.666672 5.50002V5.95835C0.666672 6.20147 0.754469 6.43463 0.910749 6.60653C1.06703 6.77844 1.27899 6.87502 1.50001 6.87502H2.75001V7.79169C2.75001 7.91324 2.7939 8.02982 2.87204 8.11578C2.95018 8.20173 3.05616 8.25002 3.16667 8.25002H3.37501V7.79169H3.79167V8.25002H4.20834V7.79169H4.62501V8.25002H4.83334C4.94385 8.25002 5.04983 8.20173 5.12797 8.11578C5.20611 8.02982 5.25001 7.91324 5.25001 7.79169V6.87502H6.50001C6.72102 6.87502 6.93298 6.77844 7.08926 6.60653C7.24554 6.43463 7.33334 6.20147 7.33334 5.95835V5.50002C7.33334 5.29234 7.08681 5.18156 7.08681 5.04169C7.08681 4.90181 7.33334 4.81968 7.33334 4.58335V4.12502ZM3.28564 5.07859C3.08254 6.05036 2.75814 5.88462 2.33036 5.86886C1.87644 5.85175 1.57281 5.8043 1.47768 5.5823C1.2446 5.27964 1.28086 3.89032 2.40221 4.4084C2.90992 4.64297 3.34868 4.82889 3.28564 5.07859ZM4.27861 7.02656C4.06018 7.02656 4.11244 6.74776 4.00001 6.74992C3.8819 6.75238 3.91789 7.02656 3.70587 7.02656C3.6713 7.02715 3.63709 7.01889 3.60592 7.00242C3.57476 6.98596 3.54751 6.96175 3.52632 6.93171C3.50513 6.90166 3.49058 6.86661 3.48383 6.82931C3.47708 6.79202 3.4783 6.75351 3.48741 6.71683C3.56543 6.47617 3.67099 6.24742 3.80154 6.0361C3.82145 6.00008 3.84945 5.9703 3.88285 5.94964C3.91626 5.92898 3.95393 5.91812 3.99225 5.91812C4.03057 5.91812 4.06825 5.92898 4.10165 5.94964C4.13505 5.9703 4.16306 6.00008 4.18296 6.0361C4.31368 6.24735 4.41932 6.47611 4.49732 6.71683C4.50638 6.75353 4.50756 6.79205 4.50077 6.82934C4.49398 6.86663 4.47941 6.90167 4.4582 6.93171C4.43699 6.96174 4.40973 6.98594 4.37856 7.0024C4.34739 7.01886 4.31318 7.02713 4.27861 7.02656ZM6.50998 5.5823C6.41484 5.8043 6.11123 5.85175 5.65729 5.86886C5.22951 5.88461 4.90513 6.05036 4.70204 5.07859C4.63899 4.82889 5.07773 4.64297 5.58547 4.4084C6.70681 3.89032 6.74305 5.27964 6.50998 5.58229V5.5823Z" fill="#538CDF"/>
<path d="M5.875 8.05906C5.875 8.30217 5.7872 8.53533 5.63092 8.70724C5.47464 8.87915 5.26268 8.97572 5.04167 8.97572H4.625V9.39587H4.20833V8.97572H3.79167V9.39587H3.375V8.97572H2.95833C2.73732 8.97572 2.52536 8.87915 2.36908 8.70724C2.2128 8.53533 2.125 8.30217 2.125 8.05906V7.33337H1.5V8.58263C1.5 8.72794 1.53141 8.87116 1.59163 9.00049C1.65185 9.12982 1.73916 9.24155 1.84635 9.32647L3.16667 10.3723L3.41667 10.2348C3.59779 10.1352 3.7975 10.0834 4 10.0834C4.2025 10.0834 4.40221 10.1352 4.58333 10.2348L4.83333 10.3723L6.15365 9.32647C6.26084 9.24155 6.34815 9.12982 6.40837 9.00049C6.46859 8.87116 6.5 8.72794 6.5 8.58263V7.33337H5.875V8.05906Z" fill="#538CDF"/>
</svg>
