<svg width="10" height="11" viewBox="0 0 10 11" fill="none" xmlns="http://www.w3.org/2000/svg">
<path d="M6.65279 2.93993C6.60396 2.9255 6.57046 2.88064 6.57046 2.82973V2.10328H5.46034V1.4762C5.46034 1.08752 5.14414 0.771301 4.75546 0.771301H4.09654C3.70786 0.771301 3.39164 1.08752 3.39164 1.4762V1.99612C3.29839 2.10424 2.87676 2.48902 1.95669 1.937C1.90226 1.90434 1.83167 1.922 1.79902 1.97643C1.76636 2.03087 1.78402 2.10145 1.83846 2.13411C2.19776 2.3497 2.52739 2.45792 2.82302 2.4579C2.94429 2.4579 3.05989 2.43967 3.1694 2.40317C3.46204 2.30562 3.59663 2.10769 3.6022 2.09931C3.61478 2.08042 3.62151 2.05824 3.62151 2.03555V1.4762C3.62151 1.21427 3.83461 1.00117 4.09654 1.00117H4.75546C5.0174 1.00117 5.23052 1.21427 5.23052 1.4762V2.10328H4.35174V2.72511H5.5753C5.63878 2.72511 5.69023 2.77656 5.69023 2.84004C5.69023 2.90353 5.63878 2.95498 5.5753 2.95498H4.26389C2.53203 3.49159 1.36893 5.07021 1.36893 6.88553C1.36893 9.15425 3.21466 11 5.48337 11C7.75209 11 9.59784 9.15425 9.59784 6.88553C9.59782 5.07556 8.38679 3.45309 6.65279 2.93993ZM8.2098 8.05603C7.9385 8.70724 7.30735 9.58606 5.84149 10.0747C5.82946 10.0787 5.81722 10.0806 5.80511 10.0806C5.75699 10.0806 5.71218 10.0502 5.69612 10.002C5.67607 9.94174 5.70858 9.87668 5.76881 9.85658C6.87982 9.48625 7.62971 8.85073 7.99764 7.96761C8.27062 7.31241 8.21977 6.7645 8.21923 6.75903C8.21291 6.69586 8.25896 6.63955 8.32212 6.63322C8.38534 6.6269 8.4416 6.673 8.44796 6.73616C8.45043 6.76083 8.50491 7.34783 8.2098 8.05603Z" fill="#FF7A00"/>
<path d="M1.38646 1.21886L1.84617 1.4487C1.86267 1.45694 1.88021 1.46086 1.89747 1.46086C1.93962 1.46086 1.98022 1.43758 2.00037 1.3973C2.02876 1.34053 2.00575 1.27149 1.94897 1.24313L1.48926 1.01326C1.43248 0.98487 1.36345 1.00788 1.33508 1.06466C1.30667 1.12143 1.32968 1.19047 1.38646 1.21886Z" fill="#FF7A00"/>
<path d="M1.32293 2.03553C1.32293 1.97207 1.27148 1.92059 1.20799 1.92059H0.748281C0.68482 1.92059 0.633347 1.97204 0.633347 2.03553C0.633347 2.09901 0.684796 2.15046 0.748281 2.15046H1.20799C1.27148 2.15046 1.32293 2.09901 1.32293 2.03553Z" fill="#FF7A00"/>
<path d="M1.77051 2.67373C1.74212 2.61693 1.67304 2.59394 1.61633 2.62233L1.15662 2.85218C1.09985 2.88056 1.07683 2.9496 1.10522 3.00638C1.12535 3.04665 1.16592 3.06993 1.2081 3.06993C1.22536 3.06993 1.24292 3.06604 1.2594 3.05777L1.71911 2.82791C1.77589 2.79957 1.7989 2.73051 1.77051 2.67373Z" fill="#FF7A00"/>
</svg>
