<svg width="11" height="11" viewBox="0 0 11 11" fill="none" xmlns="http://www.w3.org/2000/svg">
<path fill-rule="evenodd" clip-rule="evenodd" d="M1.6777 0.880485C1.42045 1.11147 1.40064 1.16332 1.51735 1.30024C1.83565 1.67381 2.08273 2.26849 2.1608 2.84903L2.18423 3.02337L2.12382 3.1461C1.95261 3.4939 2.01738 3.84937 2.31293 4.18421C2.68044 4.60059 2.85331 5.19575 3.03988 6.68736C3.12416 7.36114 3.20258 7.72474 3.33245 8.04406C3.47753 8.40081 3.53604 8.52227 3.73249 8.87525C3.85077 9.0877 4.07593 9.42933 4.25511 9.66824C4.57811 10.0988 4.78003 10.3328 5.15082 10.7061C5.5199 11.0778 5.51677 11.0772 5.72745 10.8147C5.92786 10.5651 5.9285 10.516 5.73356 10.3646C4.79334 9.63409 4.06884 7.73173 3.74731 5.14918C3.63622 4.25704 3.62981 4.14317 3.68597 4.06427C3.9713 3.66359 3.88159 3.08936 3.4883 2.79884C3.39604 2.7307 3.38758 2.71774 3.37545 2.62617C3.31151 2.14444 2.76267 1.39401 2.12098 0.910961C1.88251 0.731486 1.84651 0.728991 1.6777 0.880485ZM0.30706 2.1734C0.280841 2.1869 0.201743 2.28375 0.131303 2.38858C-0.0395624 2.6427 -0.0411761 2.68076 0.111933 2.84355C0.172883 2.90832 0.398143 3.14914 0.612544 3.37875L1.00236 3.79615L1.4046 3.99974C1.89998 4.25044 1.96132 4.26326 2.01787 4.12791C2.0432 4.0672 2.04125 4.05556 1.98475 3.93273C1.93637 3.82751 1.92302 3.76998 1.91607 3.63713C1.90722 3.46636 1.91587 3.42194 2.0006 3.20446C2.07784 3.0063 2.03352 2.95831 1.72182 2.9026C1.21647 2.81225 0.79603 2.58464 0.517059 2.25049C0.442119 2.16073 0.377598 2.13705 0.30706 2.1734ZM3.97702 2.94476C3.92972 3.00493 3.9281 3.03531 3.96665 3.14449C4.04697 3.37219 4.0207 3.62465 3.88775 3.90269C3.76898 4.15114 3.80704 4.25064 4.02119 4.25147C4.60438 4.25372 6.08048 4.54105 6.76541 4.78564C8.07798 5.2544 8.92762 5.74411 9.67081 6.46039C9.91314 6.69397 9.92703 6.69343 10.1986 6.4396C10.4176 6.23489 10.4183 6.22207 10.2257 5.95415C9.9802 5.61267 9.53291 5.13294 9.27302 4.93234C9.2443 4.91018 9.20791 4.87961 9.19216 4.86439C8.70627 4.39474 7.85365 4.01364 6.83257 3.80961C4.93202 3.42987 4.61592 3.33164 4.28226 3.01682C4.12984 2.87305 4.04854 2.85387 3.97702 2.94476ZM3.1293 3.17164C3.45361 3.26795 3.49167 3.71935 3.1879 3.8664C2.78228 4.06275 2.42079 3.48534 2.78938 3.2299C2.91666 3.1417 2.98759 3.12952 3.1293 3.17164ZM2.93495 3.4669C2.86045 3.54922 2.9552 3.66344 3.06375 3.62216C3.12088 3.60044 3.13845 3.49801 3.09286 3.45242C3.05773 3.4173 2.97277 3.42512 2.93495 3.4669Z" fill="#538CDF"/>
</svg>
