<svg version="1.0" xmlns="http://www.w3.org/2000/svg" width="381px" height="406px" viewBox="0 0 381 406">
 <g fill="#e8e9e9">
  <path d="M126.67 394.37 c-0.12 -10.52 -0.15 -11.33 -0.88 -12.29 -0.42 -0.58 -1 -1.08 -1.23 -1.08 -0.27 0 -0.50 -0.15 -0.50 -0.38 0 -0.19 -0.42 -0.38 -0.96 -0.38 -0.96 0 -0.96 0 -0.96 -7.80 0 -7.84 0 -7.84 23.35 -8.07 12.83 -0.15 42.79 -0.27 66.64 -0.27 43.28 0 43.28 0 43.28 8.07 0 7.37 -0.08 8.10 -0.65 8.30 -4.30 1.38 -4.15 0.88 -4.03 14.06 0.08 11.06 0.08 11.06 -61.91 11.06 -62.03 0 -62.03 0 -62.14 -11.21z"/>
 </g>
 <g fill="#e6b9a3">
  <path d="M115.22 338.48 c0 -0.19 -2.73 -3.07 -6.07 -6.45 -6.07 -6.18 -10.14 -11.06 -12.14 -14.56 -2.46 -4.22 -4.76 -10.95 -5.65 -16.28 -0.19 -1.19 -0.35 -13.52 -0.35 -27.38 0 -19.36 -0.12 -25.31 -0.50 -25.73 -0.23 -0.35 -1.19 -1.04 -2.11 -1.65 -1.65 -1.04 -1.65 -1.04 -1.57 -4.07 0.12 -3.07 0.12 -3.07 1.34 -3.07 0.84 0 5.22 1.96 13.44 6.07 14.59 7.22 14.40 7.03 14.36 12.33 -0.04 1.81 0.08 20.82 0.19 42.21 0.23 35.33 0.19 38.87 -0.35 38.87 -0.35 0 -0.61 -0.12 -0.61 -0.27z"/>
  <path d="M261.13 338.10 c0 -0.38 0 -19.24 0.04 -41.94 0.04 -41.21 0.04 -41.21 1 -42.71 0.92 -1.46 3.50 -3.42 4.49 -3.42 0.27 0 0.69 -0.19 0.88 -0.38 0.88 -0.88 20.74 -10.37 21.70 -10.37 1.19 0 1.50 0.73 1.50 3.46 0 2.07 -0.65 3.11 -2.69 4.26 -1.54 0.88 -1.54 0.88 -1.57 3.96 0 1.73 -0.08 13.33 -0.12 25.77 -0.08 24.89 -0.08 24.77 -2.53 32.45 -1.46 4.38 -3.61 8.68 -6.34 12.37 -1.96 2.65 -15.44 17.09 -16.02 17.17 -0.19 0.04 -0.31 -0.27 -0.35 -0.61z"/>
 <path d="M178.98 180.13 c-2.77 -0.35 -7.45 -1.50 -10.91 -2.69 -1.27 -0.42 -3.07 -0.77 -4.03 -0.77 -1.65 -0.04 -2.23 -0.38 -9.26 -5.53 -4.57 -3.34 -7.49 -5.72 -7.49 -6.11 0 -0.35 0.19 -0.65 0.38 -0.69 0.23 0 0.73 -0.31 1.15 -0.69 0.42 -0.38 2.61 -1.77 4.88 -3.11 6.87 -4.03 6.38 -3.15 6.68 -11.71 0.27 -7.30 0.27 -7.30 -1.11 -10.06 -3.26 -6.41 -6.26 -14.86 -7.49 -20.82 -0.69 -3.53 -0.73 -3.57 -2.23 -4.22 -3.23 -1.46 -6.41 -6.68 -7.68 -12.67 -1.08 -5.11 -0.42 -13.37 1.31 -16.28 1.50 -2.57 4.11 -2.84 5.34 -0.54 0.69 1.23 0.69 1.23 0.81 -0.04 0.12 -1.19 0.15 -1.27 0.65 -0.58 0.35 0.42 0.58 1.84 0.61 3.96 0.08 3.03 0.12 2.92 0.50 -2.23 0.42 -5.45 0.42 -5.53 1.57 -6.45 2.69 -2.15 2.50 -1.27 2.50 -10.45 0 -8.22 0 -8.41 0.88 -9.18 2.15 -2 9.76 -4.92 16.32 -6.26 3.46 -0.69 7.26 -1.11 15.63 -1.77 3.65 -0.31 10.95 0.31 16.40 1.38 7.84 1.50 17.28 5.26 18.01 7.18 0.19 0.50 0.35 4.80 0.35 9.52 0 8.56 0 8.56 1.57 9.91 1.61 1.31 1.61 1.31 1.88 4.72 0.15 1.88 0.31 2.73 0.35 1.88 0.04 -0.84 0.31 -1.88 0.61 -2.27 0.54 -0.73 0.58 -0.69 0.58 0.50 0 1.23 0 1.23 1.31 -0.12 1.57 -1.69 2.65 -1.77 4.03 -0.27 1.69 1.81 2.42 4.61 2.61 10.02 0.15 3.96 0.04 5.38 -0.58 8.07 -1.46 6.11 -4.19 10.68 -7.34 12.29 -1.34 0.69 -1.46 0.88 -1.92 3.38 -0.77 4.22 -3.99 13.44 -6.76 19.24 -2.53 5.26 -2.53 5.26 -2.23 12.52 0.31 7.30 0.31 7.30 5.84 10.64 3.07 1.84 5.84 3.57 6.15 3.84 0.35 0.31 0.77 0.50 1 0.50 0.19 0 0.42 0.27 0.50 0.61 0.15 0.84 -12.94 10.33 -14.25 10.33 -0.50 0 -2.19 0.54 -3.76 1.15 -3.53 1.50 -10.33 3.30 -14.29 3.80 -3.38 0.46 -15.29 0.46 -19.09 0.04z"/>
 </g>
 <g fill="#afb8c4">
  <path d="M122.90 392.52 c0 -13.06 0 -13.06 1.15 -13.06 0.73 0 1.61 0.42 2.38 1.11 1.27 1.11 1.27 1.11 1.38 13.06 0.12 11.94 0.12 11.94 -2.38 11.94 -2.53 0 -2.53 0 -2.53 -13.06z"/>
  <path d="M249.65 393.83 c0 -7.30 0.15 -12.02 0.38 -12.48 0.46 -0.84 2.34 -1.88 3.46 -1.88 0.77 0 0.77 0.15 0.77 13.06 0 13.06 0 13.06 -2.30 13.06 -2.30 0 -2.30 0 -2.30 -11.75z"/>
  <path d="M186.81 364.91 c-55.81 -0.19 -69.67 -0.35 -70.13 -0.73 -0.35 -0.27 -0.81 -0.96 -1.04 -1.54 -0.27 -0.69 -0.46 -16.63 -0.61 -50.77 -0.23 -55.77 -0.27 -56.69 -0.88 -57.30 -0.31 -0.31 -0.46 -1.92 -0.46 -4.49 0 -5.03 -0.42 -6.57 -2.15 -8.07 -0.73 -0.69 -6.61 -3.80 -13.06 -6.95 -11.68 -5.72 -11.68 -5.72 -11.68 -12.75 0.04 -10.72 0.73 -14.56 3.99 -21.28 2.46 -4.95 5.76 -8.83 10.29 -11.94 2.88 -1.96 12.18 -7.03 30.46 -16.52 5.72 -3 11.68 -6.11 13.29 -6.99 2.88 -1.57 2.88 -1.57 10.83 4.22 6.41 4.65 8.07 5.72 8.53 5.34 0.73 -0.61 1 -0.42 9.37 5.72 12.75 9.33 14.98 10.87 15.48 10.56 0.77 -0.42 10.79 -7.60 14.71 -10.52 6.57 -4.88 9.76 -6.91 10.98 -6.91 0.84 0 2.88 -1.27 8.10 -4.99 6.95 -4.99 6.95 -4.99 8.91 -3.92 1.08 0.61 7.68 4.11 14.63 7.76 29.96 15.63 30.07 15.71 34.45 20.28 3.38 3.53 5.61 7.11 7.22 11.60 1.73 4.69 2.34 9.37 2.27 17.67 -0.04 7.11 -0.04 7.11 -11.52 12.79 -11.21 5.57 -13.33 6.80 -14.25 8.49 -0.27 0.42 -0.58 3 -0.69 5.65 -0.15 3.61 -0.38 5.11 -0.88 5.84 -0.58 0.92 -0.65 4.95 -0.65 53.16 -0.04 31.15 -0.19 52.69 -0.38 53.54 -0.54 1.96 -1.92 3.11 -3.92 3.19 -0.92 0.04 -32.95 0 -71.21 -0.12z m45.09 -119.79 c0.58 -0.38 1.65 -0.96 2.38 -1.23 0.73 -0.27 1.61 -0.73 1.92 -0.96 0.31 -0.27 1.31 -0.84 2.15 -1.31 2.96 -1.46 2.84 -0.96 2.84 -11.21 0 -8.76 -0.04 -9.22 -0.81 -9.99 -0.77 -0.77 -1.11 -0.77 -10.52 -0.65 -8.76 0.12 -9.83 0.19 -10.45 0.81 -0.61 0.61 -0.69 1.57 -0.69 9.91 0 9.26 0 9.26 0.96 10.02 1.19 1 9.87 5.30 10.64 5.30 0.31 0 1.04 -0.31 1.57 -0.69z"/>
 </g>
 <g fill="#ffffff">
  <path d="M224.07 244.69 c-7.18 -3.53 -6.49 -2 -6.49 -14.21 0 -9.45 0.08 -10.45 0.69 -11.06 0.61 -0.61 1.73 -0.69 11.60 -0.81 10.56 -0.12 10.91 -0.12 11.68 0.65 0.77 0.77 0.81 1.23 0.81 11.14 0 11.56 0.15 10.91 -2.84 12.37 -0.84 0.46 -1.84 1.04 -2.15 1.31 -0.31 0.23 -1.19 0.69 -1.92 0.96 -0.73 0.27 -1.81 0.84 -2.38 1.23 -1.88 1.31 -3.96 0.92 -8.99 -1.57z"/>
  <path d="M114.76 262.21 c-0.19 -0.38 -0.31 -1.88 -0.27 -3.26 0.04 -2.57 0.04 -2.57 0.38 -0.84 0.42 2.04 0.31 5.18 -0.12 4.11z"/>
  <path d="M262.55 250.22 c0.27 -6.72 0.54 -7.84 2.27 -9.37 1.57 -1.38 24.62 -12.87 25.12 -12.52 0.23 0.12 0.38 2.65 0.38 6.07 0.04 5.88 0.04 5.88 -1.38 6.41 -1.11 0.38 -17.40 8.33 -20.47 9.99 -0.31 0.15 -1.23 0.61 -2.04 1 -1.42 0.69 -2.53 1.77 -3.61 3.46 -0.38 0.58 -0.42 -0.46 -0.27 -5.03z"/>
  <path d="M113.65 253.91 c-0.81 -1.15 -2.77 -2.27 -12.48 -7.11 -6.30 -3.15 -12.10 -5.95 -12.83 -6.22 -1.34 -0.46 -1.34 -0.46 -1.23 -2.73 0.08 -1.38 0.35 -2.38 0.73 -2.69 0.46 -0.38 0.42 -0.46 -0.23 -0.69 -0.73 -0.23 -0.81 -0.54 -0.81 -3.30 0 -2.34 0.12 -3.03 0.54 -3.03 0.31 0 5.99 2.69 12.64 5.95 13.21 6.49 14.21 7.18 14.67 10.25 0.12 0.92 0.19 3.73 0.12 6.30 -0.12 4.65 -0.12 4.65 -1.11 3.26z"/>
  <path d="M182.63 189.42 c-16.32 -11.75 -19.01 -13.83 -18.47 -14.25 0.35 -0.31 1.38 -0.12 3.92 0.77 7.18 2.42 10.56 3.07 18.01 3.30 4.38 0.15 8.18 0.04 10.37 -0.23 4.30 -0.58 11.02 -2.30 14.75 -3.88 1.57 -0.61 3.26 -1.15 3.80 -1.15 0.77 0 0.35 0.46 -2.30 2.42 -13.33 9.72 -23.74 17.17 -24.04 17.17 -0.15 0 -2.88 -1.88 -6.03 -4.15z"/>
</g>
<g fill="#1d1c1c">
  <path d="M226.91 101.01 c-0.84 -1.23 -1 -2.38 -1.61 -11.68 -0.50 -7.64 -0.50 -7.64 -2.11 -8.95 -1.57 -1.34 -1.57 -1.34 -1.57 -9.91 0 -4.72 -0.15 -9.03 -0.35 -9.52 -0.73 -1.88 -10.18 -5.68 -17.97 -7.18 -5.07 -0.96 -12.48 -1.65 -14.90 -1.38 -1.04 0.12 -3.99 0.42 -6.49 0.61 -7.99 0.69 -16.09 2.73 -21.55 5.45 -4.26 2.15 -4.03 1.50 -4.03 11.14 0 9.18 0.19 8.30 -2.50 10.45 -1.15 0.92 -1.15 0.92 -1.77 9.72 -0.46 6.49 -0.81 9.10 -1.27 10.02 -0.35 0.65 -0.81 1.23 -1 1.23 -0.23 0 -0.38 -8.56 -0.38 -23.70 0 -23.08 0.04 -23.74 0.77 -25.31 1.08 -2.19 3.57 -4.95 6.34 -6.99 2.30 -1.69 2.30 -1.69 2.50 -12.67 0.19 -11.02 0.19 -11.02 3.46 -11.52 2.15 -0.35 7.34 -0.54 15.17 -0.58 11.21 -0.08 12.14 -0.04 15.90 0.81 2.23 0.50 5.11 1.31 6.41 1.77 6.99 2.53 14.33 9.45 19.17 18.09 0.73 1.27 2.42 3.50 3.80 4.99 1.38 1.46 3 3.53 3.57 4.61 1.08 1.92 1.08 1.92 1.19 20.93 0.04 10.45 0.04 21.62 0 24.77 -0.12 5.57 -0.15 5.72 -0.77 4.80z"/>
</g>
</svg>