<svg width="21" height="21" viewBox="0 0 21 21" fill="none" xmlns="http://www.w3.org/2000/svg">
<path d="M11.8114 6.164C11.8044 6.15 11.7974 6.1325 11.7963 6.1325C11.7799 6.13833 11.7601 6.14533 11.7426 6.1535C11.7438 6.157 11.7438 6.1605 11.7461 6.164H11.8114ZM11.7636 6.34716C11.7636 6.353 11.7613 6.35883 11.7613 6.36233C11.7788 6.36816 11.7951 6.3775 11.8103 6.3775C11.8931 6.37866 11.9783 6.3775 12.0623 6.3775C12.1031 6.3775 12.1229 6.34833 12.1276 6.318C12.1346 6.27366 12.1288 6.227 12.1241 6.1815C12.1206 6.16633 12.1031 6.14533 12.0868 6.14066C12.0249 6.12783 11.9619 6.129 11.9059 6.164C11.8966 6.171 11.8873 6.1815 11.8873 6.1885C11.8919 6.24566 11.9036 6.304 11.8534 6.34716H11.7636ZM12.0821 6.41483C11.9596 6.41483 11.8429 6.42183 11.7286 6.41133C11.6726 6.4055 11.6539 6.43116 11.6353 6.472C11.6271 6.48483 11.6224 6.49883 11.6166 6.51166C11.6201 6.5105 11.6248 6.50933 11.6271 6.507C11.6843 6.60966 11.7403 6.71 11.7951 6.808C11.8873 6.6785 11.9818 6.55133 12.0821 6.41483ZM15.8341 5.74866C15.8283 5.79883 15.7991 5.80816 15.7548 5.80583C15.6626 5.80233 15.5739 5.80583 15.4818 5.80583C15.4666 5.80583 15.4526 5.82216 15.4351 5.8245C15.4188 5.828 15.3954 5.83266 15.3826 5.828C15.3604 5.821 15.3394 5.8035 15.3196 5.79183C15.3219 5.78716 15.3231 5.78366 15.3231 5.78016H15.0221C14.8856 5.78016 14.7503 5.779 14.6126 5.78133C14.5986 5.78133 14.5834 5.79066 14.5683 5.7965C14.5566 5.79883 14.5461 5.80466 14.5356 5.80583C14.4691 5.80583 14.4026 5.807 14.3361 5.80466C14.3069 5.80233 14.2778 5.79066 14.2486 5.78366C14.2416 5.78366 14.2334 5.786 14.2218 5.786V5.93066C14.2031 5.93066 14.1879 5.933 14.1693 5.933C13.8321 5.933 13.4938 5.93416 13.1543 5.933C13.1298 5.933 13.1146 5.94466 13.0959 5.95983C13.0621 5.98666 13.0213 5.9995 12.9758 6.02166C12.9909 6.09166 12.9384 6.13483 12.8836 6.17916C12.8568 6.20133 12.8323 6.23283 12.8078 6.262C12.7809 6.3005 12.7483 6.33316 12.6923 6.3285C12.6713 6.577 12.7238 6.81266 12.8008 7.04833C12.7401 7.06583 12.6841 7.08566 12.6293 7.10083C12.5884 7.1125 12.5674 7.13 12.5593 7.17316C12.5383 7.29683 12.5091 7.41583 12.4893 7.53716C12.4601 7.7145 12.3749 7.84516 12.2069 7.91166C12.1941 7.9175 12.1836 7.9315 12.1743 7.94316C12.1136 8.02833 12.0448 8.10067 11.9444 8.13333C11.8849 8.15433 11.8254 8.14967 11.7718 8.11933C11.7356 8.0995 11.7006 8.09483 11.6633 8.09716C11.5524 8.103 11.4498 8.06566 11.3494 8.02483C11.1243 7.92916 10.9166 7.795 10.7101 7.669C10.6868 7.65616 10.6669 7.64566 10.6541 7.63633C10.6448 7.68883 10.6401 7.7425 10.6284 7.7915C10.6168 7.83816 10.5958 7.88483 10.5794 7.93266C10.6203 7.949 10.6623 7.963 10.7031 7.984C10.8128 8.04583 10.8688 8.14266 10.8653 8.27683C10.8524 8.61517 10.8373 8.95233 10.8268 9.29067C10.8233 9.38167 10.7824 9.4575 10.7451 9.53333C10.7171 9.59633 10.6786 9.65583 10.6413 9.71183C10.6039 9.76667 10.5876 9.7725 10.5258 9.7515C10.4616 9.7305 10.3974 9.70483 10.3344 9.68267C10.3134 9.72817 10.2924 9.769 10.2738 9.811C10.2703 9.82267 10.2691 9.83433 10.2714 9.846C10.2936 9.95683 10.3169 10.0712 10.3414 10.1808C10.3473 10.1948 10.3554 10.2088 10.3636 10.2205C10.7066 10.5868 10.9621 11.0162 11.1523 11.4887C11.2421 11.708 11.3086 11.9332 11.3868 12.1583C11.3961 12.1793 11.3984 12.2038 11.4066 12.2213C11.4113 12.2248 11.4148 12.2295 11.4159 12.2295C11.5058 12.2178 11.5128 12.2213 11.5256 12.3147C11.5279 12.3333 11.5314 12.3497 11.5314 12.3683C11.5326 12.4325 11.5361 12.4908 11.5734 12.5492C11.6049 12.6028 11.6189 12.6717 11.6178 12.737C11.6119 12.919 11.6026 13.1068 11.5828 13.2912C11.5548 13.542 11.5104 13.7917 11.4789 14.0448C11.4743 14.088 11.4953 14.1347 11.5011 14.1813C11.5303 14.3167 11.5466 14.452 11.5233 14.5908C11.5128 14.6492 11.4941 14.704 11.4556 14.7495C11.4463 14.7623 11.4404 14.7763 11.4393 14.7915C11.4241 15.0295 11.4043 15.2698 11.4346 15.509C11.4393 15.5323 11.4474 15.5603 11.4614 15.5802C11.5909 15.7388 11.7228 15.8963 11.8523 16.0527C11.8919 16.0982 11.9433 16.1098 11.9946 16.1227C12.1159 16.1507 12.2256 16.202 12.3283 16.2743C12.3738 16.3047 12.3971 16.3478 12.3948 16.4003C12.3924 16.4517 12.3889 16.5018 12.3843 16.5485C12.3819 16.5847 12.3621 16.6057 12.3318 16.6103C12.2559 16.6255 12.1789 16.6407 12.1078 16.643C11.8254 16.6582 11.5454 16.6395 11.2678 16.58C11.1884 16.5625 11.1091 16.5287 11.0286 16.5065C11.0064 16.4972 10.9761 16.4995 10.9516 16.503C10.8419 16.51 10.7323 16.5252 10.6214 16.5275C10.5713 16.5275 10.5188 16.4972 10.4686 16.4797C10.4441 16.4703 10.4371 16.4482 10.4383 16.4248C10.4464 16.2802 10.4686 16.1367 10.5071 15.999C10.5118 15.9815 10.5153 15.964 10.5176 15.9453C10.5234 15.8497 10.5526 15.7633 10.6063 15.684C10.6156 15.6747 10.6203 15.6595 10.6203 15.6467C10.6039 15.4005 10.5923 15.1543 10.5783 14.9058C10.5771 14.8872 10.5713 14.8732 10.5491 14.865C10.5129 14.8533 10.5001 14.8218 10.5048 14.788C10.5141 14.7262 10.4966 14.6725 10.4744 14.6165C10.4161 14.466 10.3916 14.3062 10.3776 14.1463C10.3601 13.9445 10.3554 13.738 10.3391 13.5327C10.3344 13.4487 10.3659 13.3822 10.4301 13.3297C10.4406 13.3203 10.4499 13.3028 10.4511 13.29C10.4639 13.1652 10.4733 13.0403 10.4826 12.9167C10.4838 12.8968 10.4779 12.8758 10.4686 12.8607C10.4441 12.8187 10.4173 12.7767 10.3869 12.737C10.3788 12.7253 10.3624 12.7195 10.3473 12.7195C10.2668 12.7195 10.1828 12.7242 10.0988 12.7207C10.0544 12.7195 10.0148 12.6938 9.98675 12.6495C9.78142 12.3322 9.57608 12.0218 9.37075 11.7057C9.35325 11.6765 9.33342 11.6613 9.29725 11.6648C9.14558 11.6753 9.03708 11.6065 8.97292 11.4607C8.95892 11.4257 8.94258 11.3907 8.92742 11.3545C8.91808 11.3358 8.90875 11.309 8.89708 11.2798C8.88658 11.3207 8.88075 11.3533 8.87258 11.3872C8.83992 11.5283 8.76642 11.6403 8.65325 11.7302C8.63808 11.7395 8.62525 11.7593 8.61942 11.7768C8.53425 12.0078 8.44792 12.2353 8.36858 12.4663C8.34525 12.5375 8.33592 12.6122 8.32892 12.688C8.31725 12.8362 8.26708 12.9493 8.12125 12.9972C8.10842 13.003 8.10025 13.017 8.09325 13.031C8.07692 13.073 8.06175 13.1173 8.04542 13.1605C8.00458 13.2585 7.94042 13.3297 7.85175 13.3833C7.83425 13.3927 7.81675 13.4183 7.80858 13.437C7.78175 13.5292 7.75842 13.6225 7.69542 13.6983C7.69075 13.7053 7.68958 13.7205 7.69192 13.7287C7.75492 13.9048 7.71642 14.0717 7.65108 14.2362C7.61142 14.3365 7.56825 14.4345 7.51575 14.5267C7.45625 14.634 7.41192 14.7483 7.38042 14.8697C7.35942 14.9513 7.32908 15.033 7.29642 15.11C7.26492 15.1882 7.20775 15.243 7.11908 15.2442C7.10975 15.2453 7.09575 15.257 7.09341 15.2628C7.03625 15.4052 6.98142 15.5463 6.92775 15.6875C6.88808 15.789 6.88341 15.8952 6.88458 16.0013C6.88575 16.1238 6.89391 16.2463 6.90091 16.3677C6.90091 16.3852 6.90792 16.4038 6.91842 16.4202C7.00008 16.5357 6.99658 16.6617 6.95692 16.7923C6.95342 16.804 6.93475 16.818 6.92308 16.818C6.83325 16.8297 6.74458 16.8367 6.65358 16.8472C6.63725 16.8495 6.62325 16.8507 6.60925 16.8507H6.40975C6.38641 16.8495 6.36425 16.8472 6.33975 16.8437C6.25458 16.8332 6.16941 16.8238 6.08658 16.8087C6.04925 16.8017 6.02591 16.7783 6.01658 16.7352C5.96758 16.538 5.98741 16.3443 6.03641 16.1518C6.12041 15.8193 6.20325 15.4915 6.28725 15.1602C6.28958 15.1485 6.28375 15.1298 6.27441 15.1228C6.22425 15.0832 6.19741 15.0283 6.19741 14.9677C6.19741 14.8813 6.20091 14.7962 6.21608 14.711C6.24175 14.5733 6.31525 14.4532 6.39225 14.3423C6.45408 14.2525 6.48208 14.1603 6.47041 14.0518C6.46225 13.983 6.46458 13.9095 6.49725 13.8418C6.54858 13.7298 6.59875 13.6155 6.65475 13.5058C6.72475 13.3763 6.79475 13.2503 6.89858 13.15C6.90558 13.1418 6.91142 13.1337 6.91258 13.1232C6.92658 13.045 6.95108 12.9773 6.99775 12.919C7.08058 12.8245 7.10158 12.7113 7.09108 12.5877C7.08875 12.562 7.08525 12.5375 7.08408 12.5118C7.07942 12.4593 7.07008 12.4057 7.07358 12.352C7.09692 11.9845 7.15175 11.6217 7.23108 11.2612C7.23575 11.2367 7.23458 11.2215 7.21708 11.204C7.15992 11.1515 7.13308 11.0862 7.16108 11.0068C7.16925 10.9835 7.16925 10.9683 7.15292 10.9508C7.12258 10.9053 7.09925 10.8598 7.12725 10.805C7.14825 10.7677 7.16925 10.735 7.18908 10.6977C7.16925 10.6825 7.14592 10.6662 7.12725 10.6487C7.11908 10.6347 7.10742 10.6183 7.10742 10.6078C7.10742 10.5145 7.11908 10.4247 7.16108 10.343C7.20425 10.2613 7.25208 10.2462 7.32208 10.2823C7.31508 10.1202 7.30808 9.9545 7.30108 9.78767C7.30108 9.755 7.29875 9.72 7.28942 9.6885C7.22875 9.4715 7.22525 9.24633 7.22758 9.02233C7.22875 8.999 7.24275 8.96867 7.26025 8.95117C7.33608 8.8625 7.43875 8.817 7.55542 8.80417C7.51225 8.796 7.47025 8.79017 7.42825 8.782C7.32792 8.76333 7.22875 8.73883 7.12725 8.71667C7.09925 8.71317 7.08525 8.69217 7.08641 8.6595C7.08991 8.614 7.08875 8.565 7.09341 8.5195C7.11675 8.376 7.14358 8.23133 7.15992 8.08783C7.17975 7.88016 7.19258 7.67016 7.20775 7.46016C7.21475 7.37966 7.25208 7.33766 7.32792 7.326C7.36758 7.32016 7.40842 7.32133 7.44808 7.32366C7.53208 7.32833 7.61492 7.33066 7.69425 7.29333C7.70825 7.28633 7.72458 7.27233 7.72575 7.25716C7.73275 7.228 7.73275 7.19766 7.72808 7.16616C7.71758 7.03083 7.69892 6.8955 7.69308 6.75783C7.68258 6.472 7.71408 6.1885 7.81792 5.92133C7.92992 5.62383 8.11192 5.38466 8.39075 5.23416C8.52842 5.1595 8.67542 5.114 8.83175 5.13616C8.86558 5.14083 8.89942 5.1595 8.92625 5.17933C8.95892 5.20266 8.98575 5.23533 9.01375 5.261C9.03708 5.23766 9.05692 5.21433 9.08258 5.19333C9.10125 5.177 9.10242 5.16533 9.09425 5.14433C9.03008 4.97633 9.00325 4.80133 9.01375 4.62049C9.03592 4.15383 9.38125 3.74666 9.82692 3.66966C10.1058 3.62066 10.3531 3.70116 10.5748 3.87733C10.6028 3.8995 10.6343 3.90999 10.6646 3.92749C10.7171 3.95433 10.7708 3.97533 10.8174 4.00916C10.8641 4.04066 10.8676 4.08033 10.8513 4.1305C10.8454 4.1445 10.8478 4.16199 10.8536 4.17599C10.9061 4.29266 10.9364 4.41633 10.9469 4.54466C10.9598 4.66716 10.9609 4.78849 10.9271 4.90983C10.9119 4.96116 10.8769 4.9915 10.8256 5.00433C10.8081 5.01016 10.7929 5.01716 10.7743 5.023C10.7358 5.03816 10.6961 5.05566 10.6576 5.07083C10.6448 5.07433 10.6308 5.07666 10.6179 5.079C10.6191 5.15366 10.6028 5.22133 10.6354 5.289C10.6599 5.3345 10.6693 5.38466 10.6238 5.43366C10.6833 5.43016 10.7323 5.42783 10.7813 5.41966C10.8664 5.408 10.9504 5.39166 11.0344 5.37533C11.0426 5.37416 11.0473 5.36833 11.0519 5.366C11.0648 5.3625 11.0788 5.35433 11.0951 5.35433C11.1441 5.352 11.1943 5.35316 11.2421 5.35316C11.2433 5.31 11.2456 5.27616 11.2514 5.24C11.2526 5.22366 11.2619 5.2085 11.2654 5.19216C11.2748 5.135 11.2818 5.07666 11.2911 5.02066H11.3424C11.3483 5.05683 11.3494 5.09066 11.3518 5.12333C11.3564 5.16183 11.3588 5.19683 11.3658 5.23183C11.3728 5.24583 11.3903 5.261 11.4054 5.26333C11.4416 5.27266 11.4778 5.27383 11.5128 5.27733C11.5139 5.30883 11.5151 5.3345 11.5163 5.36483H14.2218V5.50133H14.3128V4.995H14.4049C14.4049 5.11633 14.4049 5.233 14.4073 5.352C14.4073 5.3765 14.3898 5.41033 14.4318 5.42083C14.4353 5.42083 14.4353 5.436 14.4364 5.44416C14.4376 5.45816 14.4376 5.46983 14.4388 5.48383H14.4843C14.4866 5.46983 14.4901 5.45933 14.4959 5.44766H14.5694C14.5764 5.47333 14.5799 5.49666 14.5846 5.52466C14.5589 5.53516 14.5531 5.56666 14.5694 5.64366C14.5706 5.64483 14.5729 5.646 14.5764 5.646C14.8179 5.64716 15.0606 5.64833 15.3021 5.6495C15.3114 5.6495 15.3173 5.64133 15.3243 5.6355C15.3499 5.61916 15.3756 5.59933 15.4036 5.58416C15.4106 5.58066 15.4258 5.5935 15.4386 5.59816C15.4526 5.60516 15.4678 5.61566 15.4818 5.61566C15.5728 5.61683 15.6638 5.61916 15.7559 5.6145C15.8014 5.61216 15.8294 5.62383 15.8364 5.67516C15.8341 5.6985 15.8341 5.723 15.8341 5.74866Z" fill="#30404F"/>
<path d="M10.5 1.56217C5.56967 1.56217 1.55983 5.572 1.55983 10.5012C1.55983 15.4327 5.56967 19.4413 10.5 19.4413C15.4303 19.4413 19.439 15.4327 19.439 10.5012C19.439 5.572 15.4303 1.56217 10.5 1.56217ZM10.5 21C4.711 21 0 16.2913 0 10.5C0 4.711 4.711 0 10.5 0C16.289 0 21 4.70984 21 10.5C21 16.2913 16.2902 21 10.5 21Z" fill="#30404F"/>
</svg>
