<svg width="22" height="21" viewBox="0 0 22 21" fill="none" xmlns="http://www.w3.org/2000/svg">
<path fill-rule="evenodd" clip-rule="evenodd" d="M19.9985 16.2947C19.9985 17.0267 19.9985 17.7603 19.9985 18.493C19.5353 18.3395 19.078 18.1646 18.6044 18.0451C18.438 18.003 18.2374 18.0982 18.0509 18.1307C18.0569 18.1617 18.0658 18.1912 18.071 18.2222C18.2471 18.2436 18.4254 18.2672 18.6029 18.2886C18.2956 18.4222 17.9942 18.5137 17.6861 18.586C17.5593 18.6177 17.4199 18.6266 17.2916 18.6082C16.8694 18.5425 16.4584 18.4266 16.0153 18.4399C15.7617 18.4495 15.5013 18.1964 15.2559 18.496C15.2313 18.5285 15.1291 18.496 15.0635 18.5034C14.7397 18.5425 14.4197 18.5853 14.0856 18.6296C14.0751 18.5949 14.0475 18.5071 14.0073 18.375C13.9461 18.5565 13.9431 18.6915 13.873 18.7395C13.7111 18.8554 13.5187 18.9417 13.3076 18.7949C13.4389 18.7469 13.5552 18.7063 13.6716 18.6657C13.1673 18.6384 12.687 18.6347 12.2044 18.6399C12.1492 18.6414 12.0485 18.6753 12.044 18.7063C11.997 18.9889 11.7613 18.8753 11.6173 18.8893C11.5106 18.8989 11.3928 18.7867 11.2802 18.7277C11.26 18.7181 11.2421 18.7004 11.1735 18.6487C11.1354 18.7255 11.0974 18.8037 11.0594 18.8886C10.7834 18.6155 10.485 18.5831 10.1978 18.6701C10.027 18.7225 9.89125 18.8871 9.73982 19C9.72118 19 9.70178 19 9.68314 19C9.58616 18.8295 9.48248 18.662 9.39446 18.4871C9.31689 18.3322 9.22514 18.3137 9.05357 18.3521C8.86933 18.3941 8.66644 18.358 8.47176 18.3521C8.37553 18.3484 8.28005 18.3366 8.18383 18.3285C8.1704 18.358 8.15772 18.3875 8.14504 18.417C8.03614 18.293 7.92723 18.1705 7.80042 18.0266C7.75194 18.1226 7.70569 18.2141 7.65124 18.3189C7.58485 18.2311 7.53115 18.1595 7.43268 18.0289C7.39763 18.1853 7.37674 18.2753 7.35735 18.3639C7.27679 18.3181 7.19548 18.2739 7.1097 18.2252C7.06121 18.2842 7.02019 18.3336 6.96499 18.4023C6.90755 18.3307 6.86727 18.2798 6.83296 18.2392C6.70317 18.2901 6.58457 18.3366 6.45552 18.3875C6.41823 18.3012 6.38914 18.234 6.35855 18.1639C6.0751 18.2296 5.79613 18.2945 5.50596 18.3617C5.4806 18.2827 5.4448 18.1676 5.39408 18.0052C5.3068 18.1292 5.25683 18.2008 5.20237 18.2798C5.133 18.2237 5.0778 18.1801 5.08974 18.1897C4.93981 18.2288 4.85701 18.2716 4.77571 18.268C4.30055 18.2502 3.82615 18.1883 3.35696 18.3307C3.28311 18.3536 3.18838 18.3071 3.08917 18.2901C3.07724 18.3211 3.05561 18.375 3.02502 18.4547C2.98698 18.3565 2.96013 18.2879 2.92656 18.203C2.82735 18.2798 2.75202 18.3381 2.65281 18.4141C2.63118 18.293 2.61551 18.206 2.60059 18.1233C2.435 18.0908 2.28954 18.0628 2.13215 18.0318C2.34847 17.2584 2.29999 16.5013 2.23658 15.7412C2.21271 15.4542 2.23285 15.1597 2.25225 14.8712C2.26269 14.7177 2.27015 14.5391 2.51034 14.5362C2.54465 14.5362 2.60731 14.4461 2.60731 14.3982C2.61402 13.8085 2.61178 13.2204 2.61178 12.647C2.52302 12.585 2.32535 12.5134 2.32236 12.436C2.29849 11.7209 2.30819 11.0036 2.30819 10.2871C2.36414 10.293 2.42008 10.2996 2.49318 10.3085C2.44246 10.2214 2.40516 10.1579 2.33355 10.0339C2.48498 10.09 2.56703 10.121 2.74008 10.1845C2.68488 9.88857 2.70875 9.60889 2.58418 9.43031C2.38801 9.15062 2.32759 8.8857 2.3716 8.561C2.40516 8.31822 2.4253 8.06215 2.38428 7.82306C2.12246 6.29477 2.13514 4.75836 2.25076 3.21827C2.2709 2.95113 2.28731 2.68399 2.30894 2.37406C2.06651 2.48844 1.98446 2.42498 2.00236 2.21983C2.02027 2.01394 2.02623 1.80731 2.04413 1.60069C2.04786 1.56232 2.08964 1.52763 2.12096 1.4804C2.1329 1.66489 2.1426 1.82355 2.15304 1.98073C2.18138 1.98073 2.20898 1.98073 2.23584 1.98073C2.26717 1.77632 2.29849 1.57265 2.33132 1.35864C2.8654 1.59774 2.95491 1.58741 3.486 1.27525C3.6598 1.32912 3.78288 1.39185 3.90969 1.40144C4.07901 1.41399 4.25207 1.36528 4.42139 1.37857C4.62652 1.39406 4.82792 1.46417 5.0338 1.47671C5.44182 1.50033 5.85058 1.50992 6.2586 1.50623C6.37422 1.50549 6.48909 1.44055 6.598 1.40661C6.74793 1.48188 6.90084 1.60659 7.06793 1.62947C7.3663 1.66932 7.67809 1.67817 7.97646 1.64054C8.2435 1.60659 8.56723 1.85159 8.78206 1.5018C8.79623 1.47819 8.87828 1.50402 8.91782 1.48483C8.98122 1.45458 9.05358 1.41842 9.09162 1.36307C9.22961 1.16382 9.40565 1.07527 9.64957 1.12471C9.70477 1.13578 9.79055 1.15497 9.81516 1.12766C10.0076 0.915136 10.215 1.06642 10.4164 1.09151C10.5201 1.10405 10.6342 1.15349 10.7237 1.12545C11.0668 1.01919 11.3973 1.1011 11.7396 1.12914C12.2976 1.17489 12.7362 1.34683 12.9212 1.91653C13.1077 1.89808 13.2867 1.86118 13.4635 1.86635C13.6425 1.87152 13.7387 1.78518 13.7708 1.63906C13.7984 1.52173 13.7768 1.39333 13.7768 1.24647C14.9188 1.10331 16.057 1.3151 17.2162 1.35938C17.2058 1.22581 17.1991 1.12471 17.1901 1.02435C17.2117 1.01623 17.2356 1.00886 17.2572 1C17.2983 1.08265 17.3259 1.17932 17.387 1.24426C17.4497 1.31068 17.5892 1.40661 17.619 1.38521C17.8115 1.24057 17.9733 1.37045 18.1538 1.39849C18.3284 1.4258 18.5134 1.37562 18.6931 1.38299C18.9132 1.39259 19.1407 1.3948 19.3428 1.459C19.5017 1.50845 19.6315 1.64644 19.7695 1.75049C19.8105 1.78149 19.8627 1.82871 19.8672 1.87299C19.8889 2.09659 19.9694 2.34823 19.8933 2.53862C19.774 2.84634 19.8478 3.1275 19.8687 3.42047C19.9112 4.02706 19.956 4.63439 20 5.24098C20 5.31625 20 5.39152 20 5.46679C19.9739 5.8948 19.9478 6.32355 19.9187 6.75156C19.8881 7.21794 19.8881 7.21794 19.4406 7.26812C19.4256 7.2696 19.4144 7.28878 19.3965 7.30428C19.4055 7.34118 19.4085 7.38029 19.4227 7.41202C19.5263 7.61569 19.58 7.78616 19.3399 7.96474C19.2653 8.02083 19.2727 8.27025 19.3279 8.39497C19.4428 8.65767 19.7143 8.85397 19.6412 9.19711C19.6263 9.26279 19.6979 9.34692 19.7315 9.42071C19.7531 9.4672 19.8061 9.51369 19.8016 9.55649C19.7509 10.0413 19.6934 10.5254 19.6382 11.0184C19.5681 11.0383 19.4928 11.0626 19.4137 11.084C19.4137 11.1113 19.4137 11.1379 19.4122 11.166C19.5696 11.1918 19.7285 11.2184 19.9262 11.2508C19.9262 11.3519 19.9262 11.4604 19.9276 11.5704C19.9381 13.0145 19.9493 14.4579 19.9627 15.9036C19.9649 16.0335 19.9866 16.1641 19.9985 16.2947ZM11.1108 11.7076C11.1407 11.6877 11.172 11.6685 11.2011 11.6486C11.3033 11.8559 11.404 12.0655 11.5077 12.2736C11.5457 12.3467 11.5778 12.4271 11.636 12.481C11.7247 12.5636 11.85 12.6101 11.9306 12.6987C12.123 12.9142 12.2879 13.1525 12.4781 13.3665C12.7474 13.6691 13.0346 13.9576 13.3113 14.2535C13.6335 14.5981 13.9185 14.9841 14.2788 15.2822C14.8919 15.7862 15.6543 15.8128 16.4114 15.8128C16.6299 15.8128 16.7612 15.7324 16.8686 15.5531C17.4109 14.6535 17.7555 13.6927 17.8465 12.6411C17.8637 12.4323 17.8025 12.3172 17.628 12.2102C17.2916 12.0006 16.9753 11.7593 16.6329 11.5556C16.4613 11.4545 16.2525 11.4146 16.0675 11.332C15.9698 11.2899 15.875 11.2279 15.8027 11.1534C15.7154 11.0656 15.6684 10.9239 15.5707 10.8575C14.5727 10.1727 13.5806 9.47975 12.5624 8.82666C10.9803 7.81273 9.52947 6.60028 7.81311 5.7937C7.78625 5.78116 7.79147 5.714 7.76462 5.69113C7.71837 5.64907 7.61917 5.58413 7.61096 5.59224C7.43865 5.77452 7.41926 5.53911 7.36108 5.49041C7.21189 5.36717 7.10448 5.19449 6.95231 5.07568C6.67706 4.86094 6.38168 4.67202 6.09599 4.47056C5.47911 4.03665 4.70559 4.09052 4.12451 4.61225C4.16554 4.66243 4.20358 4.71704 4.24834 4.76427C5.53804 6.13021 6.82625 7.49541 8.11968 8.85618C8.289 9.0355 8.42252 9.27312 8.72313 9.28198C8.76938 9.28345 8.84621 9.33732 8.85367 9.37717C8.93572 9.79116 9.30719 9.98598 9.54663 10.2797C10.0039 10.8413 10.5872 11.2892 11.0198 11.8751C11.0892 11.9696 11.1966 12.0353 11.2876 12.1135C11.3092 12.0921 11.3331 12.0699 11.3547 12.0485C11.2734 11.9356 11.1929 11.8205 11.1108 11.7076ZM9.07595 15.2387C7.85115 14.0646 6.68229 12.9451 5.4903 11.8035C5.36871 12.0626 5.25906 12.2803 5.16433 12.5046C4.89207 13.1429 4.6213 13.7827 4.36023 14.4277C4.28638 14.6107 4.29608 14.7967 4.48107 14.9339C4.95249 15.2793 5.42391 15.6254 5.89086 15.9693C6.12359 15.8076 6.21534 15.8268 6.2586 16.0947C7.17907 15.815 8.09059 15.5376 9.07595 15.2387ZM12.6646 4.96868C13.6992 5.75385 14.6763 6.49844 15.6572 7.24229C15.6684 7.22901 15.6833 7.21573 15.696 7.20318C15.6669 7.14341 15.6408 7.08363 15.6132 7.02312C15.6363 7.01205 15.6602 7.00025 15.6833 6.98918C15.7169 7.07183 15.7303 7.17809 15.79 7.23196C15.8922 7.32347 16.0242 7.38176 16.1443 7.45408C16.1853 7.37808 16.248 7.30649 16.2622 7.2268C16.3554 6.69105 16.4367 6.15308 16.5203 5.61512C16.5434 5.4572 16.5598 5.29633 16.5874 5.06092C16.4942 5.15981 16.4636 5.19375 16.4315 5.2277C16.4181 5.21515 16.4024 5.20261 16.3875 5.18932C16.4487 5.11996 16.5083 5.04911 16.5859 4.95982C16.3136 4.76574 16.0511 4.54731 15.7572 4.38644C15.6028 4.30231 15.3783 4.26246 15.2112 4.30157C14.3832 4.49787 13.5634 4.72885 12.6646 4.96868Z" fill="#CBCDD8"/>
</svg>
