<svg width="19" height="19" viewBox="0 0 19 19" fill="none" xmlns="http://www.w3.org/2000/svg">
<path fill-rule="evenodd" clip-rule="evenodd" d="M8.9995 9.46236C8.9995 10.8229 8.9995 12.1845 8.9995 13.545C8.9995 13.6403 8.99715 13.7337 8.99715 13.829C8.99793 13.9444 8.95327 14.0006 8.86237 13.9986C8.80986 13.9975 8.75736 13.9996 8.70408 13.9996C7.904 13.9996 7.10471 14.0006 6.30542 13.9996C6.00372 13.9996 6.00059 13.9965 6.00059 13.6353C5.9998 10.8731 5.9998 8.11083 6.00059 5.34757C6.00059 5.00944 6.00529 5.00643 6.25761 5.00141C6.48878 4.9974 6.72073 5.00342 6.95269 5.00141C7.05847 5.00041 7.10627 5.06162 7.10314 5.19506C7.10079 5.30343 7.10392 5.41078 7.10392 5.51814C7.10392 7.79577 7.10392 10.0734 7.10392 12.351C7.10392 12.8577 7.10549 12.8577 7.50435 12.8557C7.51454 12.8557 7.52551 12.8557 7.5357 12.8557C7.84523 12.8517 7.84758 12.8517 7.84758 12.4534C7.84836 10.2169 7.8468 7.98039 7.84993 5.7429C7.84993 5.5051 7.87657 5.26831 7.89068 5.03151C8.06856 5.02148 8.24487 5.00242 8.42276 5.00242C8.59985 5.00342 8.77695 5.02248 8.95405 5.03252C8.96894 5.26931 8.99558 5.5061 8.99636 5.7429C9.00185 6.98305 8.9995 8.22321 8.9995 9.46236Z" fill="#BABDCE"/>
<path fill-rule="evenodd" clip-rule="evenodd" d="M11.2724 12.0153C11.2724 11.4767 11.2732 10.9361 11.2724 10.3984C11.2715 10.2109 11.2992 10.0113 11.0805 9.94706C11.0428 9.93602 11.0084 9.81867 11.0059 9.74845C10.9958 9.51876 11.0017 9.28906 11.0017 9.06036C11.0009 8.89887 10.9866 8.7444 11.1768 8.69024C11.228 8.6762 11.2657 8.48662 11.2673 8.37829C11.2757 7.78549 11.2715 7.19269 11.2715 6.59989C11.2715 6.15554 11.2757 5.71119 11.2699 5.26584C11.2673 5.08128 11.3159 4.99803 11.4827 5.00004C12.2595 5.00706 13.0363 5.00405 13.8123 5.00104C13.9346 5.00104 14 5.04317 13.9992 5.20666C13.9966 6.3391 13.9966 7.47154 14 8.60298C14 8.75343 13.9589 8.82665 13.8249 8.82264C13.7394 8.82064 13.6237 8.79957 13.6112 8.94903C13.5994 9.09346 13.6028 9.24593 13.6355 9.38234C13.6464 9.42848 13.7687 9.45256 13.8433 9.45556C13.9606 9.46058 14 9.52477 13.9992 9.65617C13.9958 9.97915 13.9983 10.3031 13.9983 10.6271C13.9983 11.6502 14 12.6763 13.9975 13.6994C13.9966 13.9893 13.9916 13.9964 13.7578 13.9974C13.0154 14.0004 12.2721 14.0014 11.5296 13.9974C11.2791 13.9964 11.2749 13.9903 11.2724 13.6734C11.2699 13.1187 11.2724 12.567 11.2724 12.0153ZM12.9743 11.5038C12.9751 11.1527 12.9785 10.8057 12.9726 10.4566C12.9718 10.3683 12.955 10.2099 12.9249 10.2018C12.7673 10.1597 12.6006 10.1336 12.4388 10.1477C12.3106 10.1597 12.319 10.3172 12.3182 10.4365C12.3173 11.1206 12.3148 11.8057 12.3182 12.4898C12.3207 12.8408 12.3333 12.8489 12.6249 12.8539C12.6693 12.8549 12.7129 12.8499 12.7573 12.8539C12.9157 12.8659 12.9777 12.7746 12.9751 12.5881C12.9718 12.229 12.9743 11.8659 12.9743 11.5038ZM12.9743 7.44145C12.9743 7.13251 12.9718 6.82357 12.9743 6.51363C12.976 6.35013 12.9165 6.26187 12.7782 6.25685C12.7103 6.25485 12.6441 6.24983 12.5763 6.25485C12.3576 6.26889 12.3232 6.30199 12.3207 6.56679C12.3131 7.07634 12.3173 7.58689 12.3182 8.09844C12.3198 8.57489 12.3366 8.59395 12.7388 8.56687C12.7497 8.56687 12.7606 8.56586 12.7724 8.56687C12.9123 8.57589 12.9768 8.49766 12.9751 8.32814C12.9718 8.03325 12.9735 7.73735 12.9743 7.44145Z" fill="#BABDCE"/>
<path fill-rule="evenodd" clip-rule="evenodd" d="M16.0002 9.50521C16.0002 8.11757 15.9993 6.72993 16.0011 5.34228C16.002 5.00817 16.0055 5.00315 16.2886 5.00215C17.1054 4.99914 17.923 4.99914 18.7406 5.00315C18.9893 5.00415 18.9946 5.01118 18.9964 5.29814C18.9999 5.90416 18.992 6.51019 18.9999 7.11722C19.0026 7.30786 18.9443 7.38913 18.7741 7.37508C18.5527 7.35602 18.3287 7.35 18.1064 7.33896C18.0923 7.10016 18.072 6.86337 18.0632 6.62558C18.0509 6.27641 18.0447 6.26236 17.7413 6.25333C17.5755 6.24932 17.4105 6.25333 17.2447 6.25434C17.1001 6.25434 17.0251 6.33661 17.0242 6.50116C17.0233 6.58243 17.0216 6.6637 17.0216 6.74397C17.0216 8.61724 17.0216 10.4885 17.0216 12.3618C17.0216 12.3879 17.0216 12.417 17.0216 12.443C17.0286 12.8454 17.0322 12.8554 17.3814 12.8534C18.0103 12.8484 17.9741 12.9568 17.9741 12.1842C17.9741 11.537 17.9741 10.8898 17.9741 10.2437C17.9741 10.0791 17.9812 9.91759 17.788 9.86341C17.7431 9.85137 17.6972 9.74401 17.6954 9.67879C17.6857 9.3828 17.6954 9.08681 17.6893 8.78982C17.6848 8.6062 17.766 8.56206 17.9089 8.56607C18.1929 8.57209 18.4787 8.56406 18.7609 8.56908C18.9902 8.57309 18.9973 8.57711 18.9981 8.845C19.0008 9.8293 18.999 10.8116 18.999 11.7949C18.999 12.429 19.0017 13.0621 18.9981 13.6952C18.9964 13.9892 18.992 13.9962 18.7485 13.9972C17.9309 14.0013 17.1133 14.0003 16.2966 13.9982C16.0073 13.9972 16.0037 13.9932 16.0029 13.6671C15.9993 12.2805 16.0002 10.8929 16.0002 9.50521Z" fill="#BABDCE"/>
<path fill-rule="evenodd" clip-rule="evenodd" d="M3.99932 7.59553C3.99932 8.36302 4.00141 9.1305 3.99827 9.89698C3.99722 10.1859 3.99198 10.1909 3.69862 10.1929C3.15066 10.198 2.6006 10.1919 2.05369 10.1949C1.65555 10.198 1.64717 10.203 1.64612 10.5782C1.64298 11.5604 1.64507 12.5415 1.64507 13.5257C1.64507 13.6321 1.65974 13.7444 1.63459 13.8468C1.61993 13.9049 1.5382 13.9872 1.48267 13.9902C1.15997 14.0033 0.837274 14.0033 0.514574 13.9902C0.46114 13.9872 0.383608 13.9029 0.365797 13.8437C0.340651 13.7555 0.356367 13.6571 0.356367 13.5628C0.356367 12.6609 0.356367 11.759 0.355319 10.8581C0.355319 10.6725 0.399324 10.4668 0.10596 10.4257C0.0619556 10.4197 0.00852147 10.3013 0.00642601 10.2351C-0.00405126 9.91203 0.00118743 9.58898 0.00223516 9.26594C0.00223516 9.16762 0.0127126 9.06529 0.144726 9.05827C0.342747 9.04623 0.356367 8.91982 0.356367 8.77635C0.355319 8.29179 0.356367 7.80722 0.356367 7.32265C0.356367 6.65048 0.354272 5.9773 0.357415 5.30412C0.357415 5.01117 0.363701 5.00415 0.653922 5.00315C1.66603 4.99914 2.67918 4.99914 3.69024 5.00215C3.98989 5.00415 3.99617 5.01017 3.99722 5.29409C4.00141 6.06157 3.99932 6.82805 3.99932 7.59553ZM1.71841 7.64269C1.71841 7.99382 1.71527 8.34395 1.71946 8.69409C1.7226 9.04723 1.72575 9.04723 2.0956 9.05325C2.15217 9.05425 2.20875 9.05425 2.26533 9.05325C2.60584 9.04422 2.62365 9.03519 2.62575 8.70813C2.63203 8.06104 2.62679 7.41395 2.62784 6.76685C2.62784 6.30536 2.69804 6.23814 2.04949 6.25319C2.03587 6.25319 2.02121 6.25319 2.00654 6.2542C1.75613 6.27526 1.7268 6.29834 1.72156 6.55216C1.71422 6.91634 1.71946 7.28051 1.71841 7.64269Z" fill="#BABDCE"/>
</svg>
