<svg width="20" height="18" viewBox="0 0 20 18" fill="none" xmlns="http://www.w3.org/2000/svg">
<path d="M2.14209 5.58131C3.45696 5.61948 4.45612 5.26908 5.24713 4.39134C6.03466 3.5136 6.24976 2.47281 6.10752 1.31405C7.9081 0.883858 9.68092 0.706922 11.4884 0.835287C13.6672 0.991406 15.7557 1.48405 17.7714 2.30628C19.0897 2.84402 19.1487 2.84749 19.062 4.25257C18.8052 8.42615 17.362 12.0863 14.2014 15.0387C14.1667 14.7473 14.1633 14.5044 14.1078 14.2685C13.9135 13.4116 13.3688 12.801 12.6749 12.3083C11.4607 11.4479 10.0625 11.0177 8.66094 10.5875C7.64443 10.2788 6.6071 10.0186 5.62528 9.62307C4.30347 9.09226 3.29043 8.1382 2.57575 6.90312C2.36413 6.53538 2.30168 6.0809 2.14209 5.58131Z" fill="#BABDCE"/>
<path d="M7.05142 11.389C8.95608 11.5035 10.4791 11.788 11.9015 12.4749C12.6162 12.8219 13.2303 13.2902 13.4662 14.1159C13.6813 14.8688 13.3933 15.7534 12.7342 16.1628C12.1027 16.5549 11.4505 16.9295 10.7775 17.2487C10.5797 17.3424 10.2432 17.3146 10.0385 17.2071C8.05752 16.1732 6.42347 14.7231 5.10166 12.9259C4.77208 12.4749 4.83106 12.069 5.36186 11.8574C6.00022 11.6041 6.69061 11.4862 7.05142 11.389Z" fill="#BABDCE"/>
<path d="M0.750988 1.9976C0.754458 0.942929 1.53505 0.193557 2.62095 0.203964C3.67562 0.210903 4.46316 1.00538 4.45969 2.05311C4.45622 3.0835 3.63399 3.88491 2.59667 3.88144C1.51077 3.87103 0.747519 3.09391 0.750988 1.9976Z" fill="#BABDCE"/>
</svg>
