<svg width="9" height="18" viewBox="0 0 9 18" fill="none" xmlns="http://www.w3.org/2000/svg">
<path d="M5.15422 5.04791C5.15422 4.59565 5.15422 4.15569 5.15422 3.71574C5.15422 3.62652 5.15422 3.53729 5.15422 3.44807C5.1571 3.33424 5.10524 3.25425 5.01591 3.20502C4.73065 3.05119 4.4425 3.03273 4.15436 3.20194C4.03622 3.26963 3.99588 3.38039 3.99876 3.52191C4.00165 4.35259 3.99876 5.18328 3.99876 6.01089C3.99876 6.06934 3.99876 6.12472 3.99876 6.19241C4.01605 6.18625 4.0391 6.18625 4.05063 6.17395C4.28691 5.92782 4.58658 5.84475 4.89777 5.82321C5.34728 5.79245 5.79966 5.76783 6.24916 5.78937C6.99834 5.82629 7.65242 6.12472 8.17108 6.71543C8.42465 7.00463 8.49668 7.37075 8.4938 7.75532C8.48804 9.12134 8.47939 10.4904 8.47363 11.8564C8.47075 12.5118 8.48228 13.164 8.48228 13.8193C8.48228 14.1301 8.48228 14.4469 8.4477 14.7546C8.35261 15.5576 7.97226 16.1821 7.33546 16.6221C6.82833 16.9728 6.27222 17.1944 5.67576 17.2836C5.30694 17.339 4.93235 17.3789 4.56064 17.3759C3.86334 17.3728 3.16891 17.3051 2.50042 17.0744C1.77142 16.8221 1.17496 16.3883 0.863765 15.6037C0.705286 15.2038 0.644775 14.7854 0.644775 14.3546C0.644775 10.8165 0.644775 7.28152 0.644775 3.74343C0.644775 3.31578 0.659182 2.89121 0.742744 2.46971C0.947326 1.46058 1.50056 0.774502 2.41398 0.426845C3.20637 0.125338 4.03046 0.01458 4.86608 0.0576524C5.58932 0.0945717 6.30103 0.211483 6.9724 0.528373C7.69564 0.869877 8.15091 1.46058 8.35261 2.27589C8.48516 2.80814 8.48516 3.3527 8.48228 3.89418C8.48228 4.27568 8.48228 4.65718 8.48228 5.04791C7.36716 5.04791 6.26645 5.04791 5.15422 5.04791ZM6.88884 9.99817C6.88596 9.8751 6.88884 9.74896 6.88596 9.6259C6.88308 9.55514 6.87155 9.4813 6.86003 9.41054C6.81104 9.08749 6.62087 8.94289 6.32408 9.01058C6.15408 9.0475 5.98695 9.09365 5.81983 9.1521C5.5144 9.25978 5.21473 9.38285 4.9093 9.49053C4.81421 9.52437 4.7076 9.53668 4.60675 9.53668C4.4742 9.5336 4.40505 9.41977 4.33301 9.31516C4.29555 9.25978 4.2408 9.17979 4.19182 9.17979C3.97283 9.17364 3.75384 9.17056 3.53773 9.20133C3.26976 9.23825 3.10264 9.52437 3.1401 9.8105C3.16891 10.0197 3.19484 10.232 3.19484 10.4443C3.20061 11.7518 3.20061 13.0625 3.19484 14.37C3.19484 14.6715 3.16315 14.973 3.13722 15.2745C3.12281 15.4653 3.1545 15.5514 3.32163 15.6253C3.3879 15.656 3.4657 15.6807 3.53485 15.6714C3.72503 15.6468 3.9152 15.6037 4.1025 15.5607C4.26674 15.5207 4.29555 15.4745 4.29555 15.2961C4.29555 14.5485 4.29555 13.8009 4.29555 13.0532C4.29555 13.004 4.29555 12.9579 4.3042 12.9086C4.32725 12.7487 4.37623 12.5979 4.52895 12.5364C4.68743 12.4718 4.85167 12.4164 5.01591 12.3856C5.20032 12.3518 5.24354 12.321 5.24643 12.121C5.24643 11.7949 5.24354 11.4657 5.24643 11.1396C5.24931 10.9304 5.30117 10.8535 5.49711 10.8104C5.8861 10.7273 6.2751 10.6566 6.66409 10.5796C6.8341 10.5489 6.88308 10.4873 6.88308 10.3028C6.88884 10.2074 6.88884 10.1028 6.88884 9.99817Z" fill="#BABDCE"/>
<path d="M5.11682 11.3458C5.04766 11.2474 4.97563 11.1489 4.90359 11.0443C5.04478 11.0012 5.14563 11.0658 5.15139 11.2074C5.16292 11.435 5.16004 11.6596 5.16292 11.8873C5.16292 11.9365 5.15716 11.9827 5.15716 12.0319C5.15428 12.1673 5.09088 12.2565 4.9641 12.2657C4.81139 12.278 4.65579 12.2749 4.50019 12.2626C4.38493 12.2534 4.34171 12.1888 4.33883 12.0627C4.33595 11.955 4.33595 11.8504 4.33883 11.7427C4.34748 11.395 4.57511 11.2197 4.88918 11.315C4.96122 11.3366 5.03326 11.3581 5.10529 11.3797C5.10529 11.3704 5.11106 11.3581 5.11682 11.3458Z" fill="#BABDCE"/>
</svg>
