<svg width="22" height="19" viewBox="0 0 22 19" fill="none" xmlns="http://www.w3.org/2000/svg">
<path d="M10.6585 18.6863C12.9669 14.686 15.2189 10.7835 17.4897 6.84711C16.7829 6.62529 16.1062 6.44107 15.452 6.20045C14.9257 6.00871 14.561 6.12902 14.1662 6.52754C12.0608 8.67431 9.92532 10.7985 7.80111 12.9302C7.70336 13.028 7.61689 13.1408 7.51538 13.2536C8.55305 15.0469 9.57943 16.8177 10.6585 18.6863Z" fill="#BABDCE"/>
<path d="M9.9029 9.01649C11.0346 7.87355 12.1249 6.77197 13.2114 5.67415C12.8129 5.44105 9.07953 4.47858 8.69604 4.53497C9.09833 6.02756 9.49685 7.51262 9.9029 9.01649Z" fill="#BABDCE"/>
<path d="M21.3323 0.203857C20.2758 2.02353 19.2231 3.84321 18.1441 5.70048C17.0914 5.42602 16.0537 5.16285 15.016 4.88463C12.9294 4.3282 10.8503 3.75297 8.75998 3.20782C8.41409 3.11759 8.2449 2.94841 8.16595 2.61004C7.98173 1.80547 7.77495 1.00842 7.57568 0.203857C12.1625 0.203857 16.7492 0.203857 21.3323 0.203857Z" fill="#BABDCE"/>
<path d="M6.38766 0.203857C6.54932 0.921952 6.69219 1.64381 6.88017 2.35814C7.4366 4.44475 8.00807 6.5276 8.57578 8.61421C8.70737 9.09921 8.83895 9.5842 8.95926 10.0278C8.26373 10.7309 7.60579 11.3926 6.94785 12.0581C6.65459 11.7874 2.72951 5.09517 0 0.203857C2.12797 0.203857 4.25969 0.203857 6.38766 0.203857Z" fill="#BABDCE"/>
<path d="M10.6585 18.6863C9.57567 16.8177 8.55305 15.0432 7.51538 13.2498C7.61313 13.137 7.6996 13.0242 7.80111 12.9265C9.92532 10.7947 12.0608 8.6743 14.17 6.52753C14.5647 6.12525 14.9294 6.00494 15.4558 6.20044C16.11 6.44106 16.7867 6.62528 17.4935 6.8471C15.2227 10.7835 12.9706 14.686 10.6585 18.6863Z" fill="#BABDCE"/>
<path d="M9.9029 9.01621C9.49685 7.51235 9.09833 6.02728 8.69604 4.53846C9.07953 4.4783 12.8129 5.44453 13.2114 5.67763C12.1286 6.77169 11.0346 7.87327 9.9029 9.01621Z" fill="#BABDCE"/>
</svg>
