<svg width="20" height="20" viewBox="0 0 20 20" fill="none" xmlns="http://www.w3.org/2000/svg">
<path d="M15.1742 5.09031C15.1683 5.1409 15.1383 5.15298 15.0937 5.15072C14.9994 5.14694 14.908 5.14921 14.813 5.15072C14.7976 5.15072 14.783 5.16582 14.7655 5.16884C14.7487 5.17262 14.7253 5.17715 14.7114 5.17262C14.6887 5.16506 14.6682 5.1477 14.647 5.13486C14.6485 5.13033 14.6514 5.12655 14.6514 5.12278C14.5498 5.12278 14.4445 5.12278 14.3415 5.12278C14.2018 5.12278 14.0629 5.12202 13.9233 5.12353C13.9079 5.12353 13.8918 5.13411 13.8772 5.13939C13.8648 5.14166 13.8546 5.14845 13.8429 5.14921C13.7749 5.14996 13.7061 5.15147 13.6389 5.14845C13.6089 5.14694 13.5789 5.13411 13.549 5.12731C13.5417 5.12731 13.5343 5.12882 13.5219 5.12957C13.5219 5.1779 13.5219 5.22472 13.5219 5.27682C13.5022 5.27833 13.4861 5.27984 13.4678 5.27984C13.122 5.27984 12.7762 5.28059 12.4282 5.27984C12.4026 5.27984 12.3865 5.29117 12.3668 5.30778C12.3339 5.33496 12.2908 5.34931 12.244 5.37121C12.2593 5.44218 12.2052 5.48674 12.1497 5.53129C12.1212 5.55545 12.097 5.58716 12.0729 5.61737C12.0437 5.65663 12.01 5.68986 11.9537 5.68457C11.9318 5.94055 11.9859 6.18142 12.0641 6.42381C12.0027 6.44193 11.9457 6.46232 11.8887 6.47742C11.847 6.4895 11.8258 6.50687 11.817 6.55218C11.7958 6.67752 11.7659 6.8006 11.7454 6.92444C11.7154 7.10717 11.6284 7.24082 11.4559 7.30878C11.4427 7.31407 11.4317 7.32841 11.4215 7.34201C11.3601 7.42809 11.2899 7.50284 11.1876 7.53682C11.1262 7.55721 11.0647 7.55268 11.0085 7.52172C10.9719 7.50209 10.9375 7.4968 10.8988 7.49907C10.7847 7.50511 10.6802 7.4666 10.5764 7.42356C10.3461 7.3269 10.1333 7.19023 9.9206 7.06035C9.89794 7.04676 9.87674 7.03544 9.86358 7.02638C9.85334 7.07999 9.84969 7.13435 9.83799 7.18495C9.82483 7.23327 9.80363 7.2816 9.78681 7.32992C9.82922 7.34654 9.87235 7.36088 9.91329 7.38203C10.0266 7.44696 10.0851 7.54664 10.0807 7.68255C10.0661 8.0299 10.0522 8.37498 10.0405 8.72157C10.0376 8.8152 9.99517 8.89297 9.95789 8.9715C9.92791 9.03569 9.88916 9.09685 9.85115 9.15424C9.8124 9.21087 9.79486 9.21615 9.73271 9.19501C9.66619 9.17311 9.60112 9.14744 9.53678 9.12403C9.51412 9.17009 9.49292 9.21238 9.47391 9.25617C9.46952 9.2675 9.46879 9.28034 9.47099 9.29317C9.49438 9.40568 9.51778 9.52197 9.54336 9.63599C9.54848 9.64958 9.55652 9.66393 9.56676 9.6745C9.91768 10.052 10.1801 10.4923 10.3739 10.9763C10.4653 11.2005 10.5354 11.4331 10.6151 11.6627C10.6239 11.6846 10.6283 11.7087 10.6356 11.7276C10.64 11.7314 10.6429 11.7352 10.6451 11.7352C10.738 11.7246 10.7438 11.7276 10.757 11.8235C10.7599 11.8424 10.7628 11.859 10.7628 11.8786C10.7643 11.9443 10.7679 12.0032 10.8067 12.0636C10.8381 12.118 10.8527 12.1897 10.8513 12.2554C10.8454 12.4434 10.8366 12.6352 10.8154 12.8248C10.7869 13.0815 10.7423 13.3375 10.7094 13.5972C10.7051 13.641 10.7255 13.6886 10.7328 13.7369C10.7613 13.8751 10.7789 14.014 10.754 14.156C10.7438 14.2172 10.7241 14.2723 10.6853 14.3198C10.6751 14.3319 10.67 14.347 10.6685 14.3621C10.6539 14.606 10.6327 14.8514 10.6641 15.0976C10.6685 15.1218 10.6765 15.1505 10.6912 15.1708C10.8242 15.3339 10.9595 15.4948 11.0925 15.6549C11.1335 15.7024 11.1854 15.7145 11.238 15.7266C11.3623 15.7553 11.4749 15.8089 11.5809 15.8829C11.6269 15.9146 11.6503 15.9577 11.6481 16.012C11.6452 16.0641 11.6423 16.1155 11.6379 16.1645C11.635 16.2 11.6152 16.2227 11.5838 16.228C11.5063 16.2423 11.4281 16.2589 11.3535 16.262C11.064 16.2763 10.7782 16.2567 10.4938 16.1955C10.4112 16.1789 10.33 16.1434 10.2481 16.1208C10.224 16.1117 10.194 16.114 10.1684 16.117C10.0559 16.1245 9.944 16.1396 9.83141 16.1419C9.77731 16.1419 9.72467 16.1117 9.67276 16.0928C9.64864 16.0838 9.64133 16.0619 9.64206 16.0369C9.6501 15.8882 9.6735 15.7409 9.71297 15.599C9.71736 15.5831 9.72102 15.5642 9.72321 15.5454C9.72906 15.4465 9.75976 15.3581 9.81459 15.2781C9.8241 15.269 9.82995 15.2524 9.82849 15.2388C9.81313 14.9866 9.79997 14.7336 9.78608 14.4799C9.78462 14.4595 9.77877 14.4467 9.75611 14.4376C9.71955 14.4256 9.70639 14.3931 9.71005 14.3584C9.72028 14.2949 9.70201 14.2398 9.67934 14.1832C9.6194 14.0299 9.59527 13.8653 9.57992 13.7007C9.56237 13.493 9.55652 13.2823 9.5419 13.0724C9.53678 12.9856 9.56822 12.9176 9.63548 12.8625C9.64571 12.8535 9.65449 12.8361 9.65595 12.8232C9.66838 12.6949 9.67788 12.5665 9.68812 12.4397C9.68958 12.4208 9.68373 12.3974 9.6735 12.3838C9.64864 12.3392 9.62086 12.2962 9.58942 12.2547C9.58211 12.2441 9.56456 12.238 9.54994 12.238C9.4666 12.238 9.38179 12.2426 9.29553 12.2396C9.24874 12.238 9.2078 12.2109 9.17928 12.1656C8.96873 11.8416 8.75818 11.5215 8.54836 11.1983C8.52935 11.1673 8.50961 11.1537 8.47233 11.1568C8.31661 11.1666 8.20548 11.0971 8.14115 10.9468C8.1258 10.9113 8.10898 10.8759 8.09363 10.8396C8.08339 10.8185 8.07389 10.792 8.06219 10.7611C8.05122 10.8034 8.04538 10.8381 8.03733 10.8713C8.00444 11.0171 7.92767 11.1318 7.81289 11.2232C7.79754 11.2338 7.78365 11.2534 7.77707 11.2708C7.6908 11.5071 7.60234 11.7412 7.52119 11.979C7.49706 12.0508 7.4861 12.1286 7.47952 12.2056C7.46709 12.3574 7.41591 12.4736 7.2675 12.5235C7.25435 12.5288 7.24557 12.5431 7.23899 12.5567C7.22145 12.6005 7.20609 12.645 7.18928 12.6904C7.14761 12.7908 7.08108 12.8633 6.99116 12.9199C6.97288 12.929 6.95533 12.9539 6.94729 12.9743C6.91878 13.0679 6.89538 13.1638 6.83032 13.2416C6.82593 13.2484 6.82374 13.2635 6.82666 13.2725C6.89173 13.453 6.85225 13.6252 6.78499 13.7935C6.74478 13.8955 6.70092 13.9967 6.64755 14.0911C6.58394 14.2005 6.53935 14.3191 6.50718 14.4422C6.48598 14.5267 6.45454 14.6098 6.42164 14.6883C6.38801 14.7699 6.33026 14.825 6.23814 14.8265C6.22937 14.828 6.21548 14.8394 6.21255 14.8461C6.1548 14.9919 6.0985 15.1361 6.04294 15.2811C6.00273 15.3845 5.99835 15.4933 5.99908 15.602C6.00054 15.7289 6.00858 15.8527 6.01516 15.978C6.01589 15.9954 6.0232 16.0165 6.03271 16.0324C6.11678 16.1502 6.11386 16.2801 6.07292 16.4152C6.06853 16.4258 6.05098 16.4394 6.03856 16.4402C5.94717 16.4515 5.85505 16.4598 5.76148 16.4704C5.74685 16.4719 5.7315 16.4741 5.71688 16.4741C5.64962 16.4741 5.58017 16.4741 5.51291 16.4741C5.48732 16.4719 5.46539 16.4704 5.4398 16.4666C5.35353 16.4545 5.2658 16.4454 5.181 16.4303C5.14225 16.4235 5.11959 16.3994 5.10862 16.3541C5.05891 16.1525 5.07938 15.9539 5.12982 15.7568C5.21609 15.417 5.30089 15.0795 5.38643 14.7397C5.38862 14.7291 5.38278 14.7095 5.374 14.7019C5.32283 14.6604 5.29358 14.6045 5.29358 14.5426C5.29358 14.455 5.2987 14.3674 5.31332 14.2798C5.33891 14.1379 5.41567 14.0163 5.49536 13.9008C5.5575 13.8094 5.58675 13.7158 5.57432 13.6033C5.56555 13.533 5.5692 13.4575 5.6021 13.3888C5.65547 13.274 5.70664 13.1562 5.7644 13.0437C5.83458 12.9116 5.90623 12.7825 6.0137 12.6798C6.02028 12.6715 6.0254 12.6617 6.02759 12.6511C6.04221 12.5726 6.06707 12.5023 6.11532 12.4434C6.20086 12.3453 6.22133 12.229 6.21109 12.1021C6.20817 12.0772 6.20524 12.0515 6.20305 12.0266C6.19939 11.9715 6.18916 11.9156 6.19281 11.8613C6.21694 11.4845 6.27323 11.1122 6.35438 10.743C6.3595 10.7173 6.35731 10.7022 6.33903 10.6848C6.28201 10.6304 6.25422 10.5632 6.28274 10.4832C6.29224 10.4583 6.29005 10.4424 6.2747 10.4243C6.24399 10.3782 6.21913 10.3322 6.24911 10.2748C6.26958 10.2378 6.29151 10.2031 6.31125 10.1646C6.29005 10.1487 6.26665 10.1328 6.24838 10.114C6.23814 10.1004 6.22718 10.0845 6.22718 10.0717C6.22718 9.97729 6.23887 9.88517 6.28274 9.8006C6.3266 9.71829 6.37558 9.70244 6.44796 9.73944C6.44065 9.57331 6.43261 9.40266 6.42603 9.23201C6.4253 9.19803 6.42311 9.16254 6.41433 9.13083C6.35219 8.90732 6.34853 8.67702 6.35146 8.44822C6.35219 8.4233 6.36608 8.3931 6.3829 8.37422C6.46185 8.28286 6.56713 8.23679 6.68556 8.22396C6.64243 8.21565 6.60003 8.20961 6.55689 8.20131C6.45381 8.18092 6.35219 8.15751 6.24911 8.13486C6.2184 8.12957 6.20451 8.10843 6.20671 8.0752C6.20963 8.02763 6.20817 7.97855 6.21402 7.93174C6.23595 7.78525 6.26519 7.63725 6.28054 7.48925C6.30248 7.27631 6.31417 7.06111 6.32953 6.84591C6.33684 6.7636 6.37558 6.71981 6.45381 6.70848C6.49475 6.70244 6.53569 6.7047 6.57663 6.70621C6.6629 6.70999 6.74917 6.71377 6.82886 6.6745C6.84421 6.66695 6.86029 6.6526 6.86175 6.6375C6.86833 6.60805 6.86833 6.57634 6.86395 6.54538C6.85298 6.40493 6.83324 6.26675 6.82739 6.12479C6.81716 5.83257 6.85006 5.54261 6.95606 5.26776C7.07084 4.9627 7.25654 4.71729 7.54312 4.56325C7.68422 4.48623 7.83409 4.44017 7.99493 4.46283C8.03002 4.46736 8.06512 4.48623 8.0929 4.50813C8.1258 4.53154 8.15358 4.56401 8.18063 4.59044C8.20548 4.56703 8.22668 4.54287 8.253 4.52097C8.27128 4.50587 8.27201 4.49227 8.26397 4.47189C8.19817 4.29897 8.17039 4.12001 8.18063 3.9335C8.20475 3.45628 8.5586 3.03871 9.01625 2.95943C9.30137 2.91035 9.55506 2.99114 9.78316 3.17237C9.81021 3.19426 9.84311 3.2071 9.87454 3.22296C9.92718 3.25165 9.98421 3.27279 10.0317 3.30753C10.0785 3.33924 10.0829 3.38002 10.0654 3.43136C10.0602 3.44571 10.0617 3.46459 10.0683 3.47894C10.1216 3.599 10.1531 3.72585 10.1641 3.85648C10.1757 3.98183 10.1772 4.10717 10.1429 4.23026C10.1275 4.28311 10.0931 4.31483 10.0398 4.32842C10.0215 4.3337 10.0054 4.3405 9.98713 4.3473C9.94692 4.36315 9.90744 4.38052 9.86723 4.39487C9.85407 4.40015 9.84018 4.40166 9.82556 4.40468C9.82702 4.48095 9.81021 4.55117 9.84457 4.61988C9.86869 4.66746 9.87893 4.71729 9.83287 4.76864C9.89428 4.76411 9.944 4.7626 9.99444 4.75429C10.0814 4.7407 10.167 4.72409 10.2532 4.70823C10.262 4.70748 10.2664 4.70219 10.2708 4.69917C10.2854 4.69539 10.2993 4.68633 10.3154 4.68633C10.3658 4.68407 10.417 4.68558 10.4653 4.68558C10.4682 4.64178 10.4696 4.60629 10.4755 4.56929C10.477 4.55268 10.4872 4.53682 10.4908 4.52021C10.5011 4.46131 10.5069 4.40242 10.5172 4.34352C10.534 4.34352 10.5523 4.34352 10.5698 4.34352C10.5742 4.38127 10.5771 4.41601 10.58 4.45074C10.5852 4.4885 10.5866 4.5255 10.5939 4.56099C10.5998 4.57609 10.6181 4.59119 10.6341 4.59346C10.6714 4.60327 10.708 4.60478 10.7438 4.60856C10.7453 4.63952 10.7467 4.6667 10.7482 4.69766C11.6767 4.69766 12.5956 4.69766 13.5226 4.69766C13.5226 4.74523 13.5226 4.79054 13.5226 4.83735C13.5555 4.83735 13.5826 4.83735 13.614 4.83735C13.614 4.66217 13.614 4.49001 13.614 4.31785C13.6484 4.31785 13.6784 4.31785 13.7098 4.31785C13.7098 4.44244 13.7098 4.5625 13.7113 4.68331C13.7113 4.70974 13.6937 4.74448 13.7368 4.75505C13.7398 4.75505 13.7398 4.7709 13.7412 4.77846C13.7427 4.7928 13.7427 4.80564 13.7442 4.81999C13.761 4.81999 13.7771 4.81999 13.7909 4.81999C13.7939 4.80564 13.7968 4.79431 13.8026 4.78223C13.8282 4.78223 13.8538 4.78223 13.8787 4.78223C13.8845 4.80866 13.8889 4.83282 13.8933 4.86076C13.8677 4.87209 13.8604 4.90531 13.8779 4.98309C13.8794 4.98384 13.8823 4.98535 13.8853 4.98535C14.1338 4.98686 14.3824 4.98762 14.6295 4.98837C14.639 4.98837 14.6449 4.98158 14.6522 4.97554C14.6792 4.95892 14.7048 4.93703 14.7333 4.92268C14.7406 4.9189 14.756 4.93174 14.7691 4.93627C14.7838 4.94307 14.7991 4.95515 14.8137 4.95515C14.9066 4.95666 15.0002 4.95817 15.0945 4.95364C15.1405 4.95137 15.1705 4.9627 15.1778 5.01631C15.1742 5.03896 15.1742 5.06464 15.1742 5.09031ZM11.3287 5.77367C11.2015 5.77367 11.083 5.78122 10.9646 5.7699C10.9076 5.76461 10.8886 5.79104 10.8688 5.83257C10.8615 5.84541 10.8557 5.85975 10.8505 5.87334C10.8535 5.87183 10.8586 5.87032 10.8615 5.86881C10.92 5.97302 10.9785 6.07647 11.0333 6.17614C11.1291 6.04475 11.2256 5.91336 11.3287 5.77367ZM11.0019 5.70496C11.0004 5.71024 10.9989 5.71628 10.9989 5.72081C11.0158 5.72535 11.0333 5.73441 11.0487 5.73441C11.1342 5.73592 11.2212 5.73441 11.3075 5.73516C11.3499 5.73516 11.3689 5.70647 11.374 5.67475C11.3813 5.62869 11.3769 5.58112 11.3703 5.53506C11.3674 5.5192 11.3499 5.49731 11.3331 5.49353C11.2687 5.47918 11.2044 5.48069 11.1474 5.51769C11.1386 5.52449 11.1291 5.53431 11.1291 5.54186C11.1327 5.60075 11.1444 5.66116 11.0933 5.70496C11.0662 5.70496 11.0333 5.70496 11.0019 5.70496ZM11.0501 5.51694C11.0428 5.50259 11.0362 5.48447 11.0348 5.48447C11.0172 5.49051 10.9975 5.49882 10.9799 5.50637C10.9814 5.51014 10.9814 5.51316 10.9843 5.51694C11.0019 5.51694 11.0201 5.51694 11.0501 5.51694Z" fill="#BABDCE"/>
<path d="M9.76555 19.1688C4.6699 19.1688 0.523926 15.0236 0.523926 9.92714C0.523926 4.83225 4.6699 0.686279 9.76555 0.686279C14.8604 0.686279 19.0064 4.83149 19.0064 9.92714C19.0064 15.0236 14.8612 19.1688 9.76555 19.1688ZM9.76555 1.44861C5.08952 1.44861 1.28549 5.25264 1.28549 9.9279C1.28549 14.6039 5.08952 18.408 9.76555 18.408C14.4416 18.408 18.2448 14.6039 18.2448 9.9279C18.2448 5.25188 14.4416 1.44861 9.76555 1.44861Z" fill="#BABDCE"/>
</svg>
