<svg width="18" height="18" viewBox="0 0 18 18" fill="none" xmlns="http://www.w3.org/2000/svg">
<path fill-rule="evenodd" clip-rule="evenodd" d="M8.92305 0.0435791C13.752 0.0946716 17.5902 3.88971 17.5959 8.70588C17.6015 13.5228 13.7626 17.3731 8.9421 17.376C4.12723 17.3788 0.273501 13.5483 0.268561 8.72504C0.262915 3.89751 4.11382 0.102477 8.92305 0.0435791ZM8.99291 15.2819C9.09594 15.1166 9.1785 14.9952 9.25119 14.8682C9.58639 14.2913 9.92511 13.7186 10.2483 13.1374C10.4156 12.8366 10.6294 12.6145 10.9441 12.4505C11.5962 12.1106 12.1184 11.6125 12.4924 10.9752C12.7027 10.6133 12.9885 10.3302 13.3209 10.0896C13.7697 9.76108 14.2248 9.44388 14.6744 9.11675C14.927 8.93438 15.1712 8.74136 15.4584 8.5228C15.2968 8.42203 15.1803 8.33901 15.0554 8.27159C14.517 7.98278 13.9856 7.67977 13.4345 7.41934C12.9828 7.20717 12.63 6.90913 12.3597 6.49116C12.0217 5.97101 11.5764 5.55021 11.0274 5.25856C10.5828 5.02225 10.2582 4.69086 10.0444 4.24026C9.9484 4.04014 9.83479 3.84855 9.72541 3.65553C9.4509 3.16448 9.17568 2.67484 8.87506 2.14263C8.3705 2.9963 7.89346 3.78752 7.43335 4.58939C7.24493 4.91723 7.02053 5.18547 6.69027 5.38629C6.14336 5.71768 5.70725 6.17609 5.4024 6.73953C5.21821 7.07944 4.96135 7.31929 4.62544 7.50308C3.87954 7.91111 3.14422 8.33475 2.37149 8.77116C3.20773 9.28422 4.00868 9.78166 4.8195 10.2642C5.03474 10.3926 5.18787 10.5452 5.30643 10.7709C5.73407 11.582 6.37765 12.183 7.20542 12.5754C7.48839 12.7074 7.67822 12.8969 7.8243 13.1743C8.19267 13.8726 8.58855 14.5553 8.99291 15.2819Z" fill="#BABDCE"/>
<path fill-rule="evenodd" clip-rule="evenodd" d="M11.9893 8.82084C12.0662 10.3288 10.7508 11.8289 9.02615 11.8403C7.55621 11.8509 5.99948 10.6857 6.01006 8.8031C6.01853 6.99855 7.52657 5.8 9.01768 5.80852C10.7706 5.81916 12.062 7.33349 11.9893 8.82084ZM7.6536 10.2599C7.76792 10.5452 7.97468 10.6339 8.1758 10.6907C9.42274 11.0476 10.6224 10.4686 10.9915 9.16217C11.2102 8.39295 10.9964 7.77487 10.4403 7.25117C10.2816 7.10215 10.0833 6.99429 9.89767 6.87223C9.32112 6.49046 8.09041 6.61464 7.48282 7.48605C7.24289 7.82738 7.1575 8.55758 7.61408 9.03018C7.98103 9.40841 8.71706 9.53401 9.15105 9.28422C9.41075 9.13237 9.48908 8.95283 9.43262 8.62641C9.3804 8.32766 9.28725 8.24038 8.88925 8.1609C8.89983 8.24109 8.91536 8.30779 8.91536 8.37308C8.91818 8.56822 8.87937 8.74775 8.66554 8.81517C8.49336 8.86839 8.22167 8.77472 8.13699 8.5959C8.06854 8.45681 8.02337 8.27515 8.05019 8.12826C8.18074 7.4229 9.06073 7.14189 9.68384 7.57759C10.3295 8.02749 10.4255 9.25655 9.88426 9.75541C9.36064 10.2372 8.76716 10.4544 8.06148 10.3494C7.94151 10.3316 7.82155 10.2976 7.6536 10.2599Z" fill="#BABDCE"/>
</svg>
