<?xml version="1.0" encoding="utf-8"?>
<!-- Generator: Adobe Illustrator 21.1.0, SVG Export Plug-In . SVG Version: 6.00 Build 0)  -->
<svg version="1.1" id="Слой_1" xmlns="http://www.w3.org/2000/svg" xmlns:xlink="http://www.w3.org/1999/xlink" x="0px" y="0px"
	 viewBox="0 0 19 19" style="enable-background:new 0 0 19 19;" xml:space="preserve">
<style type="text/css">
	.st0{fill:#BABDCE;}
</style>
<path class="st0" d="M9.5,18.5c-2.8,0-5.6,0-8.4,0c-0.6,0-0.6,0-0.6-0.6c0-5.6,0-11.3,0-16.9c0-0.6,0-0.6,0.6-0.6
	c5.6,0,11.2,0,16.8,0c0.6,0,0.6,0,0.6,0.6c0,5.6,0,11.3,0,16.9c0,0.6,0,0.6-0.6,0.6C15.1,18.5,12.3,18.5,9.5,18.5z M9.5,17.9
	c2.6,0,5.2,0,7.7,0c0.6,0,0.6,0,0.6-0.6c0-5.2,0-10.3,0-15.5c0-0.6,0-0.6-0.6-0.6c-5.1,0-10.3,0-15.5,0c-0.6,0-0.6,0-0.6,0.6
	c0,5.2,0,10.3,0,15.5c0,0.6,0,0.6,0.6,0.6C4.4,17.9,6.9,17.9,9.5,17.9z"/>
<path class="st0" d="M3.6,16.9c0.3-0.3,0.6-0.6,0.8-0.9c0.4-0.4,0.6-1,0.6-1.6c0-3.5,0-7.1,0-10.6c0-1-0.4-1.8-1.2-2.4
	c-0.1,0-0.1-0.1-0.1-0.2c1.9,0,3.8,0,5.6,0C9.1,1.7,8.7,2.1,8.5,2.6c-0.2,0.3-0.2,0.7-0.2,1c0,3.2,0,6.5,0,9.7
	c0,0.4,0.1,0.6,0.5,0.7c2.6,0.8,4.9,0.3,7-1.5c0.1-0.1,0.2-0.1,0.3-0.3c-0.2,0.5-0.3,1-0.4,1.4c-0.3,1-0.6,2-0.9,3.1
	c-0.1,0.3-0.2,0.4-0.5,0.4c-3.4,0-6.8,0-10.3,0C3.9,17,3.8,16.9,3.6,16.9z"/>
</svg>
