<?xml version="1.0" encoding="utf-8"?>
<!-- Generator: Adobe Illustrator 21.1.0, SVG Export Plug-In . SVG Version: 6.00 Build 0)  -->
<svg version="1.1" id="Слой_1" xmlns="http://www.w3.org/2000/svg" xmlns:xlink="http://www.w3.org/1999/xlink" x="0px" y="0px"
	 viewBox="0 0 24 24" style="enable-background:new 0 0 24 24;" xml:space="preserve">
<style type="text/css">
	.st0{fill:#CBCDD8;}
	.st1{fill:none;stroke:#CBCDD8;stroke-linecap:round;stroke-linejoin:round;}
</style>
<g>
	<path class="st0" d="M9.2,7.5C9.2,7.5,9.2,7.5,9.2,7.5c0.3,0,0.4-0.1,0.5-0.3c0.2-1.1,1.1-1.8,2.2-1.8c0.1,0,0.3,0,0.4,0
		c0.2,0,0.4-0.1,0.5-0.3c0-0.2-0.1-0.4-0.3-0.5c-0.2,0-0.4-0.1-0.6-0.1c-1.4,0-2.7,1-3,2.4c0,0.1,0,0.2,0.1,0.3
		C9,7.5,9.1,7.5,9.2,7.5z"/>
	<path class="st0" d="M15.3,13.8H8.9c-2.5,0-4.6,2.1-4.6,4.6c0,0.2,0.2,0.4,0.4,0.4c0.2,0,0.4-0.2,0.4-0.4c0-2.1,1.7-3.8,3.8-3.8
		h6.4c2.1,0,3.8,1.7,3.8,3.8c0,0.2,0.2,0.4,0.4,0.4c0.2,0,0.4-0.2,0.4-0.4C19.9,15.8,17.8,13.8,15.3,13.8z"/>
	<path class="st0" d="M8.8,9c0,0.2,0.2,0.3,0.4,0.3c0,0,0.1,0,0.1,0c0.2,0,0.3-0.3,0.3-0.5c0-0.1,0-0.5,0-0.7c0-0.1,0-0.2-0.1-0.3
		C9.4,7.7,9.3,7.6,9.2,7.6C9,7.6,8.8,7.8,8.8,8C8.7,8.1,8.7,8.7,8.8,9z"/>
	<path class="st0" d="M6.7,10.3h0.7c0.2,0,0.3-0.1,0.4-0.2c0.7,1.6,2.4,2.8,4.3,2.8c1.9,0,3.5-1.1,4.3-2.8c0.1,0.1,0.2,0.1,0.3,0.1
		h0.7c0.4,0,0.7-0.3,0.7-0.7V7.3c0-0.4-0.3-0.7-0.7-0.7h-0.7c-0.1,0-0.2,0-0.2,0c-0.7-1.8-2.4-3-4.4-3c-2,0-3.7,1.3-4.4,3
		c-0.1,0-0.2-0.1-0.3-0.1H6.7C6.3,6.6,6,6.9,6,7.3v2.4C6,10,6.3,10.3,6.7,10.3z M12.1,4.4c2.2,0,3.9,1.8,3.9,3.9v0
		c0,0.1,0,0.3,0,0.4c-0.2,0-0.3,0.2-0.3,0.3c0,0.4-0.2,0.8-0.5,1c-0.2,0.2-0.5,0.3-0.9,0.3c-0.1-0.3-0.5-0.6-0.8-0.6
		c-0.5,0-0.9,0.4-0.9,0.9c0,0.5,0.4,0.9,0.9,0.9c0.3,0,0.6-0.2,0.8-0.4c0.2,0,0.4,0,0.6-0.1c-0.7,0.7-1.7,1.1-2.7,1.1
		c-2.2,0-3.9-1.8-3.9-3.9C8.2,6.1,10,4.4,12.1,4.4z"/>
</g>
<circle class="st1" cx="12.1" cy="12" r="11.1"/>
</svg>
