<?xml version="1.0" encoding="utf-8"?>
<!-- Generator: Adobe Illustrator 21.1.0, SVG Export Plug-In . SVG Version: 6.00 Build 0)  -->
<svg version="1.1" id="Слой_1" xmlns="http://www.w3.org/2000/svg" xmlns:xlink="http://www.w3.org/1999/xlink" x="0px" y="0px"
	 viewBox="0 0 25.3 24.5" style="enable-background:new 0 0 25.3 24.5;" xml:space="preserve">
<style type="text/css">
	.st0{fill:#6D6D6D;}
</style>
<g>
	<path class="st0" d="M11.4,12.6l-0.9,0.9c-0.1,0.1-0.1,0.4,0,0.5c0.1,0.1,0.2,0.1,0.3,0.1s0.2,0,0.3-0.1l0.9-0.9
		c0.1-0.1,0.1-0.4,0-0.5C11.8,12.5,11.6,12.5,11.4,12.6z"/>
	<path class="st0" d="M18.5,5.6l-5.9,5.9c-0.1,0.1-0.1,0.4,0,0.5c0.1,0.1,0.2,0.1,0.3,0.1s0.2,0,0.3-0.1L19,6.1
		c0.1-0.1,0.1-0.4,0-0.5C18.9,5.4,18.6,5.4,18.5,5.6z"/>
	<path class="st0" d="M21.5,2.6l-1.7,1.7c-0.1,0.1-0.1,0.4,0,0.5C19.8,4.9,19.9,5,20,5c0.1,0,0.2,0,0.3-0.1L22,3.1
		c0.1-0.1,0.1-0.4,0-0.5C21.8,2.4,21.6,2.4,21.5,2.6z"/>
	<path class="st0" d="M10.1,8.9L5.9,4.7c-0.1-0.1-0.4-0.1-0.5,0s-0.1,0.4,0,0.5l4.2,4.2c0.1,0.1,0.2,0.1,0.3,0.1s0.2,0,0.3-0.1
		C10.2,9.2,10.2,9,10.1,8.9z"/>
	<path class="st0" d="M3.8,2.6c-0.1-0.1-0.4-0.1-0.5,0C3.1,2.7,3.1,3,3.3,3.1l1,1c0.1,0.1,0.2,0.1,0.3,0.1c0.1,0,0.2,0,0.3-0.1
		C5,4,5,3.7,4.8,3.6L3.8,2.6z"/>
	<path class="st0" d="M24.7,21.9c-0.2-0.2-0.4-0.3-0.6-0.4c-0.1-0.2-0.2-0.4-0.4-0.6c-0.2-0.2-0.4-0.3-0.6-0.4
		c-0.1-0.2-0.2-0.4-0.4-0.6c-0.2-0.2-0.4-0.3-0.6-0.4c-0.1-0.2-0.2-0.4-0.4-0.6s-0.4-0.3-0.6-0.4c-0.1-0.2-0.2-0.4-0.4-0.6
		c0,0,0,0-0.1-0.1c0.8-0.6,1.6-1,2.6-1.3c0.1,0,0.2-0.1,0.2-0.2c0-0.1,0.1-0.2,0-0.3l-0.6-1.8c-0.1-0.2-0.3-0.3-0.5-0.3
		c-0.9,0.3-1.7,0.7-2.5,1.1l-3.1-3.3l7-6.6c0.1-0.1,0.1-0.2,0.1-0.3l0.3-4.8c0-0.1,0-0.2-0.1-0.3c-0.1-0.1-0.2-0.1-0.3-0.1l-4.8,0.3
		c-0.1,0-0.2,0-0.3,0.1l-6.5,6.9l-6-6.4C6.6,0.9,6.5,0.8,6.4,0.8L1.2,0.1c-0.1,0-0.2,0-0.3,0.1C0.8,0.3,0.7,0.4,0.8,0.5l0.7,5.2
		c0,0.1,0.1,0.2,0.1,0.2l6.6,6.1l-3.1,3.3c-0.8-0.5-1.6-0.8-2.5-1.1c-0.2-0.1-0.4,0.1-0.5,0.3l-0.6,1.8c0,0.1,0,0.2,0,0.3
		c0,0.1,0.1,0.2,0.2,0.2c0.9,0.3,1.8,0.7,2.6,1.3c0,0,0,0-0.1,0.1c-0.2,0.2-0.3,0.4-0.4,0.6c-0.2,0.1-0.4,0.2-0.6,0.4
		s-0.3,0.4-0.4,0.6c-0.2,0.1-0.4,0.2-0.6,0.4c-0.2,0.2-0.3,0.4-0.4,0.6c-0.2,0.1-0.4,0.2-0.6,0.4c-0.2,0.2-0.3,0.4-0.4,0.6
		c-0.2,0.1-0.4,0.2-0.6,0.4c-0.3,0.3-0.4,0.7-0.4,1.1s0.2,0.8,0.4,1.1c0.3,0.3,0.7,0.4,1.1,0.4c0.4,0,0.8-0.2,1.1-0.4
		c0.2-0.2,0.3-0.4,0.4-0.6c0.2-0.1,0.4-0.2,0.6-0.4c0.2-0.2,0.3-0.4,0.4-0.6c0.2-0.1,0.4-0.2,0.6-0.4c0.2-0.2,0.3-0.4,0.4-0.6
		c0.2-0.1,0.4-0.2,0.6-0.4s0.3-0.4,0.4-0.6c0.2-0.1,0.4-0.2,0.6-0.4c0,0,0,0,0.1-0.1c0.6,0.8,1,1.6,1.3,2.6c0.1,0.2,0.2,0.3,0.4,0.3
		c0,0,0.1,0,0.1,0l1.8-0.6c0.1,0,0.2-0.1,0.2-0.2c0-0.1,0.1-0.2,0-0.3c-0.3-0.9-0.7-1.7-1.1-2.5l3.4-3.2l3.4,3.2
		c-0.5,0.8-0.8,1.6-1.1,2.5c0,0.1,0,0.2,0,0.3c0,0.1,0.1,0.2,0.2,0.2L17,23c0,0,0.1,0,0.1,0c0.2,0,0.3-0.1,0.4-0.3
		c0.3-0.9,0.7-1.8,1.3-2.6c0,0,0,0,0.1,0.1c0.2,0.2,0.4,0.3,0.6,0.4c0.1,0.2,0.2,0.4,0.4,0.6c0.2,0.2,0.4,0.3,0.6,0.4
		c0.1,0.2,0.2,0.4,0.4,0.6c0.2,0.2,0.4,0.3,0.6,0.4c0.1,0.2,0.2,0.4,0.4,0.6c0.2,0.2,0.4,0.3,0.6,0.4c0.1,0.2,0.2,0.4,0.4,0.6
		c0.3,0.3,0.7,0.4,1.1,0.4c0.4,0,0.8-0.2,1.1-0.4c0.3-0.3,0.4-0.7,0.4-1.1C25.1,22.5,24.9,22.1,24.7,21.9z M2.2,5.5L1.6,0.9l4.6,0.7
		l5.9,6.4l-3.4,3.6L2.2,5.5z M1.7,23.6c-0.2,0-0.4-0.1-0.5-0.2c-0.1-0.1-0.2-0.3-0.2-0.5s0.1-0.4,0.2-0.5c0.1-0.1,0.1-0.1,0.2-0.2
		l1,1c0,0.1-0.1,0.2-0.2,0.2C2,23.6,1.9,23.6,1.7,23.6z M2.9,22.7l-1-1c0-0.1,0.1-0.2,0.2-0.2c0.1-0.1,0.1-0.1,0.2-0.2l1,1
		c0,0.1-0.1,0.2-0.2,0.2C3,22.6,3,22.6,2.9,22.7z M3.8,21.7l-1-1c0-0.1,0.1-0.2,0.2-0.2c0.1-0.1,0.1-0.1,0.2-0.2l1,1
		c0,0.1-0.1,0.2-0.2,0.2C4,21.6,3.9,21.7,3.8,21.7z M4.7,20.8l-1-1c0-0.1,0.1-0.2,0.2-0.2c0.1-0.1,0.1-0.1,0.2-0.2l1,1
		c0,0.1-0.1,0.2-0.2,0.2C4.9,20.7,4.8,20.8,4.7,20.8z M5.9,19.7c-0.1,0.1-0.1,0.1-0.2,0.2l-1-1c0-0.1,0.1-0.2,0.2-0.2
		c0,0,0.1-0.1,0.1-0.1c0.4,0.3,0.7,0.6,1,1C6,19.6,5.9,19.7,5.9,19.7z M8.4,22.2c-1-2.8-3.2-5-6-6l0.3-1.1c1.6,0.5,3,1.4,4.1,2.6
		c0,0,0,0,0,0s0,0,0,0c1.2,1.2,2,2.6,2.6,4.1L8.4,22.2z M7.7,17.4l2.2-2.2c0.1-0.1,0.1-0.4,0-0.5c-0.1-0.1-0.4-0.1-0.5,0l-2.2,2.2
		c-0.4-0.4-0.9-0.8-1.4-1.1L19.5,1.1l4.2-0.3L23.5,5L8.8,18.8C8.5,18.3,8.1,17.9,7.7,17.4z M13.2,15.7l3.3-3.1l3,3.2
		c-0.5,0.3-1,0.7-1.4,1.1L16,14.7c-0.1-0.1-0.4-0.1-0.5,0c-0.1,0.1-0.1,0.4,0,0.5l2.2,2.2c-0.4,0.4-0.8,0.9-1.1,1.4L13.2,15.7z
		 M16.9,22.2l-1.1-0.3c0.5-1.6,1.4-3,2.6-4.1c0,0,0,0,0,0s0,0,0,0c1.2-1.2,2.6-2,4.1-2.6l0.3,1.1C20.1,17.2,17.9,19.4,16.9,22.2z
		 M19.4,19.7c0,0-0.1-0.1-0.1-0.1c0.3-0.4,0.6-0.7,1-1c0,0,0.1,0.1,0.1,0.1c0.1,0.1,0.1,0.1,0.2,0.2l-1,1
		C19.5,19.8,19.4,19.8,19.4,19.7z M20.3,20.6c-0.1-0.1-0.1-0.1-0.2-0.2l1-1c0.1,0,0.2,0.1,0.2,0.2c0.1,0.1,0.1,0.1,0.2,0.2l-1,1
		C20.5,20.8,20.4,20.7,20.3,20.6z M21.2,21.6c-0.1-0.1-0.1-0.1-0.2-0.2l1-1c0.1,0,0.2,0.1,0.2,0.2c0.1,0.1,0.1,0.1,0.2,0.2l-1,1
		C21.4,21.7,21.3,21.6,21.2,21.6z M22.2,22.5c-0.1-0.1-0.1-0.1-0.2-0.2l1-1c0.1,0,0.2,0.1,0.2,0.2c0.1,0.1,0.1,0.1,0.2,0.2l-1,1
		C22.3,22.6,22.2,22.6,22.2,22.5z M24.1,23.4c-0.1,0.1-0.3,0.2-0.5,0.2c-0.2,0-0.4-0.1-0.5-0.2c-0.1-0.1-0.1-0.1-0.2-0.2l0.9-1
		c0.1,0,0.2,0.1,0.2,0.2c0.1,0.1,0.2,0.3,0.2,0.5C24.3,23.1,24.3,23.3,24.1,23.4z"/>
</g>
</svg>
