<svg width="21" height="21" viewBox="0 0 21 21" fill="none" xmlns="http://www.w3.org/2000/svg">
<path d="M12.6765 13.0177C12.5594 13.0177 12.4639 12.923 12.4639 12.8059C12.4647 12.923 12.5594 13.0177 12.6765 13.0177Z" fill="#434B56"/>
<path d="M8.04932 10.8014C8.10166 11.0257 7.9621 11.2525 7.73783 11.3056C7.70294 11.3123 7.6722 11.3173 7.64064 11.3173C7.4446 11.3173 7.27764 11.1835 7.23278 10.9925C7.15387 10.6594 7.21285 10.0796 7.22448 9.9683C7.2494 9.73737 7.45955 9.57041 7.68799 9.59699C7.79846 9.60945 7.89814 9.66344 7.96792 9.75149C8.0377 9.83788 8.07009 9.94753 8.05763 10.0588C8.03022 10.3164 8.01942 10.6735 8.04932 10.8014ZM10.4059 7.34922C9.30778 7.34922 8.35418 8.1317 8.13821 9.21073C8.09916 9.40677 7.92556 9.54798 7.72703 9.54798C7.69629 9.54798 7.66888 9.54549 7.6423 9.53968C7.41719 9.49399 7.2685 9.27303 7.31419 9.04543C7.60824 7.57682 8.9074 6.51025 10.4067 6.51025C10.6119 6.51025 10.8196 6.53101 11.0231 6.57172C11.249 6.61657 11.3969 6.83753 11.3529 7.0643C11.3064 7.28775 11.0879 7.44059 10.8578 7.39324C10.7099 7.36417 10.5579 7.34922 10.4059 7.34922Z" fill="#434B56"/>
<path d="M13.8786 15.4863H7.31139C7.31139 15.4863 7.31056 15.4863 7.30973 15.4863C4.70062 15.4863 2.5791 17.6228 2.5791 20.2485C2.5791 20.4794 2.76766 20.668 2.99859 20.668C2.99859 20.668 2.99942 20.668 3.00025 20.668C3.23034 20.6663 3.41724 20.4778 3.41724 20.2485C3.41724 18.0855 5.16413 16.3245 7.31139 16.3245H13.8778C16.025 16.3245 17.7719 18.0846 17.7719 20.2485C17.7719 20.4628 17.9356 20.6331 18.1432 20.658C18.1599 20.6597 18.1731 20.668 18.1906 20.668H18.1922H18.1939C18.3069 20.6672 18.4124 20.6223 18.4905 20.5426C18.5685 20.4628 18.6109 20.3573 18.6092 20.2485C18.6101 17.6228 16.4869 15.4863 13.8786 15.4863Z" fill="#434B56"/>
<path d="M11.3538 7.06528C11.3979 6.83934 11.25 6.61756 11.0241 6.5727C10.8206 6.532 10.6129 6.51123 10.4077 6.51123C8.90838 6.51123 7.60922 7.5778 7.31517 9.04642C7.26865 9.27319 7.41734 9.49497 7.64328 9.54066C7.66903 9.54647 7.69644 9.54897 7.728 9.54897C7.9257 9.54897 8.09931 9.40775 8.13835 9.21172C8.35516 8.13269 9.30793 7.3502 10.4061 7.3502C10.5581 7.3502 10.7101 7.36598 10.8596 7.39589C11.088 7.44157 11.3073 7.2879 11.3538 7.06528Z" fill="#434B56"/>
<path d="M7.06944 2.27549C7.11346 2.04955 6.9656 1.82776 6.73966 1.78291C6.53615 1.7422 6.32848 1.72144 6.12331 1.72144C4.62396 1.72144 3.3248 2.78801 3.03075 4.25662C2.98506 4.48339 3.13292 4.70518 3.35886 4.75004C3.38461 4.75585 3.41202 4.75834 3.44359 4.75834C3.64129 4.75834 3.8149 4.61713 3.85394 4.42109C4.07074 3.34206 5.02351 2.55958 6.12165 2.55958C6.27366 2.55958 6.42567 2.57536 6.57519 2.60526C6.80445 2.65178 7.02375 2.49811 7.06944 2.27549Z" fill="#434B56"/>
<path d="M15.656 2.27549C15.7 2.04955 15.5522 1.82776 15.327 1.78291C15.1227 1.7422 14.915 1.72144 14.7107 1.72144C13.2113 1.72144 11.9122 2.78801 11.6181 4.25662C11.5708 4.48339 11.7203 4.70518 11.9462 4.75087C11.972 4.75668 11.9994 4.75917 12.031 4.75917C12.2287 4.75917 12.4023 4.61796 12.4413 4.42192C12.6573 3.34289 13.6109 2.56041 14.709 2.56041C14.8602 2.56041 15.0122 2.57619 15.1617 2.60609C15.3918 2.65178 15.6111 2.49811 15.656 2.27549Z" fill="#434B56"/>
<path d="M7.96815 9.75064C7.89837 9.66342 7.79869 9.6086 7.68822 9.59614C7.46061 9.57039 7.25046 9.73652 7.2247 9.96745C7.21224 10.0796 7.1541 10.6585 7.23301 10.9916C7.2787 11.1818 7.44483 11.3164 7.64087 11.3164C7.67243 11.3164 7.70317 11.3114 7.73805 11.3048C7.96233 11.2516 8.10189 11.024 8.04955 10.8006C8.01965 10.6726 8.03045 10.3155 8.05786 10.0572C8.07032 9.94751 8.03792 9.83786 7.96815 9.75064Z" fill="#434B56"/>
<path d="M4.99783 12.2285H5.70805C5.86505 12.2285 6.00294 12.1687 6.12338 12.0831C6.88178 13.7735 8.57716 14.9555 10.5458 14.9555C12.4962 14.9555 14.1767 13.7959 14.9459 12.1321C15.0497 12.1878 15.1635 12.2285 15.2898 12.2285H15.9991C16.4045 12.2285 16.7351 11.8995 16.7351 11.4933V9.03709C16.7351 8.63256 16.4062 8.30195 16 8.30195H15.2906C15.2075 8.30195 15.1344 8.32438 15.0613 8.3493C14.3553 6.54261 12.6001 5.25757 10.5467 5.25757C8.48246 5.25757 6.7198 6.5559 6.02204 8.37837C5.92651 8.33269 5.82185 8.30195 5.70888 8.30195H4.99783C4.5933 8.30195 4.2627 8.6309 4.2627 9.03709V11.4933C4.26353 11.8987 4.5933 12.2285 4.99783 12.2285ZM10.5467 14.1166C8.33543 14.1166 6.53705 12.3173 6.53705 10.1061C6.53705 7.89493 8.33626 6.09654 10.5467 6.09654C12.7554 6.09654 14.5505 7.89077 14.5554 10.0978V10.1145C14.5554 10.2291 14.5314 10.3362 14.5222 10.4467C14.5214 10.4467 14.5206 10.4467 14.5197 10.4467C14.2888 10.4467 14.0994 10.6352 14.0994 10.8662C14.0994 11.6271 13.5354 12.2534 12.8052 12.3647C12.679 12.0009 12.3401 11.7326 11.9322 11.7326C11.4172 11.7326 10.9985 12.152 10.9985 12.667C10.9985 13.1821 11.4172 13.6007 11.9322 13.6007C12.2371 13.6007 12.4962 13.4445 12.6673 13.2169C12.8227 13.2111 12.9714 13.1929 13.1167 13.1588C12.4198 13.7469 11.5302 14.1166 10.5467 14.1166Z" fill="#434B56"/>
<path d="M20.2649 3.38032H19.5546C19.4417 3.38032 19.337 3.41106 19.2407 3.45674C18.5429 1.6351 16.7802 0.335938 14.716 0.335938C12.9077 0.335938 11.3336 1.33356 10.5004 2.80467C9.66726 1.33356 8.09149 0.335938 6.28397 0.335938C4.21977 0.335938 2.4571 1.6351 1.75934 3.45674C1.66299 3.41106 1.55832 3.38032 1.44535 3.38032H0.735137C0.329773 3.38032 0 3.71009 0 4.11546V6.57173C0 6.97709 0.329773 7.30687 0.735137 7.30687H1.44535C1.60235 7.30687 1.74024 7.24706 1.86069 7.1615C2.26854 8.07108 2.96962 8.79874 3.82022 9.30378V8.33024C2.8824 7.59677 2.27353 6.46457 2.27353 5.18452C2.27353 2.9733 4.07274 1.17491 6.28314 1.17491C8.13635 1.17491 9.68387 2.44416 10.1416 4.1545C10.1416 4.1545 10.2803 4.14204 10.4514 4.13789C10.5685 4.14204 10.6807 4.1545 10.8584 4.1545C11.3161 2.44416 12.8637 1.17491 14.7169 1.17491C16.9273 1.17491 18.7265 2.9733 18.7265 5.18452C18.7265 6.46457 18.1176 7.59677 17.1798 8.33024V9.30378C18.0304 8.79957 18.7315 8.07191 19.1393 7.1615C19.2598 7.24706 19.3976 7.30687 19.5546 7.30687H20.2649C20.6694 7.30687 21 6.97792 21 6.57173V4.11546C21 3.71009 20.6702 3.38032 20.2649 3.38032Z" fill="#434B56"/>
</svg>
