<?xml version="1.0" ?><!DOCTYPE svg  PUBLIC '-//W3C//DTD SVG 1.1//EN'  'http://www.w3.org/Graphics/SVG/1.1/DTD/svg11.dtd'><svg height="48px" id="Слой_1" style="enable-background:new 0 0 48 48;" version="1.1" viewBox="0 0 48 48" width="48px" xml:space="preserve" xmlns="http://www.w3.org/2000/svg" xmlns:xlink="http://www.w3.org/1999/xlink"><g><g><g><circle cx="19" cy="19" r="3" style="fill:#7D50F9;"/><circle cx="29" cy="19" r="3" style="fill:#7D50F9;"/><path d="M29,27c0,2.8-2.2,5-5,5s-5-2.2-5-5H29z" style="fill:#7D50F9;"/></g><path d="M42.9,46c-0.6-5.3-3.3-10-7.5-13.2c2.1-2.4,3.4-5.5,3.6-8.9c2.3-0.4,4-2.5,4-4.9     c0-2.4-1.7-4.4-3.9-4.9l4.6-7.5c1-1.7,1.2-3.3,0.5-4.6C43.5,0.7,42,0,40,0H24C16,0,9.5,6.2,9,14.1c-2.3,0.5-4,2.5-4,4.9     c0,2.4,1.7,4.5,4,4.9c0.2,3.4,1.5,6.5,3.6,8.9c-4.3,3.2-7,8-7.5,13.2H2v2h3h2h34h2h3v-2H42.9z M7,19c0-1.3,0.8-2.4,2-2.8v5.7     C7.8,21.4,7,20.3,7,19z M11,15c0-7.2,5.8-13,13-13h16c1.2,0,2.1,0.4,2.4,1s0.2,1.6-0.4,2.6l-5,8.1V16h1c1.7,0,3,1.3,3,3     s-1.3,3-3,3h-1v1c0,7.2-5.8,13-13,13s-13-5.8-13-13V15z M7.1,46c0.6-4.7,3.1-9,6.9-11.8c2.6,2.3,6.1,3.8,9.9,3.8s7.3-1.4,9.9-3.8     c3.9,2.8,6.4,7.1,6.9,11.8H7.1z" style="fill:#303033;"/></g></g></svg>