<svg width="21" height="21" viewBox="0 0 21 21" fill="none" xmlns="http://www.w3.org/2000/svg">
<path d="M15.3283 4.75417L15.328 4.75449L10.3752 9.70898C10.3751 9.70904 10.3751 9.70909 10.375 9.70914C10.2004 9.88271 10.2008 10.1652 10.3746 10.3393C10.4617 10.4274 10.5767 10.4693 10.6895 10.4693C10.8027 10.4693 10.9174 10.4272 11.0051 10.3396H11.0052L15.9591 5.38473C16.1333 5.2105 16.1333 4.92886 15.9592 4.7546C15.7854 4.57978 15.5029 4.58071 15.3283 4.75417Z" fill="#30404F"/>
<path d="M16.385 3.69761C16.2132 3.87173 16.2126 4.154 16.3844 4.32812C16.4716 4.41536 16.5876 4.45943 16.7005 4.45943C16.8149 4.45943 16.9296 4.41617 17.0164 4.32848C17.0163 4.3286 17.0165 4.32836 17.0164 4.32848L18.4715 2.87496C18.6431 2.701 18.6442 2.41847 18.4719 2.24496C18.2971 2.07128 18.0133 2.07022 17.8388 2.24462C17.8388 2.24461 17.8388 2.24463 17.8388 2.24462L16.385 3.69761Z" fill="#30404F"/>
<path d="M7.80008 8.14567C7.88768 8.2321 8.00231 8.27637 8.11647 8.27637C8.23098 8.27637 8.34406 8.23246 8.43142 8.14627C8.60482 7.97288 8.6055 7.68965 8.43111 7.51619C8.4312 7.51627 8.43103 7.51611 8.43111 7.51619L4.90744 3.99252C4.73317 3.81825 4.45144 3.81825 4.27718 3.99252C4.10314 4.16655 4.10265 4.44923 4.27732 4.6229C4.27726 4.62284 4.27738 4.62297 4.27732 4.6229L7.80008 8.14567Z" fill="#30404F"/>
<path d="M3.99533 3.71076C4.16995 3.53731 4.1703 3.25324 3.99577 3.07974L3.15988 2.24469C2.98566 2.07052 2.70404 2.07044 2.52978 2.24454C2.35509 2.41821 2.35558 2.7009 2.52962 2.87494L3.36484 3.71016C3.45194 3.79726 3.56638 3.84085 3.68038 3.84085C3.79388 3.84085 3.90786 3.79707 3.99533 3.71076Z" fill="#30404F"/>
<path d="M20.6317 18.5742C20.4986 18.4402 20.3309 18.3382 20.1497 18.2758C20.089 18.0938 19.9869 17.9286 19.8487 17.7912C19.7105 17.653 19.5462 17.5511 19.365 17.4903C19.306 17.3092 19.2023 17.1448 19.0641 17.0074C18.9276 16.8692 18.7632 16.7672 18.582 16.7074C18.5213 16.5245 18.4193 16.3618 18.2812 16.2237C18.143 16.0854 17.9786 15.9834 17.7957 15.9219C17.7334 15.7399 17.6313 15.5738 17.4974 15.439C17.4805 15.4247 17.4661 15.4103 17.4493 15.3951C18.1058 14.9274 18.8399 14.5599 19.6338 14.3164C19.7147 14.2919 19.7804 14.2354 19.8217 14.1605C19.8614 14.0855 19.8698 13.9986 19.8446 13.9178L19.37 12.3796C19.3186 12.2119 19.1399 12.1166 18.9714 12.1689C18.2171 12.3998 17.5049 12.7184 16.8433 13.1111L14.2391 10.3426L20.1732 4.78094C20.2322 4.72531 20.2702 4.64862 20.2735 4.56771L20.5221 0.532393C20.5272 0.442213 20.4943 0.352877 20.4286 0.287139C20.3646 0.222243 20.2735 0.188531 20.1833 0.194431L16.148 0.440528C16.0671 0.445585 15.9913 0.480982 15.9356 0.540821L10.4895 6.35191L5.44532 0.921765C5.39559 0.86867 5.32901 0.834114 5.25653 0.823158L0.841113 0.196116C0.742506 0.181789 0.642213 0.215501 0.571417 0.285453C0.500622 0.357091 0.466911 0.456541 0.481238 0.556834L1.10828 4.97226C1.11924 5.0439 1.1538 5.11048 1.20773 5.1602L6.76598 10.3248L4.15752 13.1086C3.49509 12.7159 2.78208 12.3973 2.02945 12.1663C1.8609 12.1141 1.68307 12.2094 1.63081 12.3771L1.15716 13.9152C1.13188 13.9961 1.1403 14.082 1.17992 14.1579C1.21953 14.2329 1.28695 14.2886 1.36786 14.3139C2.16009 14.5574 2.89502 14.9257 3.55071 15.3926C3.5347 15.4078 3.51953 15.4221 3.50436 15.4364C3.37035 15.5713 3.26753 15.7374 3.206 15.9194C3.02396 15.9809 2.85877 16.0828 2.72055 16.2211C2.58233 16.3593 2.48036 16.522 2.41967 16.7049C2.23847 16.7646 2.07413 16.8667 1.93591 17.0049C1.79853 17.1423 1.69655 17.3067 1.63587 17.4879C1.45467 17.5485 1.28948 17.6505 1.1521 17.7887C1.01389 17.9261 0.911903 18.0912 0.851226 18.2733C0.669182 18.3357 0.502307 18.4376 0.36746 18.5717C0.134848 18.8042 0 19.1279 0 19.4582C0 19.7887 0.134848 20.1106 0.36746 20.3441C0.600915 20.5775 0.923703 20.7115 1.25408 20.7124C1.58446 20.7115 1.90725 20.5784 2.13986 20.3441C2.27472 20.2101 2.37669 20.0432 2.43906 19.8611C2.6211 19.8013 2.78629 19.6993 2.92367 19.5611C3.06189 19.4229 3.16387 19.2586 3.22454 19.0773C3.40575 19.0167 3.5701 18.9155 3.70746 18.7773C3.84568 18.6399 3.94766 18.4756 4.00835 18.2944C4.18955 18.2329 4.35389 18.1308 4.49211 17.9934C4.63033 17.8562 4.73147 17.6918 4.79299 17.5089C4.97504 17.4465 5.14191 17.3445 5.27676 17.2106C5.29193 17.1945 5.30625 17.1785 5.32058 17.1633C5.78918 17.819 6.15664 18.5531 6.40021 19.3462C6.44235 19.4836 6.56877 19.5721 6.7053 19.5721C6.73649 19.5721 6.76767 19.567 6.79886 19.5569L8.33696 19.0832C8.41787 19.0588 8.48614 19.0024 8.52575 18.9273C8.56536 18.8531 8.57378 18.7664 8.5485 18.6838C8.31757 17.9311 7.999 17.219 7.60625 16.5566L10.5071 13.8385L13.3971 16.5566C13.0036 17.219 12.6841 17.9311 12.4541 18.6838C12.4296 18.7664 12.4363 18.8523 12.4751 18.9273C12.5163 19.0024 12.5838 19.058 12.6664 19.0832L14.2036 19.5569C14.2332 19.567 14.2643 19.5721 14.2956 19.5721C14.432 19.5721 14.5594 19.4836 14.6015 19.3462C14.8451 18.5539 15.2125 17.819 15.6794 17.1633C15.6946 17.1785 15.7089 17.1945 15.7241 17.2106C15.859 17.3445 16.025 17.4465 16.2079 17.5089C16.2686 17.6909 16.3705 17.8562 16.507 17.9934C16.6453 18.1308 16.8096 18.2329 16.9908 18.2944C17.0514 18.4756 17.1535 18.6399 17.2917 18.7764C17.4299 18.9138 17.5943 19.0167 17.7755 19.0773C17.8344 19.2586 17.9381 19.4229 18.0763 19.5611C18.2129 19.6993 18.3772 19.8013 18.5601 19.8611C18.6225 20.0432 18.7244 20.2101 18.8593 20.3441C19.0911 20.5766 19.4139 20.7115 19.745 20.7124C20.0763 20.7115 20.3982 20.5775 20.6309 20.3441C20.8643 20.1114 20.9983 19.7887 21 19.4574C21 19.1312 20.8652 18.8077 20.6317 18.5742ZM1.72352 4.76998L1.17233 0.887211L5.05511 1.43925L10.0529 6.81798L7.20256 9.85965L1.72352 4.76998ZM1.25408 20.0768C1.09143 20.0768 0.932134 20.0103 0.818357 19.8957C0.703737 19.7811 0.637998 19.6235 0.637998 19.4608C0.637998 19.2981 0.703737 19.1396 0.818357 19.0251C0.874829 18.9695 0.943092 18.9239 1.01894 18.8936L1.82129 19.6942C1.79011 19.7701 1.74543 19.8392 1.68897 19.8948C1.57435 20.0103 1.4159 20.0768 1.25408 20.0768ZM2.27303 19.2451L1.46984 18.4419C1.50018 18.3668 1.54485 18.2994 1.60216 18.2421C1.66031 18.184 1.72774 18.1393 1.80191 18.1081L2.60593 18.9113C2.57559 18.9863 2.53008 19.0537 2.47277 19.1118C2.41462 19.1701 2.34719 19.2138 2.27303 19.2451ZM3.05767 18.4604L2.2528 17.6564C2.28398 17.5822 2.32865 17.5157 2.38681 17.4574C2.44411 17.4002 2.51238 17.3546 2.58655 17.3251L3.39058 18.1292C3.35939 18.2026 3.31557 18.2699 3.25657 18.3272C3.19842 18.3854 3.13099 18.4309 3.05767 18.4604ZM3.84147 17.6766L3.03745 16.8726C3.06778 16.7984 3.11246 16.7318 3.1706 16.6736C3.22876 16.6155 3.29618 16.57 3.37035 16.5405L4.17354 17.3437C4.1432 17.4187 4.09853 17.4861 4.04038 17.5435C3.98306 17.6008 3.9148 17.6462 3.84147 17.6766ZM4.82502 16.7597C4.76855 16.8153 4.70029 16.8607 4.62444 16.8911L3.82209 16.0887C3.85243 16.0137 3.89794 15.9446 3.95357 15.889C3.98813 15.8554 4.02689 15.8258 4.06903 15.8006C4.37244 16.0593 4.65477 16.3416 4.91351 16.645C4.88907 16.6863 4.85957 16.7243 4.82502 16.7597ZM6.90926 18.8557C6.08163 16.4891 4.2241 14.6324 1.85837 13.8039L2.14407 12.8743C3.47822 13.3362 4.66826 14.0888 5.64085 15.0597C5.64254 15.0622 5.64422 15.0648 5.64591 15.0673C5.64759 15.0698 5.65012 15.0715 5.65349 15.074C6.62355 16.0458 7.37785 17.2358 7.83803 18.5699L6.90926 18.8557ZM6.32014 14.8456L8.14058 13.0252C8.26448 12.9004 8.26448 12.6982 8.14058 12.5743C8.0167 12.4495 7.81443 12.4495 7.68969 12.5743L5.86925 14.3947C5.506 14.0542 5.11662 13.7416 4.7045 13.4583L16.314 1.06926L19.8614 0.851813L19.644 4.40084L7.25649 16.0096C6.97331 15.5974 6.66063 15.208 6.32014 14.8456ZM10.9724 13.4019L13.7739 10.7774L16.2955 13.4583C15.8842 13.7416 15.494 14.0542 15.1299 14.3947L13.3095 12.5743C13.1848 12.4495 12.9816 12.4495 12.8586 12.5743C12.7339 12.6982 12.7339 12.9004 12.8586 13.0252L14.679 14.8456C14.3385 15.2088 14.0275 15.5983 13.7443 16.0096L10.9724 13.4019ZM14.0899 18.8557L13.1594 18.5699C13.6222 17.2366 14.3756 16.0458 15.344 15.074C15.3473 15.0715 15.3508 15.0698 15.3524 15.0673C15.3541 15.0648 15.3575 15.0622 15.3575 15.0597C16.3301 14.0896 17.5218 13.337 18.8551 12.8743L19.1399 13.8039C16.7751 14.6333 14.9183 16.4899 14.0899 18.8557ZM16.1741 16.7597C16.1396 16.7243 16.1101 16.6863 16.0856 16.6442C16.3444 16.3416 16.6275 16.0584 16.9301 15.7997C16.9714 15.825 17.0111 15.8544 17.0456 15.8882C17.1013 15.9438 17.1475 16.0129 17.1771 16.0879L16.3756 16.8903C16.2989 16.8607 16.2297 16.8161 16.1741 16.7597ZM16.9571 17.5435C16.9015 17.4861 16.8551 17.4187 16.8256 17.3437L17.6271 16.5405C17.7029 16.57 17.7704 16.6155 17.8277 16.6736C17.8867 16.7318 17.9314 16.7984 17.9608 16.8726L17.156 17.6766C17.0843 17.6462 17.0169 17.6008 16.9571 17.5435ZM17.7426 18.3272C17.6835 18.2699 17.6389 18.2026 17.6094 18.1292L18.4126 17.3251C18.4868 17.3546 18.5542 17.4002 18.6132 17.4574C18.6688 17.5157 18.7152 17.5822 18.7447 17.6564L17.9415 18.4604C17.8682 18.4309 17.7999 18.3854 17.7426 18.3272ZM18.5264 19.1118C18.4691 19.0537 18.4244 18.9863 18.3933 18.9113L19.1981 18.1081C19.2706 18.1393 19.3397 18.184 19.397 18.2421C19.4543 18.2994 19.499 18.3668 19.5301 18.4419L18.727 19.2451C18.6528 19.2138 18.5854 19.1701 18.5264 19.1118ZM20.1808 19.8957C20.0671 20.0103 19.9094 20.0768 19.7459 20.0768C19.5849 20.0768 19.4248 20.0103 19.3111 19.8957C19.2554 19.84 19.209 19.7709 19.1796 19.6951L19.9794 18.8944C20.0552 18.9247 20.1243 18.9703 20.18 19.0259C20.2955 19.1406 20.3612 19.2989 20.3612 19.4608C20.362 19.6235 20.2955 19.7811 20.1808 19.8957Z" fill="#30404F"/>
</svg>
