<svg width="21" height="19" viewBox="0 0 21 19" fill="none" xmlns="http://www.w3.org/2000/svg">
<path fill-rule="evenodd" clip-rule="evenodd" d="M2.37551 0.314697H21L18.6245 18.9228H0L2.37551 0.314697ZM3.58893 1.69226L1.53225 17.6382H17.1577L19.4013 1.69226H3.58893Z" fill="#CBCDD8"/>
<path d="M9.26481 6.70658H12.0888L12.6183 4.05908H14.1186L13.5891 6.70658H14.7363V8.07601L13.2911 8.06232L12.883 10.7239H14.7362L14.7363 12.0898H12.6183L12.0888 14.7373H10.5886L11.1181 12.0898L8.29406 12.0898L7.76456 14.7373L6.26431 14.7373L6.79381 12.0898H5.64656L5.64648 10.7239H7.14673L7.54705 8.08737L5.64656 8.07601V6.70658H7.76456L8.29406 4.05908H9.79431L9.26481 6.70658ZM8.55873 10.8122H11.3827L11.8301 8.16251L8.94132 8.15416L8.55873 10.8122Z" fill="#CBCDD8"/>
</svg>
