<svg width="21" height="21" viewBox="0 0 21 21" fill="none" xmlns="http://www.w3.org/2000/svg">
<path d="M7.89147 6.45183C8.16136 6.45183 8.25133 6.36186 8.34129 6.18194C8.52121 5.19234 9.33088 4.5626 10.3205 4.5626C10.4104 4.5626 10.5904 4.5626 10.6803 4.5626C10.8603 4.5626 11.0402 4.47264 11.1302 4.29271C11.1302 4.11278 11.0402 3.93286 10.8603 3.84289C10.6803 3.84289 10.5004 3.75293 10.3205 3.75293C9.06099 3.75293 7.89147 4.65256 7.62158 5.91205C7.62158 6.00201 7.62158 6.09197 7.71155 6.18194C7.71155 6.45183 7.80151 6.45183 7.89147 6.45183Z" fill="#30404F"/>
<path d="M13.3794 12.1194H7.62171C5.37263 12.1194 3.4834 14.0086 3.4834 16.2577C3.4834 16.4376 3.66332 16.6175 3.84325 16.6175C4.02318 16.6175 4.2031 16.4376 4.2031 16.2577C4.2031 14.3685 5.73248 12.8391 7.62171 12.8391H13.3794C15.2686 12.8391 16.798 14.3685 16.798 16.2577C16.798 16.4376 16.9779 16.6175 17.1578 16.6175C17.3377 16.6175 17.5177 16.4376 17.5177 16.2577C17.5177 13.9186 15.6284 12.1194 13.3794 12.1194Z" fill="#30404F"/>
<path d="M7.53183 7.80123C7.53183 7.98116 7.71175 8.07112 7.89168 8.07112H7.98164C8.16157 8.07112 8.25153 7.80123 8.25153 7.62131C8.25153 7.53134 8.25153 7.17149 8.25153 6.99156C8.25153 6.9016 8.25153 6.81164 8.16157 6.72167C8.07161 6.63171 7.98164 6.54175 7.89168 6.54175C7.71175 6.54175 7.53183 6.72167 7.53183 6.9016C7.44186 6.99156 7.44186 7.53134 7.53183 7.80123Z" fill="#30404F"/>
<path d="M5.64244 8.97065H6.27218C6.45211 8.97065 6.54207 8.88069 6.63203 8.79073C7.26178 10.2301 8.79115 11.3097 10.5005 11.3097C12.2098 11.3097 13.6492 10.3201 14.3689 8.79073C14.4588 8.88069 14.5488 8.88069 14.6388 8.88069H15.2685C15.6284 8.88069 15.8983 8.6108 15.8983 8.25095V6.27176C15.8983 5.9119 15.6284 5.64201 15.2685 5.64201H14.6388C14.5488 5.64201 14.4588 5.64201 14.4588 5.64201C13.8291 4.02267 12.2997 2.94312 10.5005 2.94312C8.70119 2.94312 7.17181 4.11264 6.54207 5.64201C6.45211 5.64201 6.36214 5.55205 6.27218 5.55205H5.64244C5.28258 5.64201 5.0127 5.9119 5.0127 6.27176V8.43087C5.0127 8.70076 5.28258 8.97065 5.64244 8.97065ZM10.5005 3.66282C12.4796 3.66282 14.009 5.28216 14.009 7.17139C14.009 7.26135 14.009 7.44128 14.009 7.53124C13.8291 7.53124 13.7391 7.71117 13.7391 7.80113C13.7391 8.16099 13.5592 8.52084 13.2893 8.70077C13.1094 8.88069 12.8395 8.97065 12.4796 8.97065C12.3897 8.70077 12.0298 8.43087 11.7599 8.43087C11.3101 8.43087 10.9503 8.79073 10.9503 9.24054C10.9503 9.69036 11.3101 10.0502 11.7599 10.0502C12.0298 10.0502 12.2997 9.87029 12.4796 9.69036C12.6596 9.69036 12.8395 9.69036 13.0194 9.6004C12.3897 10.2301 11.4901 10.59 10.5904 10.59C8.61123 10.59 7.08185 8.97065 7.08185 7.08143C6.99189 5.1922 8.61123 3.66282 10.5005 3.66282Z" fill="#30404F"/>
<path fill-rule="evenodd" clip-rule="evenodd" d="M10.5 1.02815C5.26884 1.02815 1.02815 5.26884 1.02815 10.5C1.02815 15.7312 5.26884 19.9718 10.5 19.9718C15.7312 19.9718 19.9718 15.7312 19.9718 10.5C19.9718 5.26884 15.7312 1.02815 10.5 1.02815ZM0 10.5C0 4.70101 4.70101 0 10.5 0C16.299 0 21 4.70101 21 10.5C21 16.299 16.299 21 10.5 21C4.70101 21 0 16.299 0 10.5Z" fill="#30404F"/>
</svg>
