<svg width="21" height="21" viewBox="0 0 21 21" fill="none" xmlns="http://www.w3.org/2000/svg">
<path d="M6.6809 5.7989C6.71412 5.80637 6.74735 5.80969 6.78307 5.80969C7.02147 5.80969 7.2283 5.63941 7.27482 5.40599C7.54894 4.03374 8.76337 3.03777 10.1613 3.03777C10.3541 3.03777 10.5484 3.05688 10.7387 3.09509C11.0153 3.15406 11.2753 2.968 11.3301 2.70052C11.3824 2.42973 11.2063 2.16557 10.9355 2.11158C10.6805 2.06091 10.4205 2.03516 10.163 2.03516C8.28657 2.03516 6.65847 3.37004 6.29131 5.20912C6.26473 5.34037 6.29131 5.47411 6.36524 5.58625C6.43917 5.69672 6.55214 5.77315 6.6809 5.7989Z" fill="#434B56"/>
<path d="M14.6735 13.8794H6.39266C3.11819 13.8794 0.455078 16.5434 0.455078 19.817C0.455078 20.0936 0.680187 20.3187 0.956798 20.3187C1.23341 20.3187 1.45852 20.0936 1.45852 19.817C1.45852 17.0966 3.67224 14.8829 6.39266 14.8829H14.6735C17.3939 14.8829 19.6068 17.0966 19.6068 19.817C19.6068 20.0936 19.8319 20.3187 20.1085 20.3187C20.3852 20.3187 20.6103 20.0936 20.6103 19.817C20.6103 16.5434 17.9472 13.8794 14.6735 13.8794Z" fill="#434B56"/>
<path d="M6.1873 7.65139C6.24046 7.879 6.44065 8.03765 6.67407 8.03765C6.71145 8.03765 6.75049 8.0335 6.79036 8.02436C7.05867 7.9604 7.22563 7.6896 7.16333 7.42047C7.12263 7.2452 7.14256 6.76009 7.1733 6.47684C7.18825 6.34393 7.15004 6.21269 7.06614 6.10802C6.98225 6.00336 6.86263 5.93857 6.73222 5.92362C6.45477 5.89371 6.20724 6.09307 6.1765 6.36885C6.1549 6.56987 6.09343 7.25434 6.1873 7.65139Z" fill="#434B56"/>
<path d="M3.53731 9.4272H4.43276C4.63711 9.4272 4.8157 9.34663 4.96771 9.232C5.913 11.3685 8.04947 12.8645 10.5323 12.8645C12.9911 12.8645 15.1084 11.3959 16.0678 9.29263C16.2007 9.37072 16.3469 9.42803 16.5122 9.42803H17.4077C17.9036 9.42803 18.3073 9.02433 18.3073 8.52842V5.43088C18.3073 4.93497 17.9036 4.53127 17.4077 4.53127H16.5122C16.4034 4.53127 16.3013 4.55785 16.2041 4.59357C15.3236 2.31589 13.1165 0.693604 10.5323 0.693604C7.92985 0.693604 5.70949 2.33832 4.84145 4.64175C4.71685 4.57696 4.58228 4.53127 4.43276 4.53127H3.53731C3.0414 4.53127 2.6377 4.93497 2.6377 5.43088V8.52759C2.6377 9.0235 3.0414 9.4272 3.53731 9.4272ZM10.5315 1.69705C13.3275 1.69705 15.6027 3.96808 15.6118 6.76243V6.79483C15.611 6.98339 15.5985 7.16863 15.5777 7.35137C15.346 7.38294 15.1566 7.56402 15.1383 7.7991C15.0943 8.31744 14.8526 8.78676 14.4563 9.12152C14.1374 9.38982 13.7544 9.53934 13.3449 9.56924C13.1721 9.15142 12.761 8.85571 12.2808 8.85571C11.647 8.85571 11.1312 9.37155 11.1312 10.0053C11.1312 10.64 11.647 11.1567 12.2808 11.1567C12.7053 11.1567 13.0716 10.9232 13.2718 10.581C13.5302 10.5752 13.7818 10.5295 14.0269 10.4581C13.1148 11.3245 11.8863 11.8602 10.5315 11.8602C7.72883 11.8602 5.44949 9.58087 5.44949 6.77905C5.44949 3.97639 7.72967 1.69705 10.5315 1.69705Z" fill="#434B56"/>
</svg>
