<svg width="21" height="21" viewBox="0 0 21 21" fill="none" xmlns="http://www.w3.org/2000/svg">
<path d="M10.4588 0C7.69586 0.00861719 5.07518 1.12205 3.08015 3.13345C1.07994 5.15003 -0.0136591 7.78795 0.000128802 10.5612C0.0302921 16.2197 4.8356 21 10.4932 21H10.4949C13.2621 21 15.8905 19.8934 17.896 17.8846C19.9022 15.8759 21.0036 13.2465 21.001 10.4802C20.995 4.79928 16.1827 0 10.4588 0ZM10.4553 1.3013L10.4838 1.08671V1.3013C15.6148 1.3013 19.6601 5.33273 19.6945 10.4784C19.71 12.9216 18.7681 15.2286 17.0411 16.9737C15.3166 18.7172 13.0242 19.6831 10.5406 19.6935C8.04661 19.6935 5.71979 18.7421 3.98761 17.0143C2.25456 15.2864 1.30142 12.9647 1.30314 10.4776C1.30487 5.4327 5.41128 1.31681 10.4553 1.3013Z" fill="#30404F"/>
<path d="M7.1626 14.0314C7.17208 14.6502 7.37891 14.9639 7.77792 14.9639C7.95027 14.9639 8.14848 14.9019 8.40099 14.7657C10.6485 13.5566 12.8857 12.3285 15.1212 11.0988C15.4849 10.8997 15.6684 10.6679 15.6684 10.4129C15.6684 10.1534 15.4797 9.9173 15.1065 9.71219C12.8711 8.48328 10.6339 7.25438 8.38892 6.04184C7.56764 5.59889 7.17466 5.9031 7.16174 6.79678C7.14967 7.63012 7.15226 8.46519 7.15571 9.30025L7.15743 10.3706L7.15485 11.4539C7.15313 12.3131 7.14967 13.1722 7.1626 14.0314ZM8.50613 13.217V7.60513L13.6674 10.4103L8.50613 13.217Z" fill="#30404F"/>
</svg>
