<svg width="21" height="21" viewBox="0 0 21 21" fill="none" xmlns="http://www.w3.org/2000/svg">
<path d="M9.47247 14.2295L8.29088 13.1533L7.81104 12.7163L6.63202 11.6435L6.15133 11.2065L4.34853 13.1302C3.67505 12.7309 2.95015 12.407 2.18499 12.1722C2.01448 12.1191 1.83368 12.2159 1.7797 12.3864L1.29815 13.9502C1.27245 14.0324 1.28016 14.1198 1.32043 14.1969C1.3607 14.2732 1.42925 14.3289 1.51236 14.3555C2.31694 14.6031 3.06497 14.9784 3.7316 15.4522C3.71446 15.4676 3.69989 15.4822 3.68361 15.4968C3.54823 15.6339 3.4437 15.8027 3.38029 15.9877C3.19521 16.0503 3.02727 16.154 2.88675 16.2945C2.74622 16.4342 2.64254 16.5995 2.58171 16.7855C2.39663 16.8463 2.2304 16.95 2.08988 17.0905C1.95021 17.2302 1.84653 17.3964 1.78484 17.5815C1.60062 17.6423 1.43268 17.746 1.29301 17.8865C1.15249 18.0262 1.04967 18.1941 0.987974 18.3792C0.802895 18.4426 0.633239 18.5463 0.496144 18.6825C0.259654 18.919 0.122559 19.2481 0.122559 19.5848C0.122559 19.9207 0.258797 20.2471 0.496144 20.4853C0.73349 20.7227 1.06166 20.8589 1.39755 20.8598C1.73429 20.8589 2.0616 20.7244 2.29895 20.4853C2.43519 20.3491 2.53887 20.1794 2.60227 19.9944C2.78735 19.9335 2.95529 19.8307 3.09496 19.6902C3.23548 19.5497 3.33916 19.3826 3.4 19.1984C3.58508 19.1367 3.7513 19.0338 3.89097 18.8933C4.03149 18.7536 4.13517 18.5874 4.19686 18.4032C4.38109 18.3407 4.54817 18.237 4.68869 18.0973C4.82836 17.9576 4.93118 17.7906 4.99373 17.6046C5.17881 17.5412 5.34847 17.4384 5.48556 17.3013C5.50099 17.2842 5.51555 17.2687 5.53012 17.2525C6.00653 17.9191 6.38011 18.6654 6.62774 19.4725C6.67058 19.6114 6.79911 19.7022 6.93792 19.7022C6.96876 19.7022 7.00047 19.697 7.03217 19.6868L8.59592 19.2044C8.67817 19.1795 8.74758 19.1221 8.78785 19.0458C8.82898 18.9696 8.83755 18.8822 8.81098 18.7982C8.57621 18.0322 8.25232 17.309 7.85303 16.6355L9.95316 14.6691L9.47247 14.2295Z" fill="#434B56"/>
<path d="M20.4912 18.6834C20.3541 18.548 20.1835 18.4443 19.9993 18.38C19.9376 18.195 19.834 18.027 19.6934 17.8874C19.5546 17.7468 19.3858 17.6431 19.2016 17.5823C19.1399 17.3972 19.0362 17.231 18.8974 17.0913C18.7569 16.9508 18.5898 16.8471 18.4056 16.7863C18.3439 16.6004 18.2402 16.435 18.0997 16.2953C17.9592 16.1548 17.7921 16.0511 17.6061 15.9886C17.5445 15.8035 17.4391 15.6347 17.3028 15.4976C17.2874 15.483 17.2728 15.4685 17.2557 15.453C17.9215 14.9784 18.6695 14.6039 19.4749 14.3563C19.5572 14.3306 19.6257 14.274 19.666 14.1978C19.7063 14.1207 19.7148 14.0333 19.6891 13.951L19.2067 12.3872C19.1528 12.2167 18.9728 12.1199 18.8015 12.173C18.0363 12.4078 17.3122 12.7317 16.6379 13.131L13.9868 10.3008L13.5413 9.82699L10.6443 6.73549L10.2004 6.2608L4.66262 0.352838C4.60607 0.291145 4.52895 0.256014 4.44669 0.250873L0.344968 0.000673562C0.253285 -0.00532437 0.159032 0.0289495 0.0956256 0.0949267C0.0287916 0.161761 -0.00462544 0.252587 0.000515642 0.344269L0.253285 4.44685C0.256713 4.52911 0.294414 4.60708 0.35525 4.66363L6.38831 10.318L10.1824 13.8722L13.1308 16.6355C12.7324 17.309 12.4077 18.033 12.1737 18.7982C12.1472 18.8821 12.1557 18.9695 12.1969 19.0458C12.2371 19.1221 12.3057 19.1786 12.388 19.2043L13.9526 19.6867C13.9843 19.697 14.016 19.7022 14.0459 19.7022C14.1848 19.7022 14.3141 19.6122 14.357 19.4725C14.6046 18.6662 14.9782 17.9191 15.4546 17.2524C15.4683 17.2687 15.4829 17.2841 15.4983 17.3013C15.6354 17.4375 15.8059 17.5403 15.9901 17.6046C16.0535 17.7905 16.1555 17.9576 16.296 18.0973C16.4366 18.2369 16.6036 18.3406 16.7879 18.4032C16.8496 18.5874 16.9532 18.7536 17.0938 18.8933C17.2326 19.0338 17.3996 19.1366 17.5839 19.1983C17.6456 19.3825 17.7492 19.5496 17.8898 19.6902C18.0286 19.8307 18.1974 19.9335 18.3816 19.9943C18.445 20.1794 18.5487 20.3491 18.6858 20.4853C18.9214 20.7235 19.2496 20.8589 19.5863 20.8598C19.9231 20.8589 20.2504 20.7235 20.4886 20.4853C20.7242 20.248 20.8622 19.9206 20.8622 19.5848C20.8639 19.2489 20.7268 18.9207 20.4912 18.6834ZM2.17605 2.17621C2.30286 2.05025 2.50936 2.05025 2.63618 2.17621L4.11424 3.65341C4.23934 3.78022 4.23934 3.98672 4.11424 4.11268C4.04997 4.17609 3.96686 4.20779 3.8846 4.20779C3.80063 4.20779 3.71752 4.17609 3.65497 4.11268L2.17605 2.63462C2.05009 2.50695 2.05009 2.30216 2.17605 2.17621ZM11.9707 11.9691C11.9073 12.0334 11.825 12.0651 11.741 12.0651C11.6588 12.0651 11.5757 12.0334 11.5114 11.9691L10.7737 11.2322C10.6468 11.1063 10.6468 10.8989 10.7737 10.773C10.9005 10.6461 11.1053 10.6461 11.2321 10.773L11.9698 11.5116C12.0983 11.6384 12.0983 11.844 11.9707 11.9691ZM4.72945 4.7279C4.85455 4.60108 5.06105 4.60108 5.18787 4.7279L10.2236 9.7653C10.3504 9.8904 10.3504 10.0969 10.2236 10.2229C10.1619 10.2863 10.0779 10.3171 9.99563 10.3171C9.91166 10.3171 9.82855 10.2863 9.766 10.2229L4.72945 5.18545C4.60264 5.0595 4.60264 4.85471 4.72945 4.7279Z" fill="#434B56"/>
<path d="M20.8904 0.0949267C20.8262 0.0289495 20.7328 -0.00532437 20.6411 0.000673562L16.5394 0.250873C16.4571 0.256014 16.38 0.292001 16.3234 0.352838L11.0581 5.96947L11.5062 6.43988L12.7658 7.76028L15.7973 4.7279C15.9241 4.60108 16.1306 4.60108 16.2557 4.7279C16.3826 4.85385 16.3826 5.0595 16.2557 5.18545L13.2131 8.22897L14.4701 9.5468L14.9182 10.0172L20.6308 4.66363C20.6908 4.60708 20.7293 4.52911 20.7328 4.44685L20.9855 0.344269C20.9907 0.252587 20.9573 0.161761 20.8904 0.0949267ZM18.81 2.63462L17.3302 4.11268C17.2685 4.17609 17.1846 4.20779 17.1006 4.20779C17.0183 4.20779 16.9352 4.17609 16.871 4.11268C16.7459 3.98672 16.7459 3.78022 16.871 3.65341L18.349 2.17621C18.4758 2.05025 18.6823 2.05025 18.8091 2.17621C18.9351 2.30216 18.9351 2.50695 18.81 2.63462Z" fill="#434B56"/>
</svg>
