<svg width="22" height="21" viewBox="0 0 22 21" fill="none" xmlns="http://www.w3.org/2000/svg">
<path d="M5.618 17.6294C5.47703 17.369 5.29972 17.1303 5.08523 16.9158C4.86122 16.6918 4.60694 16.5076 4.33364 16.364C4.00757 16.1919 4.26531 15.8226 4.26531 15.8226C4.5983 15.3149 4.9036 14.8038 5.15442 14.3601L3.46615 12.6727H1.82718C1.51236 12.6727 1.25635 12.4175 1.25635 12.1018C1.25635 11.787 1.51149 11.531 1.82718 11.531H3.70227C3.85362 11.531 3.99892 11.5924 4.10617 11.6988L10.2763 17.8629C10.3844 17.9701 10.4441 18.1154 10.4441 18.2668V20.1505C10.4441 20.4671 10.189 20.7214 9.87328 20.7214C9.55759 20.7214 9.30159 20.4671 9.30159 20.1505V18.5046L7.62023 16.8259C7.16616 17.0931 6.63858 17.4218 6.11532 17.7825C6.11532 17.7816 5.81607 17.9944 5.618 17.6294Z" fill="#434B56"/>
<path d="M2.91886 17.1604C2.40512 17.1604 1.92337 17.3602 1.55925 17.7234C1.19686 18.085 0.99707 18.5676 0.99707 19.0805C0.99707 19.5933 1.19686 20.0751 1.55925 20.4366C1.92251 20.799 2.40598 20.9997 2.91886 20.9997C3.43175 20.9997 3.91436 20.799 4.27761 20.4366C4.64087 20.0751 4.84066 19.5933 4.84066 19.0805C4.84066 18.5676 4.64087 18.085 4.27761 17.7234C3.91436 17.3602 3.43261 17.1604 2.91886 17.1604Z" fill="#434B56"/>
<path d="M8.29407 13.2012C8.04066 13.4546 7.62637 13.4546 7.37382 13.2029L6.73726 12.5655C6.48471 12.3138 6.48471 11.8987 6.73726 11.6461L17.6064 0.788271C17.8589 0.535722 18.3571 0.301336 18.7143 0.269335L21.3773 0.0271648C21.7345 -0.00570115 21.9992 0.259821 21.9663 0.616157L21.7259 3.27484C21.6939 3.63204 21.4595 4.13022 21.2069 4.38277L10.3369 15.2415C10.0844 15.4949 9.67012 15.4949 9.4167 15.2415L8.77928 14.6041C8.52673 14.3524 8.52673 13.939 8.77928 13.6847L17.8797 4.59294C18.0129 4.45974 18.0137 4.24265 17.8797 4.1086C17.7465 3.97454 17.5294 3.97454 17.3945 4.1086L8.29407 13.2012Z" fill="#434B56"/>
</svg>
