<svg width="21" height="18" viewBox="0 0 21 18" fill="none" xmlns="http://www.w3.org/2000/svg">
<path d="M0 5.86925C0 4.83507 2.18298 3.99943 4.88098 3.99943C7.57897 3.99943 9.76196 4.83424 9.76196 5.86925C9.76196 6.89595 7.57814 7.73243 4.88098 7.73243C2.18298 7.73243 0 6.89678 0 5.86925ZM16.0875 4.17885C18.7838 4.17885 20.9684 3.34569 20.9684 2.31733C20.9684 1.28233 18.7838 0.44751 16.0875 0.44751C13.3961 0.44751 11.2056 1.28233 11.2056 2.31733C11.2056 3.34569 13.3961 4.17885 16.0875 4.17885ZM16.0875 5.85679C18.7838 5.85679 20.9684 5.02197 20.9684 3.99361C20.9684 3.84658 20.9203 3.7062 20.8339 3.57246C20.3405 4.39233 18.4042 5.0145 16.0875 5.0145C13.7774 5.0145 11.8394 4.3915 11.3386 3.57246C11.2522 3.7062 11.2056 3.84658 11.2056 3.99361C11.2056 5.02197 13.3886 5.85679 16.0875 5.85679ZM16.0875 7.81134C18.7838 7.81134 20.9684 6.97901 20.9684 5.95065C20.9684 5.80363 20.9203 5.66324 20.8339 5.52286C20.3405 6.35103 18.4042 6.97237 16.0875 6.97237C13.7774 6.97237 11.8394 6.35103 11.3386 5.52286C11.2522 5.66324 11.2056 5.80363 11.2056 5.95065C11.2056 6.97818 13.3886 7.81134 16.0875 7.81134ZM4.88098 9.40953C7.57897 9.40953 9.76196 8.57389 9.76196 7.54553C9.76196 7.3985 9.71544 7.25812 9.62822 7.11773C9.12733 7.94508 7.1977 8.56724 4.88015 8.56724C2.5626 8.56724 0.632966 7.94508 0.12543 7.11773C0.0465171 7.25895 0 7.39933 0 7.54636C0 8.57472 2.18298 9.40953 4.88098 9.40953ZM4.88098 10.5235C2.56343 10.5235 0.633796 9.90378 0.133737 9.07644C0.0465172 9.21599 0 9.35554 0 9.50423C0 10.5301 2.18298 11.3666 4.88098 11.3666C5.54136 11.3666 6.16934 11.3201 6.74416 11.2229C7.466 10.3972 8.51347 9.86972 9.68221 9.83733C9.73538 9.7227 9.76279 9.61554 9.76279 9.50423C9.76279 9.35554 9.71627 9.21599 9.6357 9.07644C9.12816 9.90378 7.19853 10.5235 4.88098 10.5235ZM0.133737 11.0991C0.0465172 11.2387 0 11.3799 0 11.5261C0 12.5544 2.18298 13.3884 4.88098 13.3884C5.18832 13.3884 5.48819 13.376 5.77643 13.356C5.81631 13.0553 5.8894 12.7687 5.98991 12.4946C5.63605 12.527 5.26225 12.5469 4.88181 12.5469C2.56426 12.5411 0.633796 11.9264 0.133737 11.0991ZM16.0875 9.83733C18.7838 9.83733 20.9684 9.00334 20.9684 7.97332C20.9684 7.8238 20.9203 7.68508 20.8339 7.54553C20.3405 8.37287 18.4042 8.99586 16.0875 8.99586C13.7774 8.99586 11.8394 8.37287 11.3386 7.54553C11.2522 7.68508 11.2056 7.8238 11.2056 7.97332C11.2056 9.00334 13.3886 9.83733 16.0875 9.83733ZM16.0875 10.9321C13.7774 10.9321 11.8394 10.3083 11.3386 9.48263C11.2522 9.62302 11.2056 9.76423 11.2056 9.90378C11.2056 9.97023 11.2181 10.0292 11.2314 10.0898C11.9117 10.3515 12.5131 10.7859 12.9683 11.3466C13.8164 11.6133 14.9038 11.7736 16.0875 11.7736C18.7838 11.7736 20.9684 10.9396 20.9684 9.90461C20.9684 9.76506 20.9203 9.62385 20.8413 9.48346C20.3405 10.3083 18.4042 10.9321 16.0875 10.9321ZM16.0875 12.9498C15.2186 12.9498 14.4037 12.8634 13.6968 12.7081C13.7832 12.9889 13.8364 13.2829 13.8638 13.5903C14.5308 13.7223 15.285 13.7979 16.0875 13.7979C18.7838 13.7979 20.9684 12.9615 20.9684 11.9264C20.9684 11.7869 20.9203 11.6407 20.8413 11.5061C20.3405 12.3351 18.4042 12.9498 16.0875 12.9498ZM9.78854 10.663C7.986 10.663 6.5232 12.1275 6.5232 13.9308C6.5232 15.7334 7.98517 17.1962 9.78854 17.1962C11.5919 17.1962 13.0547 15.7334 13.0547 13.9308C13.0555 12.1275 11.5927 10.663 9.78854 10.663Z" fill="#30404F"/>
</svg>
