<svg width="22" height="22" viewBox="0 0 22 22" fill="none" xmlns="http://www.w3.org/2000/svg">
<path d="M21.0225 7.35514C19.6151 8.74512 18.3373 9.98483 17.1706 11.1494C17.0039 12.5018 16.8928 13.6852 16.6891 14.8498C16.4669 16.0519 15.7262 16.8596 14.7262 17.5546C13.4299 18.4562 12.5225 19.7147 11.9854 21.2174C11.9114 21.424 11.8928 21.6682 11.8373 21.95C10.9669 21.95 10.078 21.95 9.18913 21.95C8.81876 20.0716 7.70765 18.7004 6.28172 17.517C5.63357 16.9911 4.78172 16.6342 4.50394 15.7138C4.35579 15.2442 4.17061 14.7746 4.11505 14.305C3.98542 13.3471 3.92987 12.3891 3.81876 11.2621C2.67061 10.0975 1.39283 8.82025 0.0224609 7.43027C1.37431 7.43027 2.57802 7.43027 3.83728 7.43027C4.00394 6.54745 3.89283 5.72097 3.91135 4.89449C3.92987 4.04924 3.91135 3.20398 3.91135 2.2648C5.31876 3.50451 6.41135 4.95085 7.96691 6.02151C8.78172 4.34977 9.59654 2.7156 10.4669 0.949951C11.4299 2.65925 12.1521 4.36856 13.0595 6.04029C14.5965 4.96963 15.6706 3.48573 17.0965 2.2648C17.0965 3.99288 17.0965 5.64584 17.0965 7.35514C18.3558 7.35514 19.578 7.35514 21.0225 7.35514ZM5.30024 10.1163C5.30024 10.4356 5.2632 10.6047 5.30024 10.7362C5.61505 11.8632 5.92987 12.9714 6.63357 13.9669C7.13357 14.6807 7.74468 15.1315 8.54098 15.3945C9.0595 15.5635 9.2632 15.4133 9.30024 14.8686C9.31876 14.4741 9.2632 14.0609 9.31876 13.6664C9.41135 12.9902 9.0595 12.5957 8.57802 12.2576C7.52246 11.5814 6.50394 10.9052 5.30024 10.1163ZM15.6336 10.1351C14.2632 11.1494 12.8373 11.882 11.7076 12.9339C11.7076 13.6664 11.6891 14.305 11.7076 14.9437C11.7262 15.4321 11.9669 15.6199 12.4113 15.4508C13.1706 15.1691 13.8188 14.7559 14.3188 14.0421C15.0225 13.0466 15.3373 11.9383 15.6706 10.8113C15.7262 10.6235 15.6706 10.4356 15.6336 10.1351Z" fill="#2646E4"/>
</svg>
