<svg width="21" height="21" viewBox="0 0 21 21" fill="none" xmlns="http://www.w3.org/2000/svg">
<path d="M19.9452 3.30808H19.2549C19.1995 3.30808 19.144 3.31391 19.0886 3.32461C18.304 1.53572 16.5093 0.348633 14.5503 0.348633C12.9072 0.348633 11.3711 1.17599 10.4514 2.53225C9.53265 1.17599 7.99556 0.348633 6.3525 0.348633C4.39348 0.348633 2.59875 1.53572 1.81417 3.32461C1.75875 3.31391 1.70333 3.30808 1.64792 3.30808H0.957638C0.429721 3.30808 0 3.7378 0 4.26572V6.65447C0 7.18239 0.429721 7.61211 0.957638 7.61211H1.64792C1.74806 7.61211 1.84625 7.59461 1.9425 7.55961C2.35472 8.35197 3.00417 9.02669 3.8325 9.51961L4.2 9.73836V8.24503L4.10667 8.17211C3.21125 7.47211 2.69695 6.42697 2.69695 5.306C2.69695 3.29058 4.33611 1.65044 6.35153 1.65044C7.99459 1.65044 9.44029 2.76752 9.86806 4.36586L9.92056 4.56322L10.1238 4.54572C10.1267 4.54572 10.2531 4.53502 10.396 4.53114L10.5088 4.53697C10.5904 4.54183 10.6808 4.54669 10.7995 4.54669H10.9861L11.0347 4.36586C11.4625 2.76752 12.9082 1.65044 14.5513 1.65044C16.5667 1.65044 18.2058 3.29058 18.2058 5.306C18.2058 6.42794 17.6925 7.47211 16.7961 8.17211L16.7028 8.24503V9.73739L17.0693 9.51961C17.8986 9.02767 18.5481 8.35392 18.9603 7.55961C19.0565 7.59461 19.1557 7.61211 19.2549 7.61211H19.9452C20.4731 7.61211 20.9028 7.18239 20.9028 6.65447V4.26572C20.9028 3.7378 20.4731 3.30808 19.9452 3.30808Z" fill="#30404F"/>
<path d="M10.4981 13.4583C8.64215 13.4583 7.13326 11.9475 7.13326 10.0915C7.13326 8.23554 8.64215 6.72762 10.4981 6.72762C12.3512 6.72762 13.8581 8.23262 13.862 10.0847V10.0983C13.862 10.1955 13.8416 10.285 13.8348 10.3783H13.8328C13.6384 10.3783 13.479 10.5358 13.479 10.7293C13.479 11.368 13.0065 11.894 12.393 11.9873C12.288 11.6821 12.0031 11.4575 11.6609 11.4575C11.2283 11.4575 10.8773 11.8094 10.8773 12.2411C10.8773 12.6737 11.2283 13.0247 11.6609 13.0247C11.9166 13.0247 12.1344 12.8944 12.2773 12.7029C12.4085 12.698 12.533 12.6825 12.6555 12.6543C12.0702 13.1472 11.3235 13.4583 10.4981 13.4583ZM5.10326 12.1555H5.79353C5.94617 12.1555 6.08034 12.0972 6.19701 12.0136C6.93492 13.6576 8.58284 14.8068 10.4981 14.8068C12.393 14.8068 14.0273 13.679 14.7749 12.0612C14.876 12.1157 14.9859 12.1555 15.1094 12.1555H15.7987C16.1924 12.1555 16.5142 11.8357 16.5142 11.44V9.0522C16.5142 8.65943 16.1944 8.33762 15.7997 8.33762H15.1103C15.0287 8.33762 14.9577 8.35901 14.8867 8.38332C14.2003 6.62748 12.4941 5.37817 10.4981 5.37817C8.49048 5.37817 6.77742 6.64012 6.09881 8.41151C6.00645 8.36776 5.90437 8.33762 5.79451 8.33762H5.10326C4.70951 8.33762 4.38867 8.65748 4.38867 9.0522V11.44C4.38964 11.8347 4.70951 12.1555 5.10326 12.1555Z" fill="#30404F"/>
<path d="M15.4597 2.4766C15.5024 2.25785 15.3585 2.04202 15.1398 1.99827C14.9415 1.9584 14.7392 1.93799 14.5409 1.93799C13.0826 1.93799 11.8197 2.97535 11.5338 4.40355C11.4881 4.62327 11.633 4.8391 11.8527 4.88382C11.878 4.88966 11.9042 4.8916 11.9353 4.8916C12.1278 4.8916 12.296 4.75452 12.334 4.56396C12.544 3.51493 13.4715 2.75368 14.539 2.75368C14.6858 2.75368 14.8335 2.76924 14.9794 2.79841C15.203 2.84313 15.4159 2.69341 15.4597 2.4766Z" fill="#30404F"/>
<path d="M7.1127 2.4766C7.15548 2.25785 7.01256 2.04202 6.79284 1.99827C6.5945 1.9584 6.39228 1.93799 6.19298 1.93799C4.73561 1.93799 3.4727 2.97535 3.18686 4.40355C3.14214 4.62327 3.28603 4.8391 3.50575 4.88285C3.53103 4.88868 3.55728 4.89063 3.58839 4.89063C3.77992 4.89063 3.94909 4.75355 3.987 4.56299C4.19797 3.51396 5.1245 2.75368 6.192 2.75368C6.33978 2.75368 6.48756 2.76827 6.63242 2.79743C6.85506 2.84313 7.06895 2.69341 7.1127 2.4766Z" fill="#30404F"/>
<path d="M17.9074 20.3537V20.3546V20.3537ZM17.1646 16.5075C16.2487 15.5859 15.0325 15.0784 13.7414 15.0784H7.35485C4.68415 15.0784 2.51221 17.2649 2.51221 19.9521C2.51221 20.3109 2.80485 20.6025 3.16651 20.6025C3.52332 20.5996 3.81304 20.308 3.81304 19.9521C3.81304 17.9824 5.40263 16.3802 7.35582 16.3802H13.7404C15.6936 16.3802 17.2832 17.9824 17.2832 19.9521C17.2832 20.2759 17.5301 20.551 17.8393 20.588L17.9035 20.6025H17.9385C18.1115 20.6006 18.2739 20.5325 18.3993 20.4081C18.5189 20.2846 18.586 20.1164 18.5831 19.9521C18.584 18.6523 18.0804 17.4292 17.1646 16.5075Z" fill="#30404F"/>
<path d="M10.4175 7.87038C9.35005 7.87038 8.42255 8.63163 8.21255 9.68066C8.17463 9.87122 8.00643 10.0083 7.81296 10.0083C7.78282 10.0083 7.75657 10.0054 7.73032 10.0005C7.51157 9.9558 7.36671 9.74094 7.41143 9.51927C7.69727 8.09205 8.96018 7.05469 10.4185 7.05469C10.6178 7.05469 10.82 7.0751 11.0174 7.11497C11.2371 7.15872 11.381 7.37358 11.3382 7.5933C11.2925 7.81108 11.0806 7.95983 10.857 7.91316C10.7131 7.88497 10.5653 7.87038 10.4175 7.87038Z" fill="#30404F"/>
<path d="M12.5621 12.921C12.4483 12.921 12.356 12.8286 12.356 12.7148C12.3569 12.8286 12.4483 12.921 12.5621 12.921Z" fill="#30404F"/>
</svg>
