<?xml version="1.0" ?><svg height="99px" version="1.1" viewBox="0 0 117 99" width="117px" xmlns="http://www.w3.org/2000/svg" xmlns:xlink="http://www.w3.org/1999/xlink"><title/><desc/><defs/><g fill="none" fill-rule="evenodd" id="Page-1" stroke="none" stroke-width="1"><g fill-rule="nonzero" id="gamepad"><path d="M76.1,17.8 L62.3,17.8 L62.3,4.4 C62.3,2.1 60.5,0.3 58.2,0.3 C55.9,0.3 54.1,2.1 54.1,4.4 L54.1,17.8 L40.9,17.8 C18.6,17.8 0.4,35.9 0.4,58.2 C0.4,80.5 18.5,98.7 40.8,98.7 L76,98.8 C98.3,98.8 116.5,80.7 116.5,58.4 C116.6,36 98.5,17.8 76.1,17.8 Z M76,90.6 L40.8,90.5 C23,90.5 8.5,76 8.6,58.1 C8.6,40.3 23.1,25.8 41,25.9 L76.1,26 C93.9,26 108.4,40.5 108.3,58.3 C108.2,76.1 93.8,90.6 76,90.6 Z" fill="#4A4A4A" id="Shape"/><path d="M40,54.3 L35.3,54.3 L35.3,49.6 C35.3,47.3 33.5,45.5 31.2,45.5 C28.9,45.5 27.1,47.3 27.1,49.6 L27.1,54.3 L22.4,54.3 C20.1,54.3 18.3,56.1 18.3,58.4 C18.3,60.7 20.1,62.5 22.4,62.5 L27.1,62.5 L27.1,67.2 C27.1,69.5 28.9,71.3 31.2,71.3 C33.5,71.3 35.3,69.5 35.3,67.2 L35.3,62.5 L40,62.5 C42.3,62.5 44.1,60.7 44.1,58.4 C44.1,56.1 42.3,54.3 40,54.3 Z" fill="#17AB13" id="Shape"/><circle cx="78.6" cy="51.7" fill="#17AB13" id="Oval" r="6.6"/><circle cx="91.8" cy="64.9" fill="#17AB13" id="Oval" r="6.6"/></g></g></svg>