<svg width="21" height="22" viewBox="0 0 21 22" fill="none" xmlns="http://www.w3.org/2000/svg">
<path d="M5.54445 14.1483L7.91593 5.47998H11.1216L7.11451 17.3866H3.97439L0 5.48005H3.18111L5.54445 14.1483Z" fill="#30404F"/>
<path d="M18.1296 14.2221C18.1296 13.8023 17.981 13.4753 17.6839 13.2408C17.3866 13.0065 16.8647 12.7638 16.1178 12.513C15.3709 12.2623 14.7603 12.0196 14.2859 11.7851C12.7432 11.0274 11.9717 9.98606 11.9717 8.66131C11.9717 8.00172 12.164 7.41972 12.5482 6.91539C12.9326 6.4112 13.4763 6.01863 14.1797 5.73782C14.883 5.45709 15.6734 5.31665 16.5512 5.31665C17.4071 5.31665 18.1744 5.46934 18.8533 5.77457C19.532 6.07994 20.0594 6.51467 20.4356 7.07893C20.8118 7.64317 20.9998 8.28795 20.9998 9.01296H18.1377C18.1377 8.52775 17.9891 8.15161 17.692 7.88445C17.3948 7.61736 16.9928 7.48374 16.4858 7.48374C15.9734 7.48374 15.5685 7.5969 15.2714 7.82307C14.9741 8.04931 14.8258 8.33702 14.8258 8.6858C14.8258 8.99117 14.9892 9.26787 15.3163 9.51582C15.6435 9.76392 16.2186 10.0202 17.0418 10.2845C17.865 10.549 18.541 10.8338 19.0698 11.139C20.3564 11.8806 20.9998 12.9027 20.9998 14.2057C20.9998 15.247 20.6071 16.0648 19.8222 16.659C19.0371 17.2534 17.9603 17.5503 16.592 17.5503C15.6271 17.5503 14.7533 17.3773 13.971 17.031C13.1887 16.6849 12.5999 16.2106 12.2047 15.6082C11.8093 15.0058 11.6118 14.3119 11.6118 13.527H14.4904C14.4904 14.1648 14.6552 14.635 14.9851 14.9376C15.3149 15.2401 15.8506 15.3914 16.5921 15.3914C17.0663 15.3914 17.4411 15.2891 17.7165 15.0847C17.9919 14.8805 18.1296 14.593 18.1296 14.2221Z" fill="#30404F"/>
</svg>
