<svg width="10" height="11" viewBox="0 0 10 11" fill="none" xmlns="http://www.w3.org/2000/svg">
<path d="M4.88827 2.68918C2.59281 2.68918 0.732864 4.54913 0.732864 6.84459C0.732864 9.14006 2.59281 11 4.88827 11C7.18374 11 9.04368 9.14006 9.04368 6.84459C9.04368 4.54913 7.18374 2.68918 4.88827 2.68918ZM4.88827 10.3607C2.94842 10.3607 1.37216 8.78245 1.37216 6.84459C1.37216 4.90473 2.94842 3.32848 4.88827 3.32848C6.82613 3.32848 8.40439 4.90473 8.40439 6.84459C8.40439 8.78245 6.82613 10.3607 4.88827 10.3607ZM1.77771 2.73513C1.68981 2.5813 1.74175 2.38752 1.89358 2.29761L2.44897 1.97797C2.6008 1.89007 2.79658 1.94201 2.88449 2.09584L3.22811 2.69118C2.82655 2.853 2.45696 3.06876 2.12133 3.33247L1.77771 2.73513ZM7.65322 3.33247C7.31959 3.06876 6.948 2.851 6.54644 2.69118L6.89006 2.09584C6.97796 1.94201 7.17375 1.89007 7.32758 1.97797L7.88097 2.29761C8.0348 2.38552 8.08674 2.5813 7.99884 2.73513L7.65322 3.33247ZM3.92933 1.73024V1.09095C3.92933 0.915142 4.07317 0.771301 4.24898 0.771301H5.52757C5.70337 0.771301 5.84721 0.915142 5.84721 1.09095V1.73024C5.84721 1.90605 5.70337 2.04989 5.52757 2.04989V2.42148C5.3178 2.39151 5.10603 2.36954 4.88827 2.36954C4.67051 2.36954 4.45875 2.39151 4.24898 2.42148V2.04989C4.07317 2.04989 3.92933 1.90605 3.92933 1.73024Z" fill="#538CDF"/>
<path d="M4.88827 7.67172C4.66851 7.67172 4.48871 7.49192 4.48871 7.27217V4.49923C4.48871 4.27947 4.66851 4.09967 4.88827 4.09967C5.10802 4.09967 5.28783 4.27947 5.28783 4.49923V7.27217C5.28783 7.49192 5.10802 7.67172 4.88827 7.67172Z" fill="#538CDF"/>
<path d="M4.88827 7.7496C5.24134 7.7496 5.52757 7.46337 5.52757 7.1103C5.52757 6.75723 5.24134 6.47101 4.88827 6.47101C4.5352 6.47101 4.24898 6.75723 4.24898 7.1103C4.24898 7.46337 4.5352 7.7496 4.88827 7.7496Z" fill="#538CDF"/>
</svg>
