<svg width="19" height="17" viewBox="0 0 19 17" fill="none" xmlns="http://www.w3.org/2000/svg">
<path d="M15.0069 0.0219727C14.9456 0.186567 14.8811 0.344706 14.8198 0.506073C14.4228 1.53236 14.0291 2.55543 13.6353 3.58172C13.6127 3.63981 13.5837 3.64949 13.532 3.64949C12.2411 3.64949 10.9534 3.64949 9.66247 3.64949C9.63342 3.64949 9.60438 3.64949 9.57211 3.64949C9.57211 4.55637 9.57211 5.4568 9.57211 6.36691C10.7759 6.36691 11.9797 6.36691 13.1899 6.36691C13.1899 7.58039 13.1899 8.78418 13.1899 9.99443C11.9829 9.99443 10.7791 9.99443 9.56565 9.99443C9.56565 10.0299 9.56565 10.0557 9.56565 10.0848C9.56565 11.8372 9.56565 13.5897 9.56888 15.3421C9.56888 15.4163 9.54951 15.4454 9.47529 15.4615C8.32313 15.7455 7.1742 16.036 6.02204 16.3232C5.99945 16.3297 5.97363 16.3361 5.94458 16.3426C5.94458 10.9013 5.94458 5.46648 5.94458 0.0252C8.96214 0.0219727 11.9797 0.0219727 15.0069 0.0219727Z" fill="#BABDCE"/>
<path d="M18.6344 15.4326C18.4376 15.3906 18.2504 15.3551 18.0664 15.3164C17.2531 15.1453 16.4431 14.9775 15.6298 14.8064C14.7584 14.6257 13.8903 14.4418 13.0189 14.261C12.4928 14.1513 11.9635 14.0416 11.4375 13.9351C11.3923 13.9254 11.3794 13.9093 11.3794 13.8641C11.3794 13.2864 11.3794 12.7087 11.3794 12.131C11.3794 12.1149 11.3826 12.0987 11.3826 12.0761C13.1157 12.444 14.8456 12.812 16.5851 13.1831C16.5786 13.1186 16.5754 13.0572 16.5689 12.9991C16.5012 12.3408 16.4366 11.6824 16.3689 11.024C16.3075 10.4108 16.2494 9.79763 16.1881 9.18444C16.1171 8.47765 16.0461 7.77409 15.9751 7.06731C15.9493 6.81235 15.917 6.55739 15.9041 6.30243C15.8977 6.20561 15.9299 6.10556 15.9493 6.00874C16.1042 5.23095 16.2624 4.44994 16.4173 3.67215C16.4205 3.65602 16.4205 3.64311 16.4237 3.62052C16.13 3.63988 15.8428 3.65924 15.5427 3.67861C15.5556 3.63988 15.5652 3.61083 15.5782 3.58501C15.7912 3.02023 16.0042 2.45545 16.2172 1.89067C16.2333 1.84548 16.2559 1.82935 16.3043 1.82935C17.0563 1.83257 17.8082 1.82935 18.5634 1.82935C18.586 1.82935 18.6086 1.82935 18.6377 1.82935C18.6086 1.97458 18.5828 2.11012 18.557 2.24567C18.3375 3.34942 18.1148 4.45639 17.8954 5.56014C17.8437 5.8151 17.7889 6.07006 17.7437 6.32502C17.7308 6.39279 17.7437 6.4638 17.7502 6.5348C17.8018 7.07699 17.8567 7.61595 17.9115 8.15814C17.9599 8.63256 18.0083 9.11021 18.0567 9.58463C18.1052 10.059 18.1503 10.5367 18.1955 11.0111C18.2375 11.4403 18.2827 11.8664 18.3246 12.2956C18.3666 12.728 18.4085 13.1605 18.4537 13.593C18.4924 13.977 18.5312 14.3579 18.5699 14.7419C18.5893 14.9646 18.6118 15.1937 18.6344 15.4326Z" fill="#BABDCE"/>
<path d="M0.5 15.4291C0.512909 15.2806 0.529046 15.1419 0.541955 14.9999C0.571001 14.7062 0.600047 14.4093 0.629093 14.1156C0.658139 13.8219 0.687185 13.525 0.719459 13.2313C0.748505 12.9376 0.777551 12.6471 0.806597 12.3534C0.835643 12.0565 0.864689 11.7596 0.896962 11.4627C0.929235 11.1271 0.964736 10.7914 0.997009 10.4558C1.03251 10.1137 1.06478 9.77158 1.10028 9.42949C1.13578 9.08739 1.16806 8.74529 1.20356 8.40319C1.23906 8.06432 1.27133 7.72223 1.30683 7.38336C1.33911 7.05417 1.38106 6.72498 1.40365 6.39579C1.41011 6.29252 1.37138 6.18602 1.35202 6.08274C1.06801 4.68208 0.79046 3.2911 0.509682 1.90012C0.506455 1.88075 0.503227 1.86139 0.503227 1.83557C1.71025 1.83557 2.91082 1.83557 4.12107 1.83557C4.12107 2.43586 4.12107 3.03614 4.12107 3.64611C3.6531 3.64611 3.18837 3.64611 2.71395 3.64611C2.74622 3.81715 2.7785 3.97852 2.81077 4.13666C2.94955 4.83054 3.08832 5.52441 3.2271 6.21829C3.23678 6.2667 3.23355 6.32156 3.23032 6.3732C3.18837 6.79921 3.14319 7.22522 3.10123 7.65123C3.0625 8.04173 3.02377 8.43224 2.98505 8.82275C2.94309 9.25198 2.89791 9.68444 2.85595 10.1137C2.81722 10.4977 2.78172 10.885 2.743 11.2691C2.70427 11.6563 2.66554 12.0436 2.62681 12.4309C2.6139 12.5471 2.60422 12.6633 2.59131 12.7891C3.10769 12.6116 3.6176 12.4374 4.13075 12.2599C4.13075 12.2889 4.13075 12.3115 4.13075 12.3341C4.13075 12.9247 4.13075 13.5185 4.13075 14.1091C4.13075 14.1608 4.11461 14.1833 4.0662 14.1995C2.89468 14.6029 1.72639 15.0095 0.554865 15.4162C0.535501 15.4194 0.522591 15.4226 0.5 15.4291Z" fill="#BABDCE"/>
</svg>
