<svg width="130" height="14" viewBox="0 0 130 14" fill="none" xmlns="http://www.w3.org/2000/svg">
<path d="M11.7042 3.83633H12.6184C12.8454 3.83633 13.0068 3.84828 13.1024 3.87218C13.2099 3.88413 13.3115 3.94388 13.4071 4.05144C13.5027 4.15899 13.5505 4.32032 13.5505 4.53543C13.5505 4.73859 13.5266 4.96565 13.4788 5.21661C13.443 5.45562 13.3533 5.66476 13.2099 5.84402C13.0665 6.02328 12.9291 6.12486 12.7976 6.14876C12.6662 6.17266 12.469 6.18461 12.2061 6.18461H11.3098L10.9871 8.15645H11.9014C12.1284 8.15645 12.2897 8.1684 12.3854 8.1923C12.4929 8.20425 12.5945 8.264 12.6901 8.37156C12.7857 8.47911 12.8335 8.64045 12.8335 8.85556C12.8335 9.05872 12.8156 9.26187 12.7797 9.46503C12.7439 9.66819 12.6841 9.85343 12.6005 10.0207C12.5288 10.188 12.4272 10.3075 12.2957 10.3793C12.1045 10.4749 11.8356 10.5227 11.4891 10.5227H10.5928C10.4733 11.2636 10.4016 11.7237 10.3777 11.9029L10.3418 12.1001C10.294 12.363 10.2522 12.5483 10.2163 12.6558C10.1924 12.7634 10.1327 12.8948 10.0371 13.0502C9.84586 13.3251 9.40369 13.4625 8.71056 13.4625C8.01743 13.4625 7.67086 13.2414 7.67086 12.7992C7.67086 12.7873 7.71866 12.4766 7.81427 11.8671L8.02938 10.5227H5.35843C5.23892 11.2636 5.16722 11.7237 5.14332 11.9029L5.10747 12.1001C5.05967 12.363 5.01784 12.5483 4.98199 12.6558C4.95809 12.7634 4.89833 12.8948 4.80273 13.0502C4.61152 13.3251 4.16935 13.4625 3.47622 13.4625C2.78309 13.4625 2.43652 13.2414 2.43652 12.7992C2.43652 12.7873 2.48432 12.4766 2.57993 11.8671L2.79504 10.5227H1.61193C1.11001 10.5227 0.811247 10.4151 0.715643 10.2C0.679791 10.1044 0.661865 9.96696 0.661865 9.7877C0.661865 9.59649 0.679791 9.38138 0.715643 9.14237C0.763445 8.89141 0.859049 8.6763 1.00246 8.49704C1.15781 8.31778 1.30122 8.2162 1.43268 8.1923C1.56413 8.1684 1.76132 8.15645 2.02423 8.15645H3.18941L3.51207 6.18461H2.32897C1.81509 6.18461 1.51633 6.08303 1.43268 5.87987C1.39682 5.77231 1.3789 5.62891 1.3789 5.44965C1.3789 5.27039 1.39682 5.06126 1.43268 4.82225C1.48048 4.57128 1.57608 4.35617 1.71949 4.17692C1.87485 3.99766 2.01825 3.89608 2.14971 3.87218C2.28116 3.84828 2.47835 3.83633 2.74126 3.83633H3.90644L4.21118 1.98997C4.22313 1.91826 4.23508 1.80473 4.24703 1.64938C4.27093 1.48207 4.28886 1.36854 4.30081 1.30878C4.32471 1.23708 4.35458 1.14148 4.39044 1.02197C4.42629 0.902467 4.47409 0.818813 4.53384 0.77101C4.60555 0.723208 4.69517 0.663455 4.80273 0.591751C4.97004 0.484197 5.27478 0.43042 5.71695 0.43042C6.15912 0.43042 6.46386 0.496148 6.63116 0.627604C6.81042 0.747109 6.90005 0.932342 6.90005 1.1833C6.90005 1.21916 6.87017 1.42829 6.81042 1.81071L6.46983 3.83633H9.14078L9.44552 1.98997C9.45747 1.91826 9.46942 1.80473 9.48137 1.64938C9.50527 1.48207 9.5232 1.36854 9.53515 1.30878C9.55905 1.23708 9.58892 1.14148 9.62478 1.02197C9.66063 0.902467 9.70843 0.818813 9.76818 0.77101C9.83989 0.723208 9.92951 0.663455 10.0371 0.591751C10.2044 0.484197 10.5091 0.43042 10.9513 0.43042C11.3935 0.43042 11.6982 0.496148 11.8655 0.627604C12.0448 0.747109 12.1344 0.932342 12.1344 1.1833C12.1344 1.21916 12.1045 1.42829 12.0448 1.81071L11.7042 3.83633ZM8.42375 8.15645L8.74641 6.18461H6.09339L5.7528 8.15645H8.42375Z" fill="#C4C4C4"/>
<path d="M20.2233 9.2322H23.8805C24.0626 9.2322 24.1972 9.24012 24.2843 9.25595C24.3792 9.26387 24.4861 9.29949 24.6049 9.36282C24.8186 9.47364 24.9255 9.78237 24.9255 10.289C24.9255 10.8431 24.779 11.1677 24.4861 11.2627C24.3515 11.3102 24.1457 11.3339 23.8687 11.3339H19.1665C18.6124 11.3339 18.2878 11.1835 18.1928 10.8827C18.1453 10.756 18.1216 10.5542 18.1216 10.2771V3.67511C18.1216 3.27139 18.1968 2.99829 18.3472 2.8558C18.4976 2.70539 18.7826 2.63019 19.2021 2.63019H23.8805C24.0626 2.63019 24.1972 2.6381 24.2843 2.65394C24.3792 2.66185 24.4861 2.69748 24.6049 2.7608C24.8186 2.87163 24.9255 3.18036 24.9255 3.68699C24.9255 4.24111 24.779 4.56567 24.4861 4.66066C24.3515 4.70816 24.1457 4.73191 23.8687 4.73191H20.2233V5.9312H22.5744C22.7564 5.9312 22.891 5.93911 22.9781 5.95494C23.0731 5.96286 23.18 5.99848 23.2987 6.06181C23.5124 6.17264 23.6193 6.48136 23.6193 6.98799C23.6193 7.54212 23.4689 7.86668 23.1681 7.96167C23.0335 8.00917 22.8277 8.03292 22.5506 8.03292H20.2233V9.2322Z" fill="#C4C4C4"/>
<path d="M25.8243 10.1109C25.6185 9.85757 25.5155 9.63197 25.5155 9.43406C25.5155 9.22825 25.6857 8.9591 26.0261 8.62662C26.224 8.43664 26.4338 8.34164 26.6555 8.34164C26.8771 8.34164 27.1858 8.53955 27.5816 8.93535C27.6925 9.06992 27.8508 9.20054 28.0566 9.3272C28.2624 9.44594 28.4524 9.50531 28.6266 9.50531C29.3628 9.50531 29.7309 9.2045 29.7309 8.60288C29.7309 8.42081 29.628 8.2704 29.4221 8.15166C29.2242 8.025 28.9749 7.93397 28.6741 7.87855C28.3733 7.82314 28.0487 7.73606 27.7004 7.61732C27.3521 7.49066 27.0275 7.34422 26.7267 7.17798C26.4259 7.01174 26.1726 6.75051 25.9668 6.39429C25.7689 6.03015 25.6699 5.59476 25.6699 5.08813C25.6699 4.39152 25.9272 3.78594 26.4417 3.27139C26.9642 2.74893 27.6727 2.4877 28.5672 2.4877C29.0422 2.4877 29.4736 2.55103 29.8615 2.67769C30.2573 2.79643 30.5304 2.91913 30.6808 3.04578L30.9776 3.27139C31.223 3.50096 31.3457 3.6949 31.3457 3.85322C31.3457 4.01155 31.2507 4.22924 31.0608 4.5063C30.7916 4.9021 30.5146 5.10001 30.2296 5.10001C30.0633 5.10001 29.8575 5.02085 29.6121 4.86252C29.5884 4.84669 29.5409 4.80711 29.4696 4.74378C29.4063 4.68045 29.3469 4.629 29.2915 4.58942C29.1253 4.48651 28.9115 4.43506 28.6503 4.43506C28.397 4.43506 28.1833 4.49838 28.0091 4.62504C27.8429 4.74378 27.7598 4.91398 27.7598 5.13563C27.7598 5.34936 27.8587 5.52352 28.0566 5.65809C28.2624 5.79266 28.5157 5.8837 28.8166 5.9312C29.1174 5.97869 29.4459 6.0539 29.8021 6.1568C30.1583 6.2518 30.4868 6.37054 30.7877 6.51303C31.0885 6.65552 31.3378 6.90487 31.5357 7.2611C31.7415 7.60941 31.8445 8.04083 31.8445 8.55538C31.8445 9.06992 31.7415 9.5251 31.5357 9.9209C31.3299 10.3088 31.0608 10.6096 30.7283 10.8233C30.0871 11.2429 29.4023 11.4527 28.6741 11.4527C28.302 11.4527 27.9497 11.4091 27.6173 11.3221C27.2848 11.2271 27.0156 11.1123 26.8098 10.9777C26.3903 10.7244 26.0974 10.479 25.9311 10.2415L25.8243 10.1109Z" fill="#C4C4C4"/>
<path d="M38.0547 9.05409L38.2685 8.89973C38.5376 8.74141 38.7276 8.66225 38.8384 8.66225C39.0838 8.66225 39.349 8.8839 39.634 9.3272C39.8081 9.60426 39.8952 9.82591 39.8952 9.99215C39.8952 10.1584 39.8398 10.2969 39.729 10.4077C39.6261 10.5186 39.5034 10.6175 39.3609 10.7046C39.2184 10.7917 39.0799 10.8748 38.9453 10.954C38.8186 11.0331 38.5534 11.136 38.1497 11.2627C37.746 11.3893 37.3541 11.4527 36.9742 11.4527C36.6021 11.4527 36.2221 11.4052 35.8343 11.3102C35.4543 11.2073 35.0585 11.041 34.6468 10.8115C34.2431 10.574 33.879 10.289 33.5544 9.95652C33.2299 9.61613 32.9607 9.18471 32.747 8.66225C32.5412 8.13187 32.4383 7.55795 32.4383 6.9405C32.4383 6.32304 32.5412 5.76496 32.747 5.26624C32.9528 4.75962 33.214 4.34402 33.5307 4.01946C33.8552 3.68699 34.2233 3.40992 34.635 3.18827C35.4107 2.7608 36.1905 2.54707 36.9742 2.54707C37.3462 2.54707 37.7222 2.60644 38.1022 2.72518C38.4901 2.83601 38.783 2.95079 38.9809 3.06953L39.2659 3.23577C39.4084 3.32285 39.5192 3.39409 39.5984 3.4495C39.8042 3.61574 39.9071 3.80573 39.9071 4.01946C39.9071 4.22528 39.824 4.44297 39.6577 4.67254C39.349 5.10001 39.0719 5.31374 38.8265 5.31374C38.684 5.31374 38.4822 5.22666 38.221 5.05251C37.8885 4.78336 37.4452 4.64879 36.8911 4.64879C36.3765 4.64879 35.8699 4.8269 35.3712 5.18313C35.1337 5.35728 34.9358 5.60268 34.7775 5.91932C34.6191 6.23597 34.54 6.59615 34.54 6.99987C34.54 7.39567 34.6191 7.75189 34.7775 8.06854C34.9358 8.38518 35.1376 8.63454 35.383 8.81661C35.8659 9.16492 36.3686 9.33907 36.8911 9.33907C37.1365 9.33907 37.366 9.30741 37.5798 9.24408C37.8014 9.18075 37.9597 9.11742 38.0547 9.05409Z" fill="#C4C4C4"/>
<path d="M44.7602 2.52332C45.9317 2.52332 46.949 2.94683 47.8118 3.79385C48.6747 4.64087 49.1061 5.69371 49.1061 6.95237C49.1061 8.20311 48.6945 9.27178 47.8712 10.1584C47.0479 11.0371 46.0347 11.4764 44.8314 11.4764C43.6282 11.4764 42.603 11.041 41.756 10.1703C40.9169 9.29949 40.4974 8.26248 40.4974 7.05924C40.4974 6.4022 40.6161 5.78871 40.8536 5.21875C41.0911 4.64087 41.4077 4.15799 41.8035 3.7701C42.1993 3.38222 42.6545 3.07745 43.169 2.8558C43.6836 2.63415 44.214 2.52332 44.7602 2.52332ZM42.5991 6.99987C42.5991 7.7044 42.8247 8.27832 43.2759 8.72162C43.735 9.157 44.2456 9.37469 44.8077 9.37469C45.3697 9.37469 45.8763 9.16096 46.3276 8.73349C46.7788 8.30602 47.0044 7.73211 47.0044 7.01174C47.0044 6.29138 46.7748 5.7135 46.3157 5.27812C45.8645 4.84273 45.3578 4.62504 44.7958 4.62504C44.2337 4.62504 43.7271 4.84669 43.2759 5.28999C42.8247 5.72538 42.5991 6.29534 42.5991 6.99987Z" fill="#C4C4C4"/>
<path d="M56.5439 9.86153C56.6627 10.1465 56.7221 10.3523 56.7221 10.479C56.7221 10.7798 56.4767 11.0331 55.9859 11.2389C55.7325 11.3498 55.5267 11.4052 55.3684 11.4052C55.218 11.4052 55.0913 11.3695 54.9884 11.2983C54.8934 11.2191 54.8222 11.14 54.7747 11.0608C54.6955 10.9104 54.3868 10.194 53.8485 8.9116L53.4804 8.93535H51.9843V10.2771C51.9843 10.4592 51.9764 10.5977 51.9605 10.6927C51.9526 10.7798 51.917 10.8827 51.8537 11.0014C51.7428 11.2152 51.4341 11.3221 50.9275 11.3221C50.3734 11.3221 50.0488 11.1756 49.9538 10.8827C49.9063 10.7481 49.8826 10.5423 49.8826 10.2653V3.67511C49.8826 3.49304 49.8865 3.35847 49.8944 3.27139C49.9103 3.1764 49.9498 3.06953 50.0132 2.95079C50.124 2.73706 50.4327 2.63019 50.9394 2.63019H53.5042C54.2008 2.63019 54.8776 2.8835 55.5346 3.39013C55.8513 3.63553 56.1125 3.96801 56.3183 4.38756C56.5241 4.80711 56.6271 5.27416 56.6271 5.78871C56.6271 6.68322 56.3302 7.41942 55.7365 7.99729C55.9107 8.41685 56.1798 9.03826 56.5439 9.86153ZM51.9843 6.83363H53.5042C53.7337 6.83363 53.9633 6.74655 54.1929 6.5724C54.4224 6.39824 54.5372 6.13701 54.5372 5.78871C54.5372 5.4404 54.4224 5.17917 54.1929 5.00501C53.9633 4.82294 53.7258 4.73191 53.4804 4.73191H51.9843V6.83363Z" fill="#C4C4C4"/>
<path d="M59.4752 9.2322H63.1324C63.3145 9.2322 63.4491 9.24012 63.5361 9.25595C63.6311 9.26387 63.738 9.29949 63.8567 9.36282C64.0705 9.47364 64.1773 9.78237 64.1773 10.289C64.1773 10.8431 64.0309 11.1677 63.738 11.2627C63.6034 11.3102 63.3976 11.3339 63.1205 11.3339H58.4184C57.8643 11.3339 57.5397 11.1835 57.4447 10.8827C57.3972 10.756 57.3735 10.5542 57.3735 10.2771V3.67511C57.3735 3.27139 57.4487 2.99829 57.5991 2.8558C57.7495 2.70539 58.0344 2.63019 58.454 2.63019H63.1324C63.3145 2.63019 63.4491 2.6381 63.5361 2.65394C63.6311 2.66185 63.738 2.69748 63.8567 2.7608C64.0705 2.87163 64.1773 3.18036 64.1773 3.68699C64.1773 4.24111 64.0309 4.56567 63.738 4.66066C63.6034 4.70816 63.3976 4.73191 63.1205 4.73191H59.4752V5.9312H61.8263C62.0083 5.9312 62.1429 5.93911 62.23 5.95494C62.325 5.96286 62.4318 5.99848 62.5506 6.06181C62.7643 6.17264 62.8712 6.48136 62.8712 6.98799C62.8712 7.54212 62.7208 7.86668 62.42 7.96167C62.2854 8.00917 62.0796 8.03292 61.8025 8.03292H59.4752V9.2322Z" fill="#C4C4C4"/>
<path d="M70.6757 2.92709C70.7548 2.7846 70.8696 2.68961 71.02 2.64211C71.1704 2.59462 71.3565 2.57087 71.5781 2.57087C71.8077 2.57087 71.9898 2.59066 72.1243 2.63024C72.2668 2.66982 72.3697 2.71731 72.4331 2.77273C72.5043 2.82814 72.5558 2.91126 72.5874 3.02209C72.6349 3.14874 72.6587 3.3506 72.6587 3.62766V10.2178C72.6587 10.4078 72.6507 10.5463 72.6349 10.6334C72.627 10.7205 72.5914 10.8234 72.528 10.9421C72.4172 11.1559 72.1085 11.2627 71.6019 11.2627C71.2931 11.2627 71.0794 11.239 70.9607 11.1915C70.8419 11.144 70.743 11.0688 70.6638 10.9659C68.8827 8.59105 67.7111 7.0395 67.1491 6.31122V10.2178C67.1491 10.4078 67.1412 10.5463 67.1253 10.6334C67.1174 10.7205 67.0818 10.8234 67.0185 10.9421C66.9076 11.1559 66.5989 11.2627 66.0923 11.2627C65.6015 11.2627 65.3007 11.1559 65.1898 10.9421C65.1265 10.8234 65.0869 10.7165 65.0711 10.6215C65.0632 10.5265 65.0592 10.388 65.0592 10.2059V3.58017C65.0592 3.27936 65.0948 3.06166 65.1661 2.92709C65.2452 2.7846 65.36 2.68961 65.5104 2.64211C65.6608 2.59462 65.8548 2.57087 66.0923 2.57087C66.3298 2.57087 66.5158 2.59462 66.6504 2.64211C66.7928 2.68169 66.8918 2.72919 66.9472 2.7846C66.9789 2.80835 67.0699 2.91126 67.2203 3.09333C68.8906 5.36525 70.0068 6.86534 70.5688 7.59362V3.58017C70.5688 3.27936 70.6044 3.06166 70.6757 2.92709Z" fill="#C4C4C4"/>
<path d="M75.7071 9.16101H79.3643C79.5464 9.16101 79.6809 9.16892 79.768 9.18476C79.863 9.19267 79.9699 9.22829 80.0886 9.29162C80.3024 9.40245 80.4092 9.71118 80.4092 10.2178C80.4092 10.7719 80.2628 11.0965 79.9699 11.1915C79.8353 11.239 79.6295 11.2627 79.3524 11.2627H74.6503C74.0961 11.2627 73.7716 11.1123 73.6766 10.8115C73.6291 10.6849 73.6053 10.483 73.6053 10.2059V3.60392C73.6053 3.2002 73.6805 2.92709 73.831 2.7846C73.9814 2.6342 74.2663 2.55899 74.6859 2.55899H79.3643C79.5464 2.55899 79.6809 2.56691 79.768 2.58274C79.863 2.59066 79.9699 2.62628 80.0886 2.68961C80.3024 2.80043 80.4092 3.10916 80.4092 3.61579C80.4092 4.16992 80.2628 4.49448 79.9699 4.58947C79.8353 4.63696 79.6295 4.66071 79.3524 4.66071H75.7071V5.86H78.0581C78.2402 5.86 78.3748 5.86792 78.4619 5.88375C78.5569 5.89166 78.6637 5.92729 78.7825 5.99062C78.9962 6.10144 79.1031 6.41017 79.1031 6.9168C79.1031 7.47092 78.9527 7.79548 78.6519 7.89048C78.5173 7.93797 78.3115 7.96172 78.0344 7.96172H75.7071V9.16101Z" fill="#C4C4C4"/>
<path d="M91.591 2.60649C92.1214 2.79648 92.3866 3.04979 92.3866 3.36643C92.3866 3.46934 92.3391 3.66329 92.2441 3.94827L89.9643 10.5384C89.9484 10.5938 89.9207 10.6611 89.8812 10.7403C89.8416 10.8194 89.7347 10.9263 89.5606 11.0609C89.3943 11.1875 89.1925 11.2509 88.955 11.2509C88.7254 11.2509 88.5236 11.1875 88.3494 11.0609C88.1832 10.9263 88.0723 10.7957 88.0169 10.669L86.6276 6.57245C85.749 9.16892 85.3017 10.4909 85.2859 10.5384C85.27 10.5859 85.2344 10.6532 85.179 10.7403C85.1236 10.8273 85.0603 10.9065 84.989 10.9777C84.8069 11.1598 84.5893 11.2509 84.3359 11.2509C84.0826 11.2509 83.8728 11.1915 83.7066 11.0727C83.5483 10.954 83.4414 10.8353 83.386 10.7165L83.3029 10.5384L81.0112 3.94827C80.9241 3.68704 80.8806 3.49309 80.8806 3.36643C80.8806 3.04979 81.1458 2.80043 81.6761 2.61836C81.9057 2.5392 82.1115 2.49962 82.2936 2.49962C82.4836 2.49962 82.6261 2.56295 82.7211 2.68961C82.824 2.81627 82.915 3.01021 82.9942 3.27144L84.3003 7.2374L85.5946 3.33081C85.7054 2.99834 85.9073 2.76877 86.2002 2.64211C86.3268 2.5867 86.4891 2.55899 86.687 2.55899C86.8928 2.55899 87.0828 2.62628 87.257 2.76085C87.4311 2.88751 87.542 3.01417 87.5895 3.14083L88.955 7.26115L90.2611 3.27144C90.3245 3.08937 90.3759 2.9548 90.4155 2.86772C90.4551 2.78064 90.5263 2.69753 90.6292 2.61836C90.7401 2.53129 90.8746 2.48775 91.0329 2.48775C91.1913 2.48775 91.3773 2.52733 91.591 2.60649Z" fill="#C4C4C4"/>
<path d="M93.1706 10.0397C92.9648 9.78638 92.8618 9.56077 92.8618 9.36287C92.8618 9.15705 93.032 8.8879 93.3724 8.55543C93.5703 8.36544 93.7801 8.27045 94.0018 8.27045C94.2234 8.27045 94.5321 8.46835 94.9279 8.86416C95.0388 8.99873 95.1971 9.12934 95.4029 9.256C95.6087 9.37474 95.7987 9.43411 95.9729 9.43411C96.7091 9.43411 97.0772 9.1333 97.0772 8.53168C97.0772 8.34961 96.9743 8.1992 96.7684 8.08046C96.5705 7.9538 96.3212 7.86277 96.0204 7.80736C95.7196 7.75195 95.395 7.66487 95.0467 7.54613C94.6984 7.41947 94.3738 7.27302 94.073 7.10678C93.7722 6.94055 93.5189 6.67932 93.3131 6.32309C93.1152 5.95895 93.0162 5.52357 93.0162 5.01694C93.0162 4.32032 93.2735 3.71474 93.788 3.2002C94.3105 2.67773 95.019 2.4165 95.9135 2.4165C96.3885 2.4165 96.8199 2.47983 97.2078 2.60649C97.6036 2.72523 97.8767 2.84793 98.0271 2.97459L98.3239 3.2002C98.5693 3.42976 98.692 3.62371 98.692 3.78203C98.692 3.94035 98.597 4.15804 98.4071 4.4351C98.1379 4.83091 97.8609 5.02881 97.5759 5.02881C97.4096 5.02881 97.2038 4.94965 96.9584 4.79133C96.9347 4.7755 96.8872 4.73592 96.8159 4.67259C96.7526 4.60926 96.6932 4.55781 96.6378 4.51823C96.4716 4.41532 96.2578 4.36386 95.9966 4.36386C95.7433 4.36386 95.5296 4.42719 95.3554 4.55385C95.1892 4.67259 95.1061 4.84278 95.1061 5.06443C95.1061 5.27817 95.205 5.45232 95.4029 5.5869C95.6087 5.72147 95.862 5.8125 96.1628 5.86C96.4637 5.9075 96.7922 5.9827 97.1484 6.08561C97.5046 6.1806 97.8331 6.29934 98.134 6.44183C98.4348 6.58432 98.6841 6.83368 98.882 7.1899C99.0878 7.53821 99.1907 7.96964 99.1907 8.48418C99.1907 8.99873 99.0878 9.4539 98.882 9.84971C98.6762 10.2376 98.4071 10.5384 98.0746 10.7521C97.4334 11.1717 96.7486 11.3815 96.0204 11.3815C95.6483 11.3815 95.296 11.3379 94.9636 11.2509C94.6311 11.1559 94.3619 11.0411 94.1561 10.9065C93.7366 10.6532 93.4437 10.4078 93.2774 10.1703L93.1706 10.0397Z" fill="#C4C4C4"/>
<path d="M101.803 9.3035C101.938 9.43807 102.005 9.71513 102.005 10.1347V10.1822C102.005 10.3722 101.997 10.5147 101.981 10.6097C101.973 10.6967 101.934 10.8036 101.863 10.9303C101.744 11.1598 101.443 11.2746 100.96 11.2746C100.485 11.2746 100.168 11.1994 100.01 11.049C99.8598 10.8986 99.7845 10.6136 99.7845 10.1941V10.1466C99.7845 9.96449 99.7885 9.82596 99.7964 9.73097C99.8123 9.63597 99.8518 9.52911 99.9152 9.41037C100.034 9.17288 100.331 9.05414 100.806 9.05414C101.289 9.05414 101.621 9.13726 101.803 9.3035Z" fill="#C4C4C4"/>
<path d="M108.219 8.9829L108.433 8.82853C108.702 8.67021 108.892 8.59105 109.002 8.59105C109.248 8.59105 109.513 8.8127 109.798 9.256C109.972 9.53306 110.059 9.75472 110.059 9.92095C110.059 10.0872 110.004 10.2257 109.893 10.3365C109.79 10.4474 109.667 10.5463 109.525 10.6334C109.382 10.7205 109.244 10.8036 109.109 10.8828C108.983 10.9619 108.718 11.0648 108.314 11.1915C107.91 11.3181 107.518 11.3815 107.138 11.3815C106.766 11.3815 106.386 11.334 105.998 11.239C105.618 11.1361 105.223 10.9698 104.811 10.7403C104.407 10.5028 104.043 10.2178 103.719 9.88533C103.394 9.54494 103.125 9.11351 102.911 8.59105C102.705 8.06067 102.602 7.48676 102.602 6.8693C102.602 6.25185 102.705 5.69376 102.911 5.19505C103.117 4.68842 103.378 4.27283 103.695 3.94827C104.019 3.61579 104.387 3.33873 104.799 3.11708C105.575 2.68961 106.355 2.47588 107.138 2.47588C107.51 2.47588 107.886 2.53525 108.266 2.65399C108.654 2.76481 108.947 2.87959 109.145 2.99834L109.43 3.16457C109.572 3.25165 109.683 3.3229 109.762 3.37831C109.968 3.54455 110.071 3.73453 110.071 3.94827C110.071 4.15408 109.988 4.37178 109.822 4.60134C109.513 5.02881 109.236 5.24255 108.991 5.24255C108.848 5.24255 108.646 5.15547 108.385 4.98132C108.053 4.71217 107.609 4.5776 107.055 4.5776C106.541 4.5776 106.034 4.75571 105.535 5.11193C105.298 5.28608 105.1 5.53148 104.942 5.84813C104.783 6.16477 104.704 6.52495 104.704 6.92867C104.704 7.32448 104.783 7.6807 104.942 7.99734C105.1 8.31399 105.302 8.56335 105.547 8.74541C106.03 9.09372 106.533 9.26788 107.055 9.26788C107.301 9.26788 107.53 9.23621 107.744 9.17288C107.965 9.10955 108.124 9.04622 108.219 8.9829Z" fill="#C4C4C4"/>
<path d="M114.924 2.45213C116.096 2.45213 117.113 2.87564 117.976 3.72266C118.839 4.56968 119.27 5.62252 119.27 6.88118C119.27 8.13192 118.859 9.20059 118.035 10.0872C117.212 10.9659 116.199 11.4052 114.995 11.4052C113.792 11.4052 112.767 10.9698 111.92 10.0991C111.081 9.2283 110.661 8.19129 110.661 6.98804C110.661 6.33101 110.78 5.71751 111.018 5.14755C111.255 4.56968 111.572 4.0868 111.968 3.69891C112.363 3.31102 112.819 3.00625 113.333 2.7846C113.848 2.56295 114.378 2.45213 114.924 2.45213ZM112.763 6.92867C112.763 7.6332 112.989 8.20712 113.44 8.65042C113.899 9.08581 114.41 9.3035 114.972 9.3035C115.534 9.3035 116.04 9.08976 116.492 8.6623C116.943 8.23483 117.168 7.66091 117.168 6.94055C117.168 6.22018 116.939 5.64231 116.48 5.20692C116.029 4.77154 115.522 4.55385 114.96 4.55385C114.398 4.55385 113.891 4.7755 113.44 5.2188C112.989 5.65418 112.763 6.22414 112.763 6.92867Z" fill="#C4C4C4"/>
<path d="M129.297 2.89147C129.36 3.01021 129.396 3.11708 129.403 3.21207C129.419 3.30706 129.427 3.44559 129.427 3.62766V10.2178C129.427 10.764 129.277 11.0846 128.976 11.1796C128.826 11.2271 128.636 11.2509 128.406 11.2509C128.176 11.2509 127.994 11.2311 127.86 11.1915C127.725 11.1519 127.622 11.1044 127.551 11.049C127.48 10.9936 127.424 10.9144 127.385 10.8115C127.345 10.6769 127.325 10.4711 127.325 10.1941V6.21622C127.128 6.46162 126.839 6.85347 126.459 7.39176C126.079 7.92214 125.837 8.25462 125.734 8.38919C125.631 8.52376 125.56 8.61876 125.521 8.67417C125.481 8.72167 125.382 8.79291 125.224 8.8879C125.073 8.97498 124.907 9.01852 124.725 9.01852C124.551 9.01852 124.389 8.97894 124.238 8.89978C124.096 8.8127 123.993 8.72958 123.929 8.65042L123.834 8.51981C123.676 8.3219 123.363 7.90235 122.896 7.26115C122.429 6.61203 122.176 6.26372 122.136 6.21622V10.2178C122.136 10.3999 122.129 10.5384 122.113 10.6334C122.105 10.7205 122.069 10.8194 122.006 10.9303C121.887 11.144 121.578 11.2509 121.08 11.2509C120.597 11.2509 120.296 11.144 120.177 10.9303C120.114 10.8194 120.074 10.7165 120.059 10.6215C120.051 10.5265 120.047 10.384 120.047 10.1941V3.60392C120.047 3.42185 120.051 3.28727 120.059 3.2002C120.074 3.1052 120.114 2.99834 120.177 2.8796C120.296 2.67378 120.605 2.57087 121.103 2.57087C121.317 2.57087 121.499 2.59857 121.65 2.65399C121.808 2.70148 121.911 2.75294 121.958 2.80835L122.03 2.8796L124.725 6.41809C126.071 4.63697 126.969 3.46143 127.42 2.89147C127.555 2.67773 127.872 2.57087 128.37 2.57087C128.877 2.57087 129.186 2.67773 129.297 2.89147Z" fill="#C4C4C4"/>
</svg>
