<svg width="17" height="19" viewBox="0 0 17 19" fill="none" xmlns="http://www.w3.org/2000/svg">
<path d="M2.4528 11.4171C2.63388 11.5986 2.80825 11.7732 2.98597 11.9478C3.00609 11.9683 3.03627 11.9854 3.05975 11.9854C3.48897 11.9888 3.91483 11.9854 4.34405 11.9854C4.35076 11.9854 4.35747 11.9854 4.37423 11.982C3.24418 10.4414 2.11748 8.90766 0.984066 7.36365C1.01425 7.36365 1.03772 7.36365 1.05784 7.36365C2.1443 7.36365 3.22741 7.36365 4.31387 7.36365C4.36417 7.36365 4.391 7.38076 4.42118 7.41842C5.4171 8.7673 6.41303 10.1162 7.40895 11.4685C7.69063 11.8519 7.81805 12.2867 7.76775 12.766C7.69063 13.5192 7.16752 14.1422 6.41974 14.2689C6.31914 14.286 6.21854 14.2963 6.11794 14.2963C4.16633 14.2963 2.21807 14.2963 0.266464 14.2963C0.249697 14.2963 0.229578 14.2963 0.196045 14.2963C0.95724 13.3274 1.70502 12.3723 2.4528 11.4171Z" fill="#BABDCE"/>
<path d="M15.95 12.6805C15.8394 12.7592 15.7455 12.8311 15.6482 12.8996C15.3297 13.1255 15.0144 13.3652 14.6858 13.5774C14.1493 13.9266 13.5625 14.1457 12.9354 14.2484C12.2748 14.3546 11.6343 14.2964 11.0173 14.0293C10.5143 13.8102 10.0885 13.4816 9.72297 13.0673C9.41782 12.725 9.15291 12.3484 8.945 11.9341C8.71698 11.4822 8.58956 10.9961 8.54261 10.4894C8.44201 9.42124 8.61638 8.39761 9.00872 7.40821C9.01542 7.39109 9.04225 7.36712 9.06237 7.36712C9.95434 7.3637 10.8497 7.36712 11.7416 7.36712C11.7483 7.36712 11.7517 7.37055 11.7651 7.37055C11.745 7.48695 11.7249 7.60335 11.7014 7.71975C11.5907 8.28805 11.5572 8.86321 11.5706 9.44521C11.584 9.94505 11.6444 10.438 11.7852 10.9208C11.906 11.3282 12.0837 11.7013 12.3553 12.0266C12.6739 12.4031 13.0762 12.6291 13.5457 12.7421C13.8643 12.8174 14.1895 12.8448 14.5115 12.8242C14.8032 12.8071 15.0949 12.766 15.3867 12.7352C15.5577 12.7181 15.7287 12.701 15.8997 12.6805C15.9131 12.6805 15.9232 12.6805 15.95 12.6805Z" fill="#BABDCE"/>
<path d="M13.0628 3.89555C11.6846 3.89555 10.2963 3.89555 8.90472 3.89555C8.90472 3.87158 8.90137 3.85104 8.90137 3.8305C8.90137 3.12183 8.90137 2.41658 8.90137 1.70791C8.90137 1.47511 8.99861 1.29366 9.19981 1.18068C9.6961 0.899952 10.1924 0.619223 10.6954 0.352187C10.8932 0.246057 11.1045 0.17074 11.3124 0.0919983C11.5102 0.0166805 11.7081 0.0509159 11.8992 0.109116C12.3754 0.259751 12.8482 0.417234 13.3176 0.581564C13.7435 0.728776 14.166 0.889682 14.5885 1.04716C14.7998 1.12591 14.9339 1.31078 14.9306 1.52988C14.9306 1.74557 14.7931 1.93386 14.5885 2.0126C13.9313 2.26937 13.4685 2.73497 13.2103 3.40256C13.15 3.55661 13.1131 3.72437 13.0628 3.89555Z" fill="#BABDCE"/>
<path d="M8.14669 3.88879C6.74838 3.88879 5.36347 3.88879 3.97186 3.88879C3.93497 3.67996 3.88132 3.47455 3.79078 3.27941C3.51581 2.67686 3.07318 2.25234 2.46288 2.01612C2.25498 1.93396 2.12085 1.75251 2.11749 1.52998C2.11414 1.32114 2.24492 1.12943 2.44947 1.05411C3.24084 0.766531 4.03557 0.482378 4.8303 0.201648C5.01473 0.136601 5.21257 0.102365 5.40371 0.0612828C5.58143 0.0236239 5.74574 0.0852475 5.9067 0.150295C6.38287 0.342013 6.83221 0.595354 7.28155 0.848696C7.46933 0.954825 7.65376 1.0678 7.84155 1.17393C8.0461 1.29033 8.14669 1.46836 8.14669 1.708C8.14669 2.40983 8.14669 3.11508 8.14669 3.8169C8.14669 3.84429 8.14669 3.86825 8.14669 3.88879Z" fill="#BABDCE"/>
<path d="M0.980713 6.98025C0.980713 6.86385 0.980713 6.75772 0.980713 6.65159C0.984066 6.43591 0.974006 6.22023 0.997479 6.01139C1.06454 5.37804 1.54071 4.84739 2.15101 4.71387C2.27508 4.68648 2.4025 4.67279 2.52658 4.67279C4.63579 4.66936 6.74836 4.67279 8.85757 4.67279C8.87769 4.67279 8.89446 4.67279 8.92799 4.67621C8.1735 5.64165 7.42237 6.59681 6.67123 7.55883C6.65447 7.54171 6.64105 7.53144 6.62764 7.51775C6.47004 7.35342 6.30908 7.19251 6.15147 7.02818C6.12129 6.99737 6.09111 6.98367 6.04752 6.98367C4.38765 6.98367 2.72777 6.98367 1.07125 6.98367C1.04107 6.98025 1.0176 6.98025 0.980713 6.98025Z" fill="#BABDCE"/>
<path d="M16.8518 4.6692C16.094 5.63805 15.3429 6.59322 14.5783 7.56893C14.5414 7.52442 14.5146 7.47991 14.4777 7.44568C14.3436 7.30531 14.2027 7.16495 14.0686 7.02116C14.0384 6.99035 14.0082 6.97666 13.9647 6.97666C12.3651 6.97666 10.7656 6.97666 9.16611 6.97666C9.13928 6.97666 9.11581 6.97666 9.08228 6.97666C9.13593 6.84314 9.18958 6.71989 9.24323 6.59322C9.4109 6.18582 9.60539 5.79211 9.86024 5.42922C10.0346 5.18272 10.2257 4.95677 10.4873 4.79929C10.6348 4.71028 10.7924 4.66577 10.9668 4.66577C12.905 4.66577 14.8432 4.66577 16.7814 4.66577C16.7982 4.6692 16.8183 4.6692 16.8518 4.6692Z" fill="#BABDCE"/>
<path d="M13.0526 15.0151C13.0526 15.135 13.0526 15.2514 13.0526 15.3678C13.0526 15.3883 13.0392 15.4088 13.0291 15.4294C12.8279 15.8436 12.5396 16.1928 12.2109 16.5078C11.7683 16.9357 11.272 17.2884 10.7523 17.6068C10.1755 17.9628 9.56855 18.2606 8.94149 18.5174C8.93143 18.5208 8.92473 18.5243 8.90796 18.5311C8.90796 16.7851 8.90796 15.0425 8.90796 13.2897C9.98436 14.6351 11.3424 15.2548 13.0526 15.0151Z" fill="#BABDCE"/>
<path d="M3.99878 15.0698C4.02896 15.0698 4.05243 15.0698 4.0759 15.0698C4.77674 15.0698 5.47758 15.0767 6.17841 15.0664C6.83901 15.0561 7.40571 14.8062 7.86176 14.3132C7.9523 14.2139 8.02607 14.101 8.10991 13.9948C8.11997 13.9811 8.13002 13.9674 8.14679 13.9435C8.14679 15.4738 8.14679 16.9939 8.14679 18.5173C8.13673 18.5139 8.12332 18.5173 8.11326 18.5105C7.26152 18.1579 6.44668 17.7333 5.69219 17.1958C5.20931 16.8535 4.75997 16.4701 4.39111 16.001C4.24692 15.8162 4.12285 15.621 4.02225 15.4122C4.00549 15.3745 4.00549 15.3266 4.00213 15.2821C3.99878 15.2102 3.99878 15.1417 3.99878 15.0698Z" fill="#BABDCE"/>
</svg>
