<svg width="22" height="22" viewBox="0 0 22 22" fill="none" xmlns="http://www.w3.org/2000/svg">
<path d="M14.1629 12.2382C14.7185 12.9273 14.5746 13.6359 14.2721 14.1888C13.9397 14.7982 13.4147 15.2187 13.4147 15.2187C12.4122 16.8793 11.0539 16.7866 9.74273 16.3798C8.43155 15.9715 3.83005 13.6876 3.83005 13.6876C-3.56371 9.02137 2.16074 2.68258 2.16074 2.68258C2.16074 2.68258 5.41632 -1.06318 9.87956 2.46037C13.8626 5.60678 11.8756 9.40546 14.1629 12.2382Z" fill="#434B56"/>
<path d="M17.1241 21.95C16.7239 21.95 16.3203 21.8509 15.9526 21.6483C14.5696 20.8864 14.5993 19.2612 14.6976 18.5077L12.011 16.8104C11.7597 16.6517 11.6838 16.3176 11.8416 16.065C11.9993 15.8124 12.3311 15.736 12.5821 15.8948L15.575 17.7852C15.772 17.91 15.867 18.1475 15.8106 18.3748C15.8067 18.3906 15.4024 20.1127 16.469 20.7001C17.0537 21.0224 17.6714 20.8435 18.0243 20.5234C18.2038 20.3608 18.5893 19.907 18.2975 19.2085C18.2292 19.0452 18.2447 18.8585 18.3399 18.7086C18.4341 18.5591 18.5959 18.466 18.7718 18.4591C18.9859 18.4488 19.6556 18.342 19.8864 17.9931C20.0054 17.813 20.0025 17.5467 19.8776 17.2017C19.3757 15.8167 17.3399 16.5058 17.2536 16.536C17.0813 16.5961 16.8895 16.5643 16.746 16.4512L14.0682 14.3417C13.8347 14.1578 13.7933 13.8177 13.9761 13.5828C14.1593 13.3475 14.4968 13.3068 14.7307 13.4902L17.1872 15.4254C18.3315 15.1149 20.2524 15.0792 20.887 16.8313C21.1976 17.6887 20.9991 18.2646 20.7773 18.5972C20.447 19.0919 19.8966 19.3271 19.4602 19.4389C19.5437 20.1426 19.2924 20.8287 18.7437 21.3263C18.2906 21.7379 17.7107 21.95 17.1241 21.95Z" fill="#434B56"/>
<path d="M4.21553 4.5814C4.08323 4.5814 3.95044 4.53255 3.84669 4.43389C3.6311 4.22916 3.62086 3.88674 3.82504 3.66956C4.44088 3.01274 6.1685 2.09181 8.29661 3.30823C8.55432 3.45573 8.64499 3.78593 8.4984 4.04526C8.35182 4.30507 8.02366 4.39582 7.76595 4.24832C5.83131 3.14324 4.61864 4.39917 4.60651 4.41186C4.50061 4.52417 4.35784 4.5814 4.21553 4.5814Z" fill="#434B56"/>
<path d="M9.23379 5.43789C8.87399 5.43789 8.58105 5.14336 8.58105 4.78059C8.58105 4.4183 8.87399 4.12329 9.23379 4.12329C9.59383 4.12329 9.88676 4.4183 9.88676 4.78059C9.88676 5.14336 9.59383 5.43789 9.23379 5.43789Z" fill="#434B56"/>
</svg>
