<svg width="22" height="19" viewBox="0 0 22 19" fill="none" xmlns="http://www.w3.org/2000/svg">
<path d="M0.0390625 14.0857V15.61C0.147049 15.7055 0.356376 15.8342 0.73682 15.9605C1.38972 16.179 2.26524 16.2986 3.2014 16.2986C4.13756 16.2986 5.01307 16.1781 5.66598 15.9605C6.04642 15.8342 6.25492 15.7055 6.36373 15.61V14.0857C5.57128 14.4628 4.35934 14.6397 3.2014 14.6397C2.04345 14.6397 0.831515 14.4628 0.0390625 14.0857Z" fill="#30404F"/>
<path d="M0.0390625 16.5269V17.8941C0.145387 18.1118 1.21279 18.6326 3.2014 18.6326C5.19001 18.6326 6.25658 18.1118 6.36373 17.8941V16.5269C5.57128 16.9023 4.35934 17.0792 3.2014 17.0792C2.04345 17.0792 0.831515 16.9023 0.0390625 16.5269Z" fill="#30404F"/>
<path d="M14.6797 11.6467V13.171C14.7877 13.2649 14.9978 13.3953 15.3783 13.5215C16.0303 13.7392 16.9067 13.858 17.8437 13.858C18.7798 13.858 19.6545 13.7383 20.3083 13.5215C20.6879 13.3953 20.8964 13.2649 21.006 13.171V11.6467C20.2136 12.0222 19.0016 12.1991 17.8437 12.1991C16.6841 12.1991 15.473 12.0222 14.6797 11.6467Z" fill="#30404F"/>
<path d="M14.6797 14.0857V15.61C14.7877 15.7055 14.9978 15.8342 15.3783 15.9605C16.0303 16.179 16.9067 16.2986 17.8437 16.2986C18.7798 16.2986 19.6545 16.1781 20.3083 15.9605C20.6879 15.8342 20.8964 15.7055 21.006 15.61V14.0857C20.2136 14.4628 19.0016 14.6397 17.8437 14.6397C16.6841 14.6397 15.473 14.4628 14.6797 14.0857Z" fill="#30404F"/>
<path d="M14.6797 16.5269V17.8941C14.7868 18.1118 15.8542 18.6326 17.8437 18.6326C19.8323 18.6326 20.8989 18.1118 21.006 17.8941V16.5269C20.2136 16.9023 19.0016 17.0792 17.8437 17.0792C16.6841 17.0792 15.473 16.9023 14.6797 16.5269Z" fill="#30404F"/>
<path d="M7.35889 6.76587V8.29014C7.4677 8.38483 7.6762 8.51359 8.05664 8.64068C8.70955 8.85748 9.58506 8.9771 10.5221 8.9771C11.4582 8.9771 12.3329 8.85748 12.9866 8.64068C13.3662 8.51275 13.5747 8.384 13.6844 8.29014V6.76587C12.8919 7.14216 11.6808 7.31992 10.5221 7.31992C9.36328 7.31992 8.15217 7.14216 7.35889 6.76587Z" fill="#30404F"/>
<path d="M7.35889 9.2063V10.7297C7.4677 10.8244 7.6762 10.9532 8.05664 11.0794C8.71038 11.2987 9.58506 11.4175 10.5221 11.4175C11.4582 11.4175 12.3329 11.2979 12.9866 11.0794C13.3662 10.9532 13.5747 10.8244 13.6844 10.7297V9.2063C12.8919 9.58176 11.6808 9.76035 10.5221 9.76035C9.36328 9.75952 8.15217 9.58093 7.35889 9.2063Z" fill="#30404F"/>
<path d="M7.35889 11.6467V13.171C7.4677 13.2649 7.6762 13.3953 8.05664 13.5215C8.71038 13.7392 9.58506 13.858 10.5221 13.858C11.4582 13.858 12.3329 13.7383 12.9866 13.5215C13.3662 13.3953 13.5747 13.2649 13.6844 13.171V11.6467C12.8919 12.0222 11.6808 12.1991 10.5221 12.1991C9.36328 12.1991 8.15217 12.0222 7.35889 11.6467Z" fill="#30404F"/>
<path d="M7.35889 14.0857V15.61C7.4677 15.7055 7.6762 15.8342 8.05664 15.9605C8.70955 16.179 9.58506 16.2986 10.5221 16.2986C11.4582 16.2986 12.3329 16.1781 12.9866 15.9605C13.3662 15.8342 13.5747 15.7055 13.6844 15.61V14.0857C12.8919 14.4628 11.6808 14.6397 10.5221 14.6397C9.36328 14.6397 8.15217 14.4628 7.35889 14.0857Z" fill="#30404F"/>
<path d="M7.35889 4.3252V5.85029C7.4677 5.94499 7.6762 6.07457 8.05664 6.20166C8.71038 6.41847 9.58506 6.53808 10.5221 6.53808C11.4582 6.53808 12.3329 6.41764 12.9866 6.20166C13.3662 6.07457 13.5747 5.94499 13.6844 5.85029V4.3252C12.8919 4.70149 11.6808 4.88008 10.5221 4.88008C9.36328 4.88008 8.15217 4.70149 7.35889 4.3252Z" fill="#30404F"/>
<path d="M7.35889 16.5269V17.8941C7.46604 18.1118 8.53261 18.6326 10.5221 18.6326C12.5107 18.6326 13.5772 18.1118 13.6844 17.8941V16.5269C12.8919 16.9023 11.6808 17.0792 10.5221 17.0792C9.36328 17.0792 8.15217 16.9023 7.35889 16.5269Z" fill="#30404F"/>
<path d="M15.4588 8.624C16.0893 8.83498 16.9358 8.95211 17.8429 8.95211C18.7491 8.95211 19.5956 8.83498 20.226 8.624C20.8665 8.41135 21.0052 8.19122 21.0052 8.14886C21.0052 8.10566 20.8665 7.88637 20.226 7.67372C19.5939 7.46273 18.7491 7.34644 17.8429 7.34644C16.9358 7.34644 16.0893 7.4619 15.4588 7.67372C14.8192 7.88637 14.6797 8.10566 14.6797 8.14886C14.6797 8.19122 14.8201 8.41135 15.4588 8.624Z" fill="#30404F"/>
<path d="M17.8427 9.75937C16.6831 9.75937 15.472 9.58078 14.6787 9.20532V10.7288C14.7867 10.8235 14.9969 10.9522 15.3773 11.0785C16.0294 11.2978 16.9057 11.4165 17.8427 11.4165C18.7789 11.4165 19.6536 11.2969 20.3073 11.0785C20.6869 10.9522 20.8954 10.8235 21.005 10.7288V9.20615C20.2126 9.58078 19.0007 9.75937 17.8427 9.75937Z" fill="#30404F"/>
<path d="M0.817394 11.0653C1.4487 11.2746 2.29514 11.3917 3.2014 11.3917C4.10765 11.3917 4.9541 11.2746 5.5854 11.0653C6.22501 10.8518 6.36373 10.6316 6.36373 10.5893C6.36373 10.5453 6.22501 10.3268 5.5854 10.1133C4.9541 9.90316 4.10765 9.78687 3.2014 9.78687C2.29514 9.78687 1.4487 9.90316 0.817394 10.1133C0.176953 10.3268 0.0390625 10.5461 0.0390625 10.5893C0.0390625 10.6316 0.177783 10.8526 0.817394 11.0653Z" fill="#30404F"/>
<path d="M0.0390625 11.6467V13.171C0.147049 13.2649 0.356376 13.3953 0.73682 13.5215C1.38972 13.7392 2.26524 13.858 3.2014 13.858C4.13756 13.858 5.01307 13.7383 5.66598 13.5215C6.04642 13.3953 6.25492 13.2649 6.36373 13.171V11.6467C5.57128 12.0222 4.35934 12.1991 3.2014 12.1991C2.04345 12.1991 0.831515 12.0222 0.0390625 11.6467Z" fill="#30404F"/>
<path d="M8.13805 1.305C8.76935 1.51516 9.6158 1.63062 10.5229 1.63062C11.4283 1.63062 12.2764 1.51516 12.9077 1.305C13.5465 1.09152 13.686 0.872227 13.686 0.829032C13.686 0.785838 13.5465 0.566543 12.9077 0.353062C12.2764 0.142904 11.4291 0.0266113 10.5229 0.0266113C9.61663 0.0266113 8.76935 0.142074 8.13805 0.353062C7.49761 0.565712 7.35889 0.785838 7.35889 0.829032C7.35889 0.872227 7.49761 1.09152 8.13805 1.305Z" fill="#30404F"/>
<path d="M7.35889 1.88574V3.41001C7.4677 3.5047 7.6762 3.63346 8.05664 3.76055C8.71038 3.97818 9.58506 4.0978 10.5221 4.0978C11.4582 4.0978 12.3329 3.97735 12.9866 3.76055C13.3662 3.63346 13.5747 3.5047 13.6844 3.41001V1.88574C12.8919 2.26203 11.6808 2.43979 10.5221 2.43979C9.36328 2.43979 8.15217 2.26203 7.35889 1.88574Z" fill="#30404F"/>
</svg>
