<svg width="22" height="21" viewBox="0 0 22 21" fill="none" xmlns="http://www.w3.org/2000/svg">
<path d="M0.576174 17.9179C0.696695 17.795 0.846593 17.7008 1.00854 17.6425C1.06278 17.4745 1.15392 17.322 1.27746 17.1951C1.39949 17.0675 1.54787 16.9735 1.70983 16.9182C1.76406 16.7501 1.8552 16.5993 1.97723 16.4724C2.10077 16.3448 2.24765 16.2507 2.4096 16.1954C2.46383 16.0266 2.55498 15.8765 2.67851 15.7497C2.80204 15.622 2.94893 15.5279 3.11239 15.4712C3.16662 15.303 3.25927 15.1499 3.37904 15.0253C3.3926 15.0121 3.40541 14.9989 3.42046 14.9848C2.83519 14.5539 2.1776 14.2139 1.46954 13.989C1.39722 13.9656 1.33696 13.9144 1.30156 13.8451C1.26616 13.7751 1.25863 13.6957 1.28123 13.6211L1.70531 12.2012C1.75276 12.0464 1.91094 11.9585 2.06159 12.0067C2.73425 12.2199 3.37075 12.5139 3.96356 12.8765L6.29413 10.3068L6.68582 9.87653L9.23258 7.06953L9.62277 6.63851L14.4911 1.27423C14.5407 1.21821 14.6086 1.18631 14.6809 1.18164L18.2868 0.954469C18.3673 0.949023 18.4501 0.980143 18.5059 1.04005C18.5646 1.10073 18.594 1.1832 18.5895 1.26645L18.3673 4.99149C18.3643 5.06618 18.3312 5.13698 18.2777 5.18833L12.974 10.3223L9.63859 13.5495L7.04664 16.0585C7.3969 16.6701 7.68238 17.3274 7.88802 18.0222C7.91137 18.0984 7.90383 18.1777 7.86768 18.247C7.83228 18.3162 7.77202 18.3676 7.69971 18.3909L6.32426 18.8289C6.2964 18.8383 6.26852 18.843 6.24215 18.843C6.12013 18.843 6.00639 18.7612 5.96872 18.6344C5.75103 17.9023 5.42261 17.224 5.00381 16.6187C4.99176 16.6335 4.97895 16.6474 4.96539 16.663C4.84487 16.7867 4.69497 16.8801 4.53302 16.9384C4.47728 17.1072 4.38764 17.2589 4.26411 17.3857C4.14057 17.5126 3.99369 17.6068 3.83174 17.6635C3.77751 17.8308 3.68636 17.9817 3.56283 18.1085C3.4408 18.2361 3.29392 18.3295 3.13196 18.3855C3.07773 18.5528 2.98659 18.7045 2.86305 18.832C2.74103 18.9597 2.59263 19.053 2.43069 19.1083C2.37494 19.2763 2.2838 19.4304 2.16328 19.5541C1.95614 19.7703 1.66764 19.8933 1.37161 19.894C1.07558 19.8933 0.787838 19.7703 0.578434 19.5541C0.371289 19.3385 0.250014 19.0414 0.250014 18.7363C0.248508 18.4315 0.369029 18.1334 0.576174 17.9179ZM16.6769 2.9298C16.5656 2.81543 16.384 2.81543 16.2725 2.9298L14.9732 4.27107C14.8632 4.38621 14.8632 4.57371 14.9732 4.68807C15.0297 4.74565 15.1027 4.77444 15.175 4.77444C15.2488 4.77444 15.3219 4.74565 15.3769 4.68807L16.6769 3.34603C16.7877 3.23011 16.7877 3.04417 16.6769 2.9298ZM5.76736 14.1207C5.8231 14.1791 5.89541 14.2079 5.96923 14.2079C6.04153 14.2079 6.11461 14.1791 6.17111 14.1207L9.11883 11.1524C9.23032 11.0381 9.23032 10.8498 9.11883 10.7354C9.00736 10.6203 8.82732 10.6203 8.71585 10.7354L5.7681 13.7053C5.65512 13.8204 5.65512 14.0071 5.76736 14.1207ZM14.4323 5.24668C14.3223 5.13153 14.1408 5.13153 14.0293 5.24668L9.60242 9.82052C9.49095 9.93411 9.49095 10.1216 9.60242 10.236C9.65666 10.2935 9.73048 10.3216 9.80279 10.3216C9.87661 10.3216 9.94967 10.2935 10.0047 10.236L14.4323 5.66212C14.5438 5.54776 14.5438 5.36183 14.4323 5.24668Z" fill="#FF0707"/>
<path d="M21.2502 16.315C21.2502 18.7205 19.3001 20.6705 16.8946 20.6705C14.4891 20.6705 12.5391 18.7205 12.5391 16.315C12.5391 13.9095 16.8946 8.22607 16.8946 8.22607C16.8946 8.22607 21.2502 13.9095 21.2502 16.315Z" fill="#FF0707"/>
</svg>
