<svg width="21" height="20" viewBox="0 0 21 20" fill="none" xmlns="http://www.w3.org/2000/svg">
<path d="M13.9383 16.1658H10.1094C9.75545 16.1658 9.46826 16.4539 9.46826 16.8079C9.46826 17.1628 9.75545 17.451 10.1094 17.451H13.9383C14.2922 17.451 14.5804 17.1628 14.5804 16.8079C14.5804 16.4539 14.2922 16.1658 13.9383 16.1658Z" fill="#30404F"/>
<path d="M13.9383 14.0405H10.1094C9.75545 14.0405 9.46826 14.3277 9.46826 14.6817C9.46826 15.0357 9.75545 15.3238 10.1094 15.3238H13.9383C14.2922 15.3238 14.5804 15.0357 14.5804 14.6817C14.5804 14.3277 14.2922 14.0405 13.9383 14.0405Z" fill="#30404F"/>
<path d="M7.55251 14.0405H3.72368C3.37066 14.0405 3.08252 14.3277 3.08252 14.6817C3.08252 15.0357 3.37066 15.3238 3.72368 15.3238H7.55251C7.90649 15.3238 8.19367 15.0357 8.19367 14.6817C8.19367 14.3277 7.90744 14.0405 7.55251 14.0405Z" fill="#30404F"/>
<path d="M13.9383 11.9104H10.1094C9.75545 11.9104 9.46826 12.1976 9.46826 12.5516C9.46826 12.9055 9.75545 13.1946 10.1094 13.1946H13.9383C14.2922 13.1946 14.5804 12.9055 14.5804 12.5516C14.5804 12.1976 14.2922 11.9104 13.9383 11.9104Z" fill="#30404F"/>
<path d="M9.89052 7.2405C10.3638 7.2405 10.7454 6.8579 10.7454 6.38562C10.7454 5.91238 10.3638 5.52979 9.89052 5.52979C9.41824 5.52979 9.03564 5.91238 9.03564 6.38562C9.03564 6.8579 9.41824 7.2405 9.89052 7.2405Z" fill="#30404F"/>
<path d="M7.55251 16.1658H3.72368C3.37066 16.1658 3.08252 16.453 3.08252 16.8069C3.08252 17.1609 3.37066 17.449 3.72463 17.449H7.55251C7.90649 17.449 8.19367 17.1609 8.19367 16.8069C8.19367 16.453 7.90744 16.1658 7.55251 16.1658Z" fill="#30404F"/>
<path d="M5.85156 4.25935H11.8061C12.1601 4.25935 12.4492 3.97216 12.4492 3.61723C12.4492 3.26421 12.1601 2.97607 11.8061 2.97607H5.85156C5.49664 2.97607 5.2085 3.26421 5.2085 3.61723C5.20945 3.97121 5.49664 4.25935 5.85156 4.25935Z" fill="#30404F"/>
<path d="M17.766 18.7167C17.1812 18.7167 16.706 18.2406 16.706 17.6567V7.66434H18.8251V17.6567C18.8251 18.2406 18.3499 18.7167 17.766 18.7167ZM15.6813 18.7167H3.30081C2.71594 18.7167 2.2408 18.2406 2.2408 17.6567V1.28327H15.4208V17.6567C15.4208 18.0279 15.5086 18.3876 15.6813 18.7167ZM19.4653 6.38107H16.7032V0.64116C16.7032 0.553382 16.686 0.469421 16.6516 0.393092C16.5534 0.153611 16.3206 0 16.061 0H1.59773C1.24471 0 0.95752 0.28814 0.95752 0.64116V17.6558C0.95752 18.9486 2.00895 20 3.30081 20H17.766C19.056 20 20.1084 18.9495 20.1084 17.6558V7.02414C20.1065 6.66921 19.8193 6.38107 19.4653 6.38107Z" fill="#30404F"/>
<path d="M5.43947 10.0321L7.55759 7.91684L9.67284 10.0321C9.79211 10.1514 9.95049 10.2162 10.1194 10.2162C10.2882 10.2162 10.4476 10.1514 10.5668 10.0321C10.6861 9.91379 10.7519 9.75445 10.7519 9.58557C10.7519 9.42147 10.689 9.26786 10.5773 9.14955L10.9599 8.76695L12.2241 10.0321C12.4636 10.2697 12.8777 10.2706 13.1181 10.0321C13.2383 9.91379 13.3032 9.75445 13.3032 9.58557C13.3032 9.41574 13.2383 9.25736 13.1181 9.1381L11.415 7.41403C11.1927 7.19458 10.7653 7.15642 10.4953 7.42166C10.4676 7.45124 10.4552 7.47795 10.4609 7.47604L9.68239 8.25459L8.01461 6.56773C7.79134 6.34065 7.33719 6.32539 7.1063 6.55819C7.06813 6.59349 7.04905 6.63738 7.05764 6.62593L4.54642 9.1381C4.42716 9.25736 4.36133 9.41574 4.36133 9.58557C4.36133 9.75445 4.42716 9.91379 4.54642 10.0321C4.784 10.2706 5.20094 10.2716 5.43947 10.0321Z" fill="#30404F"/>
<path d="M7.55251 11.9104H3.72368C3.37066 11.9104 3.08252 12.1976 3.08252 12.5516C3.08252 12.9055 3.37066 13.1946 3.72368 13.1946H7.55251C7.90649 13.1946 8.19367 12.9055 8.19367 12.5516C8.19367 12.1976 7.90744 11.9104 7.55251 11.9104Z" fill="#30404F"/>
</svg>
