<svg width="21" height="19" viewBox="0 0 21 19" fill="none" xmlns="http://www.w3.org/2000/svg">
<path d="M9.01399 10.2789H10.7659L11.1159 8.43945H9.36399L9.01399 10.2789ZM9.71399 6.60005H11.4659L11.9918 3.97314H14.0053L13.4793 6.60005H14.6187V8.35195H13.1303L12.7793 10.1914H14.6187V11.9423H12.5168L11.9918 14.5692H9.97744L10.5015 11.9423H8.75149L8.22554 14.5692H6.21208L6.73613 11.9423H5.59863V10.1914H7.08709L7.43804 8.35195H5.59863V6.60005H7.70054L8.22554 3.97314H10.2399L9.71399 6.60005Z" fill="#30404F"/>
<path fill-rule="evenodd" clip-rule="evenodd" d="M3.61413 1.67798L1.61875 17.3015H17.2261L19.2196 1.67798H3.61413ZM2.3587 0.256104H20.8393L18.4825 18.7215H0L2.3587 0.256104Z" fill="#30404F"/>
</svg>
