<svg width="21" height="21" viewBox="0 0 21 21" fill="none" xmlns="http://www.w3.org/2000/svg">
<path d="M8.46188 13.1431V7.56296L13.5936 10.352L8.46188 13.1431ZM7.12552 13.9524C7.13546 14.5689 7.34129 14.8801 7.73703 14.8801C7.90904 14.8801 8.10592 14.8185 8.35748 14.6833C10.5917 13.4811 12.816 12.2601 15.0393 11.0371C15.4012 10.8392 15.5832 10.6086 15.5832 10.355C15.5832 10.0975 15.3963 9.86282 15.0244 9.65898C12.8021 8.43696 10.5778 7.21494 8.34555 6.00883C7.52921 5.56835 7.13745 5.87162 7.12453 6.75955C7.11359 7.58781 7.11558 8.41906 7.11856 9.24833L7.12055 10.3132L7.11757 11.3901C7.11657 12.2442 7.11359 13.0993 7.12552 13.9524Z" fill="#30404F"/>
<path d="M10.3967 1.37514L10.4246 1.16435V1.37514C15.4807 1.37514 19.4669 5.34745 19.5007 10.4175C19.5156 12.8257 18.5869 15.0987 16.8857 16.8179C15.1864 18.5361 12.9273 19.4877 10.4803 19.4976C8.02329 19.4976 5.73039 18.56 4.02315 16.8577C2.3159 15.1554 1.37726 12.8675 1.37826 10.4175C1.38025 5.44589 5.42613 1.39105 10.3967 1.37514ZM10.3997 0C7.65241 0.00795455 5.0463 1.11563 3.06263 3.1152C1.074 5.12074 -0.0137885 7.74376 0.000131968 10.501C0.0299615 16.1269 4.80866 20.8807 10.4335 20.8807H10.4355C13.1868 20.8807 15.8009 19.78 17.7945 17.7824C19.7891 15.7858 20.8848 13.1707 20.8818 10.4205C20.8759 4.77174 16.0912 0 10.3997 0Z" fill="#30404F"/>
</svg>
