<svg width="21" height="21" viewBox="0 0 21 21" fill="none" xmlns="http://www.w3.org/2000/svg">
<path d="M5.3623 12.9033C5.3623 11.8577 5.48047 11.0342 5.7168 10.4326C5.95312 9.82389 6.33626 9.29753 6.86621 8.85352C7.39616 8.40951 7.7972 8.00488 8.06934 7.63965C8.34863 7.26725 8.48828 6.85905 8.48828 6.41504C8.48828 5.33366 8.02279 4.79297 7.0918 4.79297C6.66211 4.79297 6.31478 4.95052 6.0498 5.26562C5.78483 5.58073 5.64518 6.00684 5.63086 6.54395H2C2.01432 5.11165 2.46549 3.99805 3.35352 3.20312C4.24154 2.40104 5.48763 2 7.0918 2C8.6888 2 9.92415 2.36882 10.7979 3.10645C11.6787 3.84408 12.1191 4.89323 12.1191 6.25391C12.1191 6.84831 12.001 7.389 11.7646 7.87598C11.5283 8.36296 11.1488 8.86068 10.626 9.36914L9.39062 10.5186C9.03971 10.8551 8.79622 11.2025 8.66016 11.5605C8.52409 11.9115 8.44889 12.359 8.43457 12.9033H5.3623ZM4.92188 16.1689C4.92188 15.639 5.11165 15.2057 5.49121 14.8691C5.87793 14.5254 6.35775 14.3535 6.93066 14.3535C7.50358 14.3535 7.97982 14.5254 8.35938 14.8691C8.74609 15.2057 8.93945 15.639 8.93945 16.1689C8.93945 16.6989 8.74609 17.1357 8.35938 17.4795C7.97982 17.8161 7.50358 17.9844 6.93066 17.9844C6.35775 17.9844 5.87793 17.8161 5.49121 17.4795C5.11165 17.1357 4.92188 16.6989 4.92188 16.1689Z" fill="#30404F"/>
<path d="M17.4902 12.9033H14.5576L14.0957 2.21484H17.9521L17.4902 12.9033ZM13.9883 16.2334C13.9883 15.7035 14.1781 15.2702 14.5576 14.9336C14.9443 14.5898 15.4242 14.418 15.9971 14.418C16.57 14.418 17.0462 14.5898 17.4258 14.9336C17.8125 15.2702 18.0059 15.7035 18.0059 16.2334C18.0059 16.7633 17.8125 17.2002 17.4258 17.5439C17.0462 17.8805 16.57 18.0488 15.9971 18.0488C15.4242 18.0488 14.9443 17.8805 14.5576 17.5439C14.1781 17.2002 13.9883 16.7633 13.9883 16.2334Z" fill="#30404F"/>
</svg>
