<svg width="21" height="21" viewBox="0 0 21 21" fill="none" xmlns="http://www.w3.org/2000/svg">
<path d="M20.4912 2.18953C20.3541 2.32573 20.1836 2.43003 19.9993 2.49469C19.9376 2.68088 19.834 2.84984 19.6934 2.99034C19.5546 3.13172 19.3858 3.23602 19.2016 3.29722C19.1399 3.48342 19.0362 3.65065 18.8975 3.79117C18.7569 3.93253 18.5899 4.03684 18.4056 4.09804C18.3439 4.2851 18.2403 4.45147 18.0997 4.59198C17.9591 4.73335 17.7921 4.83765 17.6062 4.90059C17.5444 5.08678 17.439 5.25659 17.3028 5.39452C17.2874 5.40917 17.2728 5.42382 17.2557 5.43934C17.9215 5.9169 18.6695 6.29361 19.475 6.54272C19.5572 6.56858 19.6258 6.62548 19.666 6.7022C19.7063 6.77978 19.7148 6.86771 19.6892 6.95046L19.2067 8.52365C19.1527 8.69519 18.9728 8.7926 18.8014 8.73915C18.0363 8.50296 17.3123 8.17711 16.6379 7.77541L13.9868 10.6227L13.5413 11.0994L10.6443 14.2096L10.2004 14.6871L4.66262 20.6307C4.60606 20.6928 4.52895 20.7281 4.44669 20.7332L0.344968 20.985C0.253286 20.991 0.159033 20.9566 0.095626 20.8902C0.0287917 20.8229 -0.00462546 20.7316 0.000515643 20.6394L0.253286 16.512C0.256714 16.4293 0.294415 16.3507 0.35525 16.2939L6.38831 10.6054L10.1824 7.02976L13.1308 4.24976C12.7323 3.57221 12.4077 2.8438 12.1737 2.07402C12.1472 1.98954 12.1558 1.90161 12.1968 1.82489C12.2371 1.74818 12.3057 1.69128 12.3879 1.66542L13.9525 1.18011C13.9843 1.16976 14.0159 1.16459 14.0459 1.16459C14.1848 1.16459 14.3141 1.25509 14.357 1.39561C14.6047 2.20677 14.9782 2.95845 15.4546 3.6291C15.4684 3.61272 15.4829 3.5972 15.4983 3.57997C15.6354 3.4429 15.8059 3.33946 15.9902 3.27481C16.0535 3.08775 16.1555 2.91966 16.296 2.77914C16.4365 2.63864 16.6036 2.53433 16.7878 2.47141C16.8496 2.28607 16.9532 2.11884 17.0937 1.97833C17.2326 1.83696 17.3996 1.73352 17.5839 1.67145C17.6455 1.48612 17.7492 1.31803 17.8898 1.17666C18.0286 1.03528 18.1974 0.931847 18.3815 0.870635C18.445 0.684443 18.5487 0.513761 18.6858 0.3767C18.9214 0.137059 19.2496 0.000861569 19.5863 0C19.923 0.000861569 20.2504 0.137059 20.4885 0.3767C20.7242 0.61548 20.8622 0.944777 20.8622 1.28269C20.8639 1.6206 20.7268 1.95075 20.4912 2.18953ZM2.17605 18.7963C2.30286 18.923 2.50937 18.923 2.63617 18.7963L4.11424 17.3102C4.23934 17.1826 4.23934 16.9749 4.11424 16.8482C4.04998 16.7843 3.96685 16.7524 3.8846 16.7524C3.80064 16.7524 3.71751 16.7843 3.65497 16.8482L2.17605 18.3352C2.0501 18.4636 2.0501 18.6696 2.17605 18.7963ZM11.9707 8.94431C11.9073 8.87966 11.825 8.84777 11.7411 8.84777C11.6588 8.84777 11.5757 8.87966 11.5114 8.94431L10.7736 9.68565C10.6468 9.81236 10.6468 10.021 10.7736 10.1477C10.9005 10.2753 11.1052 10.2753 11.2321 10.1477L11.9698 9.40463C12.0984 9.27705 12.0984 9.07017 11.9707 8.94431ZM4.72945 16.2293C4.85455 16.3568 5.06105 16.3568 5.18787 16.2293L10.2236 11.1614C10.3504 11.0356 10.3504 10.8278 10.2236 10.7011C10.1619 10.6373 10.0779 10.6063 9.99564 10.6063C9.91166 10.6063 9.82855 10.6373 9.766 10.7011L4.72945 15.769C4.60264 15.8957 4.60264 16.1016 4.72945 16.2293Z" fill="#434B56"/>
<path d="M9.47296 6.6703L8.29136 7.75301L7.81154 8.19263L6.63251 9.27188L6.15182 9.71151L4.34901 7.77627C3.67553 8.17798 2.95065 8.50383 2.18548 8.74001C2.01496 8.79345 1.83417 8.69605 1.78019 8.5245L1.29864 6.95132C1.27293 6.86857 1.28064 6.78064 1.32092 6.70306C1.36119 6.62634 1.42974 6.57031 1.51285 6.54359C2.31743 6.29447 3.06545 5.9169 3.73209 5.4402C3.71495 5.42468 3.70038 5.41003 3.6841 5.39538C3.54872 5.25746 3.44419 5.08764 3.38078 4.90144C3.1957 4.83851 3.02775 4.73421 2.88724 4.59284C2.74671 4.45233 2.64304 4.28596 2.5822 4.0989C2.39711 4.0377 2.23089 3.9334 2.09037 3.79203C1.9507 3.65152 1.84702 3.48428 1.78533 3.29809C1.60111 3.23688 1.43317 3.13258 1.2935 2.9912C1.15297 2.8507 1.05016 2.68174 0.98846 2.49555C0.803383 2.43176 0.633728 2.32745 0.496632 2.19039C0.260143 1.95247 0.123047 1.62146 0.123047 1.28268C0.123047 0.944772 0.259286 0.616343 0.496632 0.376701C0.733978 0.137921 1.06215 0.000862741 1.39804 0C1.73477 0.000862741 2.06209 0.136198 2.29944 0.376701C2.43567 0.513762 2.53936 0.684443 2.60276 0.870642C2.78785 0.931842 2.95579 1.03529 3.09544 1.17666C3.23597 1.31802 3.33965 1.48612 3.40048 1.67146C3.58556 1.73352 3.75179 1.83696 3.89146 1.97834C4.03199 2.11884 4.13566 2.28608 4.19735 2.47141C4.38157 2.53434 4.54866 2.63864 4.68919 2.77915C4.82885 2.91966 4.93167 3.08776 4.99422 3.27481C5.1793 3.3386 5.34896 3.44204 5.48604 3.57996C5.50147 3.59721 5.51603 3.61273 5.53061 3.6291C6.00701 2.95845 6.3806 2.20763 6.62823 1.39561C6.67107 1.25596 6.7996 1.16458 6.9384 1.16458C6.96925 1.16458 7.00096 1.16976 7.03266 1.1801L8.5964 1.66542C8.67866 1.69042 8.74807 1.74818 8.78833 1.8249C8.82947 1.90162 8.83804 1.98954 8.81148 2.07401C8.5767 2.84467 8.2528 3.5722 7.85351 4.24975L9.95365 6.22809L9.47296 6.6703Z" fill="#434B56"/>
<path d="M20.8904 20.8904C20.8262 20.9568 20.7328 20.9912 20.6411 20.9852L16.5394 20.7335C16.4571 20.7283 16.3799 20.6921 16.3234 20.6309L11.0581 14.9804L11.5062 14.5072L12.7658 13.1787L15.7973 16.2295C15.9242 16.357 16.1306 16.357 16.2557 16.2295C16.3826 16.1028 16.3826 15.8959 16.2557 15.7692L13.2131 12.7073L14.4701 11.3815L14.9182 10.9082L20.6308 16.2941C20.6908 16.3509 20.7293 16.4295 20.7328 16.5122L20.9855 20.6396C20.9907 20.7318 20.9572 20.8231 20.8904 20.8904ZM18.81 18.3354L17.3302 16.8484C17.2685 16.7845 17.1845 16.7527 17.1005 16.7527C17.0184 16.7527 16.9352 16.7845 16.8709 16.8484C16.7459 16.9751 16.7459 17.1829 16.8709 17.3104L18.349 18.7965C18.4758 18.9232 18.6823 18.9232 18.8092 18.7965C18.9351 18.6698 18.9351 18.4638 18.81 18.3354Z" fill="#434B56"/>
</svg>
