<?xml version="1.0" encoding="UTF-8" standalone="no"?>
<!DOCTYPE svg PUBLIC "-//W3C//DTD SVG 1.1//EN" "http://www.w3.org/Graphics/SVG/1.1/DTD/svg11.dtd">
<svg width="100%" height="100%" viewBox="0 0 88 88" version="1.1" xmlns="http://www.w3.org/2000/svg" xmlns:xlink="http://www.w3.org/1999/xlink" xml:space="preserve" xmlns:serif="http://www.serif.com/" style="fill-rule:evenodd;clip-rule:evenodd;stroke-linejoin:round;stroke-miterlimit:1.41421;">
    <g transform="matrix(1,0,0,1,-1138.92,-191.835)">
        <g transform="matrix(4.16667,0,0,4.16667,0,0)">
            <g transform="matrix(1,0,0,1,292.764,63.5846)">
                <path d="M0,-14.111L-10.867,-3.243L-11.486,-3.862L-3.87,-11.479C-3.698,-11.65 -3.698,-11.927 -3.87,-12.098C-4.041,-12.269 -4.317,-12.269 -4.488,-12.098L-12.105,-4.481L-12.724,-5.1L-1.856,-15.968L0.556,-16.525L0,-14.111ZM-9.939,-1.079L-10.249,-0.77L-12.104,-2.625L-15.197,-5.719L-14.889,-6.028L-13.65,-4.79L-11.176,-2.315L-9.939,-1.079ZM-13.215,-2.135L-14.453,-2.135L-13.652,-2.934L-13.033,-2.315L-13.215,-2.135ZM-14.453,-0.897L-15.689,-0.897L-15.328,-1.259L-14.09,-1.259L-14.453,-0.897ZM-16.166,0.816C-16.238,0.691 -16.33,0.575 -16.436,0.468C-16.542,0.363 -16.658,0.271 -16.783,0.198L-16.563,-0.022L-15.327,-0.022L-16.166,0.816ZM-17.055,2.324C-17.22,2.488 -17.438,2.58 -17.674,2.58C-17.907,2.58 -18.127,2.489 -18.293,2.324C-18.457,2.159 -18.549,1.939 -18.549,1.705C-18.549,1.472 -18.458,1.253 -18.293,1.086C-18.127,0.92 -17.907,0.83 -17.674,0.83C-17.438,0.83 -17.221,0.919 -17.055,1.086C-16.714,1.428 -16.714,1.983 -17.055,2.324M1.447,-17.416C1.343,-17.523 1.187,-17.567 1.039,-17.533L-2.176,-16.792C-2.256,-16.774 -2.329,-16.734 -2.387,-16.675L-13.343,-5.718L-14.581,-6.957C-14.663,-7.039 -14.773,-7.085 -14.89,-7.085C-15.006,-7.085 -15.116,-7.039 -15.198,-6.957L-16.127,-6.028C-16.298,-5.857 -16.298,-5.581 -16.127,-5.409L-14.271,-3.553L-17.783,-0.041C-18.21,-0.015 -18.606,0.163 -18.912,0.468C-19.241,0.799 -19.424,1.238 -19.424,1.705C-19.424,2.172 -19.241,2.613 -18.912,2.944C-18.581,3.275 -18.141,3.456 -17.674,3.456C-17.206,3.456 -16.767,3.275 -16.436,2.944C-16.123,2.632 -15.954,2.228 -15.928,1.817L-13.961,-0.15L-13.961,-0.151L-12.724,-1.388L-12.415,-1.696L-10.559,0.16C-10.477,0.241 -10.364,0.287 -10.25,0.287C-10.134,0.287 -10.021,0.24 -9.939,0.16L-9.012,-0.769C-8.841,-0.939 -8.841,-1.217 -9.012,-1.388L-10.25,-2.625L0.707,-13.582C0.766,-13.639 0.806,-13.713 0.824,-13.793L1.565,-17.008C1.6,-17.156 1.555,-17.31 1.447,-17.416" style="fill:rgb(83,101,112);fill-rule:nonzero;"/>
            </g>
        </g>
        <g transform="matrix(4.16667,0,0,4.16667,0,0)">
            <g transform="matrix(1,0,0,1,275.137,65.0349)">
                <ellipse cx="0" cy="-0.423" rx="0.422" ry="0.423" style="fill:rgb(83,101,112);"/>
            </g>
        </g>
    </g>
</svg>
