<svg width="21" height="22" viewBox="0 0 21 22" fill="none" xmlns="http://www.w3.org/2000/svg">
<path d="M20.6096 2.27324C20.4464 2.11043 20.2435 1.99308 20.0211 1.93283C19.9725 1.75052 19.8856 1.58068 19.766 1.43473C19.6464 1.28878 19.4971 1.17007 19.3279 1.08658C19.1587 1.00309 18.9736 0.956741 18.785 0.950643C18.5964 0.944544 18.4088 0.978837 18.2345 1.05122C18.0603 1.12361 17.9035 1.23241 17.7748 1.37033C17.6461 1.50826 17.5483 1.67211 17.4881 1.85091C17.4279 2.02971 17.4066 2.21933 17.4256 2.40703C17.4447 2.59474 17.5037 2.7762 17.5986 2.93924L12.97 7.56851C12.9054 7.63312 12.8691 7.72074 12.8691 7.8121C12.8691 7.90346 12.9054 7.99108 12.97 8.05569L13.9003 8.98596C13.9649 9.05055 14.0525 9.08683 14.1439 9.08683C14.2352 9.08683 14.3229 9.05055 14.3875 8.98596L19.0143 4.35565C19.2156 4.47245 19.4441 4.53413 19.6769 4.53447H19.6817C19.855 4.53511 20.0267 4.50133 20.1869 4.43509C20.3471 4.36884 20.4925 4.27146 20.6147 4.14858C20.8624 3.89903 21.0009 3.56142 20.9999 3.20984C20.999 2.85827 20.8586 2.52143 20.6096 2.27324Z" fill="#FDDEAD"/>
<path fill-rule="evenodd" clip-rule="evenodd" d="M14.2309 6.30431L15.6498 7.72234C15.6959 7.76845 15.7279 7.8267 15.7422 7.89032C15.7564 7.95394 15.7523 8.0203 15.7303 8.08166L13.7277 13.6606C13.5103 14.2681 13.3875 14.9053 13.3634 15.55C13.2962 17.2723 12.5641 18.9015 11.3208 20.0956C10.0775 21.2897 8.41965 21.9557 6.69549 21.9539C6.57304 21.9539 6.45059 21.9504 6.32744 21.9435C4.61223 21.8511 2.99837 21.1024 1.82038 19.8528C0.642387 18.6031 -0.00940614 16.9482 0.000102594 15.2311C0.00961133 13.5141 0.679692 11.8665 1.87145 10.63C3.06322 9.39339 4.68527 8.66264 6.4014 8.58918C7.04569 8.56514 7.68246 8.44233 8.28946 8.22505L13.8714 6.22351C13.9328 6.20152 13.9993 6.19744 14.0629 6.21175C14.1265 6.22605 14.1848 6.25816 14.2309 6.30431ZM5.94222 19.7901C6.00673 19.8546 6.09422 19.8908 6.18545 19.8908C6.27667 19.8908 6.36417 19.8546 6.42867 19.7901C6.49318 19.7256 6.52942 19.6381 6.52942 19.547V18.8593C6.52942 18.7681 6.49318 18.6806 6.42867 18.6161C6.36417 18.5516 6.27667 18.5154 6.18545 18.5154C6.09422 18.5154 6.00673 18.5516 5.94222 18.6161C5.87772 18.6806 5.84148 18.7681 5.84148 18.8593V19.547C5.84148 19.6381 5.87772 19.7256 5.94222 19.7901ZM7.56134 19.8908C7.47011 19.8908 7.38262 19.8546 7.31811 19.7901C7.2536 19.7256 7.21736 19.6381 7.21736 19.547V18.8593C7.21736 18.7681 7.2536 18.6806 7.31811 18.6161C7.38262 18.5516 7.47011 18.5154 7.56134 18.5154C7.65256 18.5154 7.74005 18.5516 7.80456 18.6161C7.86907 18.6806 7.90531 18.7681 7.90531 18.8593V19.547C7.90531 19.6381 7.86907 19.7256 7.80456 19.7901C7.74005 19.8546 7.65256 19.8908 7.56134 19.8908ZM8.694 19.7901C8.7585 19.8546 8.84599 19.8908 8.93722 19.8908C9.02845 19.8908 9.11594 19.8546 9.18045 19.7901C9.24496 19.7256 9.28119 19.6381 9.28119 19.547V18.8593C9.28119 18.7681 9.24496 18.6806 9.18045 18.6161C9.11594 18.5516 9.02845 18.5154 8.93722 18.5154C8.84599 18.5154 8.7585 18.5516 8.694 18.6161C8.62949 18.6806 8.59325 18.7681 8.59325 18.8593V19.547C8.59325 19.6381 8.62949 19.7256 8.694 19.7901Z" fill="#926945"/>
</svg>
