<svg width="22" height="20" viewBox="0 0 22 20" fill="none" xmlns="http://www.w3.org/2000/svg">
<path d="M21.9965 10.3177C21.9298 9.12022 19.7706 8.58346 17.6279 8.58346C16.9013 8.58346 16.1729 8.64503 15.5243 8.77336V1.8181C15.5243 1.79903 15.5243 1.77908 15.5208 1.76001C15.454 0.563366 13.2949 0.0266113 11.1539 0.0266113C9.01296 0.0266113 6.85381 0.563366 6.78444 1.76001C6.78357 1.77908 6.78183 1.79903 6.78183 1.8181V6.53183C6.06125 6.35754 5.21493 6.27342 4.37121 6.27342C2.23026 6.27342 0.0719719 6.81018 0.00260139 8.00769C0.000867131 8.0259 0 8.04584 0 8.06578V17.3051C0 18.5425 2.19558 19.0966 4.37208 19.0966C6.54858 19.0966 8.74415 18.5416 8.74415 17.3051V17.2114C9.46474 17.3848 10.3119 17.469 11.1548 17.469C11.8806 17.469 12.6098 17.4074 13.2576 17.2782V17.3051C13.2576 18.5425 15.4531 19.0966 17.6288 19.0966C19.807 19.0966 22.0009 18.5416 22.0009 17.3051V10.3758C22 10.3559 22 10.3359 21.9965 10.3177ZM15.5243 9.88069C16.0532 9.75669 16.7538 9.66477 17.6279 9.66477C19.605 9.66477 20.6967 10.1374 20.8987 10.375C20.6967 10.6125 19.605 11.086 17.6279 11.086C16.7538 11.086 16.0541 10.9932 15.5243 10.8692C14.978 10.7409 14.6181 10.5787 14.4429 10.4521C14.4065 10.4244 14.3788 10.3984 14.3571 10.375C14.3779 10.3515 14.4065 10.3255 14.4429 10.2986C14.6181 10.172 14.978 10.009 15.5243 9.88069ZM11.1539 1.10706C13.1284 1.10706 14.221 1.58051 14.4247 1.8181C14.221 2.0557 13.1284 2.52915 11.1539 2.52915C9.17858 2.52915 8.086 2.05657 7.88222 1.8181C8.086 1.58051 9.17858 1.10706 11.1539 1.10706ZM7.86315 3.0633C8.706 3.4353 9.93212 3.6096 11.1539 3.6096C12.374 3.6096 13.601 3.43444 14.4429 3.0633V4.10126C14.3033 4.32845 13.2055 4.83832 11.1539 4.83832C9.10228 4.83832 8.00275 4.32845 7.86315 4.10126V3.0633ZM7.86315 5.37334C8.706 5.74534 9.93212 5.91963 11.1539 5.91963C12.374 5.91963 13.601 5.74534 14.4429 5.37334V6.4113C14.3033 6.63849 13.2055 7.14836 11.1539 7.14836C9.10228 7.14836 8.00275 6.63849 7.86315 6.4113V5.37334ZM4.37121 7.35474C5.42824 7.35474 6.23207 7.49001 6.78183 7.65216C7.26049 7.79351 7.54751 7.95479 7.6429 8.06578C7.54838 8.17591 7.26049 8.33806 6.78183 8.47941C6.23121 8.64156 5.42824 8.77683 4.37121 8.77683C2.39588 8.77683 1.3033 8.30425 1.10039 8.06578C1.30417 7.82732 2.39588 7.35474 4.37121 7.35474ZM1.08045 9.31099C1.92243 9.68298 3.15029 9.85728 4.37121 9.85728C5.21493 9.85728 6.06125 9.77403 6.78183 9.59974C7.10354 9.5217 7.40183 9.42631 7.66197 9.31099V10.3498C7.59434 10.4591 7.30038 10.636 6.78183 10.7877C6.23121 10.9507 5.42824 11.0869 4.37121 11.0869C2.31958 11.0869 1.22092 10.5753 1.08045 10.3498V9.31099ZM1.08045 11.621C1.92243 11.993 3.15029 12.1673 4.37121 12.1673C5.21493 12.1673 6.06125 12.0841 6.78183 11.9106C7.10354 11.8326 7.40183 11.7364 7.66197 11.621V12.659C7.59434 12.7682 7.30038 12.9451 6.78183 13.0977C6.23121 13.2608 5.42824 13.3969 4.37121 13.3969C2.31958 13.3969 1.22092 12.8853 1.08045 12.659V11.621ZM1.08045 13.9302C1.92243 14.3031 3.15029 14.4774 4.37121 14.4774C5.21493 14.4774 6.06125 14.3941 6.78183 14.2198C7.10354 14.1418 7.40183 14.0455 7.66197 13.9302V14.9682C7.59434 15.0783 7.30038 15.2543 6.78183 15.4087C6.23121 15.5708 5.42824 15.7061 4.37121 15.7061C2.31958 15.7061 1.22092 15.1953 1.08045 14.9682V13.9302ZM7.66197 17.2782C7.5215 17.5054 6.42197 18.0152 4.37121 18.0152C2.32044 18.0152 1.22179 17.5054 1.08045 17.2782V16.2394C1.92243 16.6131 3.15029 16.7865 4.37121 16.7865C5.3502 16.7865 6.33353 16.6738 7.11828 16.4379C7.31252 16.3798 7.49548 16.3139 7.66111 16.2394V16.8247V17.2782H7.66197ZM13.2567 16.17C12.7295 16.294 12.028 16.3876 11.1539 16.3876C10.0977 16.3876 9.29305 16.2515 8.74329 16.0893V14.9005C9.463 15.0757 10.3111 15.1581 11.1539 15.1581C11.8806 15.1581 12.609 15.0965 13.2567 14.9673V16.17ZM13.2567 13.86C12.7295 13.9848 12.028 14.0776 11.1539 14.0776C10.0977 14.0776 9.29305 13.9415 8.74329 13.7793V12.5905C9.463 12.7656 10.3111 12.848 11.1539 12.848C11.8806 12.848 12.609 12.7873 13.2567 12.6581V13.86ZM13.2567 10.375V11.5499C12.7295 11.6748 12.028 11.7667 11.1539 11.7667C10.0977 11.7667 9.29305 11.6314 8.74329 11.4684V10.2804C9.463 10.4556 10.3111 10.538 11.1539 10.538C11.8806 10.538 12.609 10.4764 13.2593 10.3472C13.2576 10.3567 13.2567 10.3663 13.2567 10.375ZM11.1539 9.45753C10.0977 9.45753 9.29305 9.32226 8.74329 9.1601V8.06578C8.74329 8.04584 8.74242 8.02676 8.74068 8.00769C8.73982 7.99468 8.73722 7.98254 8.73635 7.9704C9.45867 8.14556 10.3085 8.22967 11.1548 8.22967C12.3748 8.22967 13.6018 8.05538 14.4438 7.68338V8.72134C14.3033 8.94766 13.2055 9.45753 11.1539 9.45753ZM20.9187 17.2782C20.7782 17.5054 19.6795 18.0152 17.6279 18.0152C15.578 18.0152 14.4785 17.5054 14.3371 17.2782V16.9652V16.2394C14.5721 16.3426 14.8357 16.4301 15.1193 16.5038C15.8607 16.6955 16.7443 16.7865 17.6279 16.7865C18.8506 16.7865 20.0767 16.6131 20.9187 16.2394V17.2782ZM20.9187 14.9682C20.7799 15.1953 19.6795 15.7061 17.6279 15.7061C16.7538 15.7061 16.0541 15.6133 15.5243 15.4893C14.978 15.3601 14.6181 15.1988 14.4429 15.0713C14.3918 15.0341 14.3571 14.9985 14.3371 14.969V14.6568V13.9311C14.6797 14.0819 15.0837 14.2007 15.5243 14.2866C16.1746 14.4149 16.9013 14.4782 17.6279 14.4782C18.8506 14.4782 20.0767 14.3039 20.9187 13.9311V14.9682ZM20.9187 12.659C20.7799 12.8853 19.6795 13.3969 17.6279 13.3969C16.7538 13.3969 16.0541 13.3033 15.5243 13.1793C14.978 13.0509 14.6181 12.8888 14.4429 12.7622C14.3918 12.724 14.3571 12.6893 14.3371 12.6598V12.3468V11.6219C14.6797 11.7719 15.0837 11.8916 15.5243 11.9774C16.1746 12.1057 16.9013 12.1682 17.6279 12.1682C18.8506 12.1682 20.0767 11.9939 20.9187 11.6219V12.659Z" fill="#30404F"/>
</svg>
