<svg width="21" height="21" viewBox="0 0 21 21" fill="none" xmlns="http://www.w3.org/2000/svg">
<path d="M19.7954 19.2127C19.7964 19.305 19.7585 19.3955 19.6914 19.4625L19.6904 19.4635C19.565 19.5909 19.3356 19.5957 19.2004 19.4732L19.7011 18.9706C19.7614 19.0367 19.7954 19.1242 19.7954 19.2127ZM13.6238 11.1121L15.717 13.3395C15.4535 13.532 15.2007 13.7362 14.9606 13.95L13.3545 12.3449C13.2504 12.2399 13.1114 12.1825 12.9626 12.1825H12.9617C12.8139 12.1825 12.6749 12.2409 12.5738 12.3439C12.4697 12.448 12.4114 12.587 12.4104 12.7338C12.4104 12.8825 12.4688 13.0216 12.5728 13.1266L14.1779 14.7327C13.967 14.9689 13.7628 15.2217 13.5683 15.4881L11.2651 13.321L13.6238 11.1121ZM18.551 13.5621C16.3489 14.405 14.632 16.122 13.7929 18.3231L13.3525 18.188C13.7881 17.0417 14.4677 15.9868 15.3038 15.143L15.367 15.0982L15.3777 15.073C16.2371 14.2242 17.2832 13.5553 18.4168 13.1237L18.551 13.5621ZM7.54834 18.188L7.10889 18.3231C6.26987 16.121 4.55292 14.4041 2.34986 13.5621L2.48403 13.1237C3.63223 13.5592 4.69 14.2407 5.55528 15.1041L5.56695 15.1187C6.4332 15.9849 7.11473 17.0427 7.54834 18.188ZM2.14764 4.8092L1.66931 1.44045L5.03806 1.91878L9.68431 6.91892L7.23431 9.5342L2.14764 4.8092ZM8.33098 13.1256C8.54292 12.9098 8.54292 12.5598 8.33001 12.3449C8.12098 12.1349 7.75542 12.1359 7.54737 12.3439L5.94125 13.95C5.70112 13.7342 5.44737 13.53 5.18389 13.3385L16.2147 1.56781L19.2938 1.3792L19.1042 4.4592L7.33542 15.4881C7.14292 15.2246 6.93876 14.9718 6.72389 14.7317L8.33098 13.1256ZM1.70236 19.4723C1.5682 19.5957 1.33875 19.5909 1.21042 19.4625C1.14431 19.3964 1.10639 19.305 1.10639 19.2117C1.10639 19.1223 1.14139 19.0338 1.2007 18.9696L1.70236 19.4723ZM20.474 18.1773C20.3477 18.0509 20.1931 17.9468 20.022 17.873C19.949 17.7018 19.845 17.5492 19.7128 17.416C19.5796 17.2838 19.4279 17.1807 19.2588 17.1078C19.1878 16.9416 19.0818 16.787 18.9506 16.6557C18.8213 16.5245 18.6667 16.4185 18.4965 16.3466C18.4246 16.1784 18.3215 16.0267 18.1883 15.8925C18.0552 15.7593 17.9015 15.6553 17.7324 15.5824C17.6896 15.4832 17.6352 15.3899 17.5729 15.3024C18.1407 14.931 18.7542 14.6413 19.4017 14.443C19.5388 14.4021 19.6535 14.3078 19.7303 14.1707C19.7984 14.0395 19.812 13.8907 19.7692 13.7507L19.3074 12.2564C19.2646 12.1155 19.1693 11.9998 19.039 11.9298C18.9078 11.8598 18.7571 11.8452 18.6161 11.8899C17.9385 12.097 17.2832 12.3799 16.6629 12.7309L14.4307 10.3577L20.0239 5.11545C20.126 5.01726 20.1892 4.88212 20.196 4.74698L20.4371 0.823085C20.4468 0.666557 20.3885 0.512946 20.2777 0.400168C20.1668 0.28739 20.0103 0.22614 19.8508 0.237807L15.926 0.476974C15.784 0.486696 15.6528 0.548918 15.5585 0.651002L10.4417 6.11101L5.7157 1.02239C5.63014 0.931002 5.51445 0.869752 5.38806 0.85128L1.09667 0.241696C0.926529 0.216418 0.750556 0.273779 0.625139 0.398224C0.502639 0.522668 0.44625 0.692807 0.469584 0.866835L1.08014 5.16114C1.09861 5.28559 1.15986 5.40031 1.25125 5.48587L6.47695 10.3411L4.23986 12.7289C3.61959 12.378 2.96431 12.095 2.28764 11.888C2.14667 11.8442 1.99792 11.8578 1.86764 11.9268C1.73639 11.9959 1.64014 12.1116 1.59639 12.2525L1.13556 13.7488C1.09181 13.8898 1.10639 14.0395 1.17542 14.1698C1.24542 14.3 1.36014 14.3953 1.50111 14.44C2.14861 14.6393 2.76306 14.9281 3.33084 15.3014C3.26764 15.388 3.21417 15.4823 3.17236 15.5805C3.00222 15.6534 2.84959 15.7574 2.71736 15.8896C2.5832 16.0228 2.47917 16.1755 2.40722 16.3437C2.23903 16.4156 2.08639 16.5187 1.9532 16.6528C1.82097 16.785 1.71792 16.9367 1.64597 17.1049C1.47583 17.1778 1.32028 17.2838 1.19195 17.4131C1.05875 17.5463 0.954723 17.6989 0.881806 17.87C0.711667 17.943 0.556112 18.048 0.427778 18.1753C0.155556 18.4485 0 18.8248 0 19.2088C0 19.5918 0.155556 19.9681 0.427778 20.2423C0.972223 20.7867 1.95708 20.7848 2.49472 20.2432C2.62306 20.1159 2.72709 19.9603 2.80195 19.7902C2.97111 19.7182 3.12472 19.6142 3.25792 19.48C3.39111 19.3478 3.49417 19.1952 3.56611 19.027C3.73625 18.9541 3.88792 18.851 4.01723 18.7207C4.15139 18.5875 4.25639 18.4349 4.32834 18.2648C4.49653 18.1928 4.64917 18.0898 4.78139 17.9575C4.91362 17.8263 5.01764 17.6737 5.09153 17.5016C5.1907 17.4578 5.285 17.4053 5.37153 17.3421C5.74584 17.9099 6.03459 18.5234 6.23292 19.1709C6.31848 19.4538 6.62959 19.6307 6.92514 19.5374L8.41848 19.0766C8.55848 19.0348 8.67806 18.9366 8.74806 18.8053C8.81612 18.6741 8.82973 18.5243 8.78598 18.3843C8.58084 17.7116 8.29792 17.0553 7.94501 16.4331L10.4582 14.0784L12.9607 16.4331C12.6078 17.0563 12.3239 17.7125 12.1178 18.3882C12.076 18.5312 12.0896 18.6789 12.1586 18.8092C12.2286 18.9395 12.3453 19.0338 12.4853 19.0766L13.9757 19.5355C14.2615 19.6317 14.5833 19.4557 14.6708 19.1718C14.8711 18.5214 15.1599 17.908 15.5313 17.3421C15.6188 17.4053 15.7131 17.4588 15.8122 17.5016C15.8852 17.6707 15.9902 17.8263 16.1195 17.9566C16.2527 18.0888 16.4043 18.1928 16.5735 18.2657C16.6454 18.433 16.7514 18.5885 16.8836 18.7188C17.0168 18.851 17.1685 18.9541 17.3347 19.026C17.4057 19.1932 17.5097 19.3459 17.6449 19.48C17.7771 19.6142 17.9307 19.7182 18.1008 19.7902C18.1738 19.9603 18.2788 20.1149 18.4061 20.2423C18.6774 20.5135 19.0536 20.67 19.4406 20.671C19.8246 20.67 20.2018 20.5135 20.4731 20.2423C20.7434 19.972 20.8999 19.5957 20.9028 19.2088C20.9028 18.8257 20.7463 18.4505 20.474 18.1773Z" fill="#30404F"/>
<path d="M4.12528 3.90103C4.29542 3.73186 4.29542 3.45575 4.12625 3.28755L3.31347 2.47575C3.1443 2.30561 2.87014 2.30561 2.70097 2.47575C2.53083 2.64394 2.5318 2.91908 2.70097 3.08825L3.51278 3.90006C3.59736 3.98464 3.70819 4.02742 3.81903 4.02742C3.92986 4.02742 4.04069 3.98464 4.12528 3.90103Z" fill="#30404F"/>
<path d="M7.8279 8.20968C7.91345 8.2933 8.02428 8.33705 8.13512 8.33705C8.24692 8.33705 8.35679 8.29427 8.44137 8.21066C8.61054 8.04149 8.61054 7.76635 8.44137 7.59816L5.01525 4.17204C4.84609 4.00287 4.57192 4.00287 4.40275 4.17204C4.23359 4.34121 4.23359 4.61635 4.40275 4.78551C4.40275 4.78454 4.40275 4.78551 4.40275 4.78551L7.8279 8.20968Z" fill="#30404F"/>
<path d="M16.1729 3.8873C16.0057 4.05646 16.0057 4.33063 16.1719 4.4998C16.2575 4.58535 16.3703 4.62813 16.4801 4.62813C16.591 4.62813 16.7028 4.58535 16.7864 4.50077L18.2019 3.08716C18.3682 2.91799 18.3692 2.64382 18.2019 2.47466C18.0318 2.30646 17.7557 2.30549 17.5865 2.47466L16.1729 3.8873Z" fill="#30404F"/>
<path d="M15.1453 4.91581L10.3299 9.73318C10.1597 9.90137 10.1607 10.1765 10.3299 10.3457C10.4145 10.4312 10.5263 10.4721 10.6361 10.4721C10.746 10.4721 10.8568 10.4312 10.9424 10.3457L15.7588 5.52831C15.9279 5.35915 15.9279 5.08498 15.7588 4.91581C15.5896 4.74568 15.3154 4.74665 15.1453 4.91581Z" fill="#30404F"/>
</svg>
