<svg width="22" height="22" viewBox="0 0 22 22" fill="none" xmlns="http://www.w3.org/2000/svg">
<path d="M10.4453 10.8937C8.88691 10.8937 7.61995 9.62513 7.61995 8.06674C7.61995 6.50835 8.88691 5.24221 10.4453 5.24221C12.0012 5.24221 13.2666 6.5059 13.2698 8.06102V8.07245C13.2698 8.15409 13.2527 8.22919 13.247 8.30756H13.2453C13.0821 8.30756 12.9482 8.43981 12.9482 8.60226C12.9482 9.13859 12.5515 9.58023 12.0363 9.6586C11.9482 9.40227 11.709 9.21369 11.4216 9.21369C11.0584 9.21369 10.7637 9.50921 10.7637 9.87166C10.7637 10.2349 11.0584 10.5296 11.4216 10.5296C11.6363 10.5296 11.8192 10.4202 11.9392 10.2594C12.0494 10.2553 12.1539 10.2423 12.2568 10.2186C11.7653 10.6325 11.1384 10.8937 10.4453 10.8937ZM5.91544 9.79982H6.49504C6.6232 9.79982 6.73586 9.75084 6.83382 9.68064C7.45342 11.0611 8.83711 12.026 10.4453 12.026C12.0363 12.026 13.4086 11.079 14.0364 9.72064C14.1213 9.76635 14.2135 9.79982 14.3172 9.79982H14.896C15.2266 9.79982 15.4968 9.53125 15.4968 9.199V7.19407C15.4968 6.86427 15.2282 6.59406 14.8968 6.59406H14.318C14.2494 6.59406 14.1898 6.61202 14.1303 6.63243C13.5539 5.15813 12.1212 4.10913 10.4453 4.10913C8.75956 4.10913 7.32117 5.16874 6.75137 6.65611C6.67382 6.61937 6.5881 6.59406 6.49586 6.59406H5.91544C5.58482 6.59406 5.31543 6.86264 5.31543 7.19407V9.199C5.31625 9.53043 5.58482 9.79982 5.91544 9.79982Z" fill="#30404F"/>
<path d="M16.6679 16.6826V16.6834V16.6826ZM16.0442 13.4532C15.2753 12.6793 14.254 12.2532 13.1699 12.2532H7.80739C5.56491 12.2532 3.74121 14.0891 3.74121 16.3455C3.74121 16.6467 3.98693 16.8916 4.29061 16.8916C4.5902 16.8892 4.83347 16.6443 4.83347 16.3455C4.83347 14.6916 6.16818 13.3463 7.80821 13.3463H13.1691C14.8091 13.3463 16.1438 14.6916 16.1438 16.3455C16.1438 16.6173 16.3512 16.8483 16.6108 16.8794L16.6647 16.8916H16.694C16.8394 16.89 16.9757 16.8328 17.081 16.7283C17.1814 16.6247 17.2377 16.4834 17.2353 16.3455C17.2361 15.254 16.8132 14.2271 16.0442 13.4532Z" fill="#30404F"/>
<path d="M10.5239 2.49722C5.59359 2.49722 1.58376 6.50706 1.58376 11.4362C1.58376 16.3677 5.59359 20.3764 10.5239 20.3764C15.4543 20.3764 19.4629 16.3677 19.4629 11.4362C19.4629 6.50706 15.4543 2.49722 10.5239 2.49722ZM10.5239 21.9351C4.73493 21.9351 0.0239258 17.2264 0.0239258 11.4351C0.0239258 5.64606 4.73493 0.935059 10.5239 0.935059C16.3129 0.935059 21.0239 5.64489 21.0239 11.4351C21.0239 17.2264 16.3141 21.9351 10.5239 21.9351Z" fill="#30404F"/>
</svg>
