<svg width="24" height="24" viewBox="0 0 24 24" fill="none" xmlns="http://www.w3.org/2000/svg">
<path d="M9.1999 7.5C9.4999 7.5 9.5999 7.4 9.6999 7.2C9.8999 6.1 10.7999 5.4 11.8999 5.4C11.9999 5.4 12.1999 5.4 12.2999 5.4C12.4999 5.4 12.6999 5.3 12.7999 5.1C12.7999 4.9 12.6999 4.7 12.4999 4.6C12.2999 4.6 12.0999 4.5 11.8999 4.5C10.4999 4.5 9.1999 5.5 8.8999 6.9C8.8999 7 8.8999 7.1 8.9999 7.2C8.9999 7.5 9.0999 7.5 9.1999 7.5Z" fill="#CBCDD8"/>
<path d="M15.2998 13.8H8.8998C6.3998 13.8 4.2998 15.9 4.2998 18.4C4.2998 18.6 4.4998 18.8 4.6998 18.8C4.8998 18.8 5.0998 18.6 5.0998 18.4C5.0998 16.3 6.7998 14.6 8.8998 14.6H15.2998C17.3998 14.6 19.0998 16.3 19.0998 18.4C19.0998 18.6 19.2998 18.8 19.4998 18.8C19.6998 18.8 19.8998 18.6 19.8998 18.4C19.8998 15.8 17.7998 13.8 15.2998 13.8Z" fill="#CBCDD8"/>
<path d="M8.79961 9.0001C8.79961 9.2001 8.99961 9.3001 9.19961 9.3001H9.29961C9.49961 9.3001 9.59961 9.0001 9.59961 8.8001C9.59961 8.7001 9.59961 8.3001 9.59961 8.1001C9.59961 8.0001 9.59961 7.9001 9.49961 7.8001C9.39961 7.7001 9.29961 7.6001 9.19961 7.6001C8.99961 7.6001 8.79961 7.8001 8.79961 8.0001C8.69961 8.1001 8.69961 8.7001 8.79961 9.0001Z" fill="#CBCDD8"/>
<path d="M6.7 10.3001H7.4C7.6 10.3001 7.7 10.2001 7.8 10.1001C8.5 11.7001 10.2 12.9001 12.1 12.9001C14 12.9001 15.6 11.8001 16.4 10.1001C16.5 10.2001 16.6 10.2001 16.7 10.2001H17.4C17.8 10.2001 18.1 9.9001 18.1 9.5001V7.3001C18.1 6.9001 17.8 6.6001 17.4 6.6001H16.7C16.6 6.6001 16.5 6.6001 16.5 6.6001C15.8 4.8001 14.1 3.6001 12.1 3.6001C10.1 3.6001 8.4 4.9001 7.7 6.6001C7.6 6.6001 7.5 6.5001 7.4 6.5001H6.7C6.3 6.6001 6 6.9001 6 7.3001V9.7001C6 10.0001 6.3 10.3001 6.7 10.3001ZM12.1 4.4001C14.3 4.4001 16 6.2001 16 8.3001C16 8.4001 16 8.6001 16 8.7001C15.8 8.7001 15.7 8.9001 15.7 9.0001C15.7 9.4001 15.5 9.8001 15.2 10.0001C15 10.2001 14.7 10.3001 14.3 10.3001C14.2 10.0001 13.8 9.7001 13.5 9.7001C13 9.7001 12.6 10.1001 12.6 10.6001C12.6 11.1001 13 11.5001 13.5 11.5001C13.8 11.5001 14.1 11.3001 14.3 11.1001C14.5 11.1001 14.7 11.1001 14.9 11.0001C14.2 11.7001 13.2 12.1001 12.2 12.1001C10 12.1001 8.3 10.3001 8.3 8.2001C8.2 6.1001 10 4.4001 12.1 4.4001Z" fill="#CBCDD8"/>
<path d="M12.1 23.0999C18.2304 23.0999 23.2 18.1303 23.2 11.9999C23.2 5.86954 18.2304 0.899902 12.1 0.899902C5.96964 0.899902 1 5.86954 1 11.9999C1 18.1303 5.96964 23.0999 12.1 23.0999Z" stroke="#CBCDD8" stroke-width="0.7" stroke-linecap="round" stroke-linejoin="round"/>
</svg>
