<svg width="21" height="21" viewBox="0 0 21 21" fill="none" xmlns="http://www.w3.org/2000/svg">
<path d="M10.2997 10.7856C7.90594 10.7856 5.95981 8.83693 5.95981 6.44315C5.95981 4.04936 7.90594 2.10449 10.2997 2.10449C12.6897 2.10449 14.6334 4.0456 14.6384 6.43437V6.45192C14.6384 6.57732 14.612 6.69268 14.6033 6.81306H14.6008C14.35 6.81306 14.1443 7.0162 14.1443 7.26574C14.1443 8.08958 13.5349 8.76796 12.7437 8.88834C12.6082 8.4946 12.2408 8.20494 11.7994 8.20494C11.2414 8.20494 10.7888 8.65887 10.7888 9.21562C10.7888 9.77363 11.2414 10.2263 11.7994 10.2263C12.1292 10.2263 12.4101 10.0583 12.5944 9.81125C12.7637 9.80498 12.9242 9.78491 13.0822 9.74855C12.3274 10.3843 11.3643 10.7856 10.2997 10.7856ZM3.34157 9.10528H4.23187C4.42874 9.10528 4.60179 9.03004 4.75226 8.9222C5.70401 11.0426 7.82945 12.5248 10.2997 12.5248C12.7437 12.5248 14.8515 11.0702 15.8158 8.98364C15.9462 9.05386 16.0879 9.10528 16.2472 9.10528H17.1362C17.6441 9.10528 18.0591 8.69273 18.0591 8.18237V5.10268C18.0591 4.59608 17.6466 4.18103 17.1375 4.18103H16.2484C16.1431 4.18103 16.0516 4.20861 15.96 4.23996C15.0747 1.97534 12.8741 0.364014 10.2997 0.364014C7.71032 0.364014 5.50087 1.99164 4.62561 4.27633C4.50649 4.2199 4.37482 4.18103 4.23313 4.18103H3.34157C2.83372 4.18103 2.41992 4.59358 2.41992 5.10268V8.18237C2.42118 8.69147 2.83372 9.10528 3.34157 9.10528Z" fill="#30404F"/>
<path d="M14.5522 13.6121H6.22357C2.79196 13.6121 0 16.404 0 19.8356C0 20.253 0.338937 20.592 0.756322 20.592C1.1727 20.592 1.51164 20.253 1.51164 19.8356C1.51164 17.2378 3.62572 15.1247 6.22357 15.1247H14.5522C17.149 15.1247 19.2621 17.2378 19.2621 19.8356C19.2621 20.253 19.601 20.592 20.0184 20.592C20.4348 20.592 20.7737 20.253 20.7737 19.8356C20.7737 16.404 17.9828 13.6121 14.5522 13.6121Z" fill="#30404F"/>
<path d="M6.77198 6.9947C6.80571 6.99487 6.83892 6.99207 6.8744 6.98477C7.11006 6.937 7.27949 6.72833 7.27914 6.4894C7.27649 5.08146 8.27668 3.85785 9.6545 3.58068C9.84378 3.54213 10.0395 3.52285 10.2355 3.52194C10.5199 3.52478 10.7388 3.29 10.7395 3.01617C10.7374 2.73873 10.5117 2.51308 10.2341 2.51413C9.97265 2.51436 9.71065 2.54023 9.45717 2.59115C7.60705 2.96404 6.26683 4.60418 6.27017 6.48998C6.2705 6.62474 6.32348 6.75121 6.41801 6.84686C6.51352 6.94233 6.64019 6.9945 6.77198 6.9947Z" fill="#30404F"/>
</svg>
