<svg width="185" height="112" viewBox="0 0 185 112" fill="none" xmlns="http://www.w3.org/2000/svg">
<rect width="185" height="95" rx="8" fill="url(#paint0_linear_22_21)"/>
<rect width="185" height="95" rx="8" fill="url(#paint1_linear_22_21)"/>
<rect width="185" height="95" rx="8" fill="url(#paint2_radial_22_21)" fill-opacity="0.6" style="mix-blend-mode:plus-lighter"/>
<path d="M50 102.988C50 101.883 50.8954 100.988 52 100.988H75.9123C77.0169 100.988 77.9123 100.092 77.9123 98.9879V93.8091C77.9123 92.7034 78.8094 91.8075 79.9151 91.8091L106.09 91.8455C107.194 91.847 108.088 92.742 108.088 93.8455V98.9879C108.088 100.092 108.983 100.988 110.088 100.988H134C135.105 100.988 136 101.883 136 102.988V109.806C136 110.911 135.105 111.806 134 111.806H52C50.8954 111.806 50 110.911 50 109.806V102.988Z" fill="#3909DB"/>
<path d="M34.232 30.2551C21.9795 30.2551 12 40.4461 12 53.1562C12 65.8663 21.9795 76 34.232 76C46.4846 76 56.5195 65.809 56.5195 53.1562C56.5195 40.5033 46.54 30.2551 34.232 30.2551ZM34.232 66.4388C27.4127 66.4388 21.8131 60.1982 21.8131 53.1562C21.8131 46.1141 27.4127 39.8163 34.232 39.8163C41.0513 39.8163 46.7064 46.0568 46.7064 53.1562C46.7064 60.2555 41.1068 66.4388 34.232 66.4388Z" fill="white"/>
<path d="M21.4805 26.8199C24.1417 26.8199 26.3593 24.5298 26.3593 21.7244C26.3593 18.919 24.1417 16.6862 21.4805 16.6862C18.8193 16.6862 16.5462 18.9763 16.5462 21.7244C16.5462 24.4725 18.7639 26.8199 21.4805 26.8199Z" fill="white"/>
<path d="M46.9835 26.8199C49.6447 26.8199 51.8624 24.5298 51.8624 21.7244C51.8624 18.919 49.6447 16.6862 46.9835 16.6862C44.3223 16.6862 42.0492 18.9763 42.0492 21.7244C42.0492 24.4725 44.2669 26.8199 46.9835 26.8199Z" fill="white"/>
<path d="M34.2321 26.8199C36.8933 26.8199 39.1109 24.5298 39.1109 21.7244C39.1109 18.919 36.8933 16.6862 34.2321 16.6862C31.5709 16.6862 29.2978 18.9763 29.2978 21.7244C29.2978 24.4725 31.5154 26.8199 34.2321 26.8199Z" fill="white"/>
<path d="M132.474 31.0566H121.663L108.856 49.4347V17.4304H99.0431V75.1984H108.856V56.8203L122.661 75.1984H134.248L117.228 52.8698L132.474 31.0566Z" fill="white"/>
<path d="M94.4415 31.0566H83.6304L70.8234 49.4347V17.4304H61.0103V75.1984H70.8234V56.8203L84.6284 75.1984H96.2156L79.1951 52.8698L94.4415 31.0566Z" fill="white"/>
<path d="M151.713 30.2551C139.46 30.2551 129.481 40.4461 129.481 53.1562C129.481 65.8663 139.46 76 151.713 76C163.965 76 174 65.809 174 53.1562C174 40.5033 164.021 30.2551 151.713 30.2551ZM151.657 66.4388C144.838 66.4388 139.238 60.1982 139.238 53.1562C139.238 46.1141 144.838 39.8163 151.657 39.8163C158.476 39.8163 164.131 46.0568 164.131 53.1562C164.131 60.2555 158.532 66.4388 151.657 66.4388Z" fill="white"/>
<defs>
<linearGradient id="paint0_linear_22_21" x1="-20.9889" y1="90.5468" x2="238.715" y2="57.8654" gradientUnits="userSpaceOnUse">
<stop stop-color="#DFE6FF"/>
<stop offset="0.63" stop-color="white"/>
<stop offset="1" stop-color="#E2DCFE"/>
</linearGradient>
<linearGradient id="paint1_linear_22_21" x1="0" y1="95" x2="185.988" y2="93.0256" gradientUnits="userSpaceOnUse">
<stop stop-color="#160451"/>
<stop offset="0.711152" stop-color="#3E0AD2"/>
<stop offset="1" stop-color="#26065A"/>
</linearGradient>
<radialGradient id="paint2_radial_22_21" cx="0" cy="0" r="1" gradientUnits="userSpaceOnUse" gradientTransform="translate(124.193 20.383) rotate(75.8041) scale(278.914 142.545)">
<stop stop-color="#0E04C3" stop-opacity="0.7"/>
<stop offset="1" stop-color="#30027F" stop-opacity="0"/>
</radialGradient>
</defs>
</svg>
